<?xml version="1.0" encoding="utf-8"?>
<!-- Generator: Adobe Illustrator 25.0.0, SVG Export Plug-In . SVG Version: 6.00 Build 0)  -->
<svg version="1.1" id="Слой_1" xmlns="http://www.w3.org/2000/svg" xmlns:xlink="http://www.w3.org/1999/xlink" x="0px" y="0px"
	 viewBox="0 0 500 500" style="enable-background:new 0 0 500 500;" xml:space="preserve">
<style type="text/css">
	.st0{display:none;fill-rule:evenodd;clip-rule:evenodd;fill:#FFFFFF;}
	.st1{fill-rule:evenodd;clip-rule:evenodd;fill:#005369;}
</style>
<path class="st0" d="M406.3,347.1H405v-12.3h8.3v1.1h-7V347.1z M399.6,347.1h-8.8v-12.3h8.7v1.1h-7.3v3.9h6v1.1h-6v4.8h7.5V347.1z
	 M375.8,347.1h-1.3v-12.3h1.3v5h7.5v-5h1.3V347h-1.3v-6h-7.5V347.1z M369.2,347.1h-8.8v-12.3h8.7v1.1h-7.3v3.9h6v1.1h-6v4.8h7.5
	V347.1z M344.9,345.8h7.2V336h-5.2v0.8C346.9,341,346.2,344,344.9,345.8z M343.6,349.7h-1.2v-3.9h1.2c0.8-1.1,1.3-2.3,1.7-3.7
	c0.3-1.5,0.5-3.4,0.5-5.8v-1.5h7.7v11h1.8v3.9H354V347h-10.5V349.7z M333.7,347.1h-8.8v-12.3h8.7v1.1h-7.3v3.9h6v1.1h-6v4.8h7.5
	V347.1z M308.3,347.1h-1.3v-12.3h1.3l4.5,5.8l4.5-5.8h1.3V347h-1.3v-10.2l-4.2,5.3h-0.8l-4.2-5.3v10.3H308.3z M291.3,344.5
	c1,1,2.2,1.5,3.5,1.5c1.3,0,2.7-0.5,3.5-1.5c1-1,1.5-2.3,1.5-3.6c0-1.5-0.5-2.6-1.5-3.6c-1-1-2.2-1.5-3.5-1.5
	c-1.3,0-2.7,0.5-3.5,1.5c-1,1-1.5,2.3-1.5,3.6C289.8,342.4,290.3,343.6,291.3,344.5z M290.3,336.5c1.2-1.1,2.7-1.8,4.5-1.8
	c1.8,0,3.3,0.6,4.5,1.8c1.2,1.1,1.8,2.7,1.8,4.5s-0.7,3.2-1.8,4.5c-1.2,1.1-2.7,1.8-4.5,1.8c-1.8,0-3.3-0.6-4.5-1.8
	c-1.2-1.1-1.8-2.7-1.8-4.5S289.1,337.8,290.3,336.5z M275.8,336.1v4.5h3.8c0.8,0,1.5-0.2,2-0.6c0.5-0.3,0.7-1,0.7-1.6
	s-0.2-1.3-0.7-1.6c-0.5-0.3-1.2-0.6-2-0.6H275.8z M275.8,347.1h-1.3v-12.3h5.3c1.2,0,2.2,0.3,3,1c0.7,0.6,1,1.5,1,2.4
	c0,1-0.3,1.9-1,2.4c-0.7,0.6-1.7,1-3,1h-4V347.1z M259.8,334.8h1.3v5.3l5.8-5.3h1.8l-6.2,5.5l7.2,6.6H268l-6.7-6.1v6.1H260v-12.1
	H259.8z M249.9,347.1H241v-12.3h8.7v1.1h-7.3v3.9h6v1.1h-6v4.8h7.5V347.1z M231.7,347.3c-1.8,0-3.3-0.6-4.7-1.8
	c-1.2-1.1-1.8-2.7-1.8-4.5s0.7-3.4,1.8-4.5c1.2-1.1,2.8-1.8,4.7-1.8c1.3,0,2.5,0.3,3.5,1v1.3c-1.2-0.6-2.3-1-3.5-1
	c-1.5,0-2.7,0.5-3.7,1.5c-1,1-1.5,2.1-1.5,3.6s0.5,2.7,1.5,3.7c1,1,2.2,1.5,3.7,1.5c1.5,0,2.7-0.5,3.7-1.3v1.3
	C234.6,347,233.2,347.3,231.7,347.3z M211.8,336.1v4h3.8c0.8,0,1.3-0.2,1.8-0.5c0.5-0.3,0.7-0.8,0.7-1.5c0-0.6-0.2-1.1-0.7-1.5
	c-0.5-0.3-1-0.5-1.8-0.5h-3.8V336.1z M211.8,341.1v4.7h4.5c1,0,1.7-0.2,2.2-0.6c0.5-0.5,0.8-1,0.8-1.8c0-0.8-0.3-1.3-0.8-1.8
	c-0.5-0.5-1.2-0.6-2.2-0.6h-4.5V341.1z M216.4,347.1h-6v-12.3h5.5c1.2,0,2,0.3,2.7,0.8c0.7,0.5,1,1.3,1,2.1c0,0.6-0.2,1.1-0.5,1.6
	c-0.3,0.5-0.7,0.8-1.2,1c0.8,0.2,1.5,0.5,2,1.1c0.5,0.6,0.7,1.3,0.7,2.3c0,1-0.3,1.8-1.2,2.4C218.7,346.8,217.7,347.1,216.4,347.1z
	 M189.1,347.1h-1.3v-12.3h1.3l4.5,5.8l4.5-5.8h1.3V347h-1.3v-10.2l-4.2,5.3h-0.8l-4.2-5.3v10.3H189.1z M182.5,347.1h-8.8v-12.3h8.7
	v1.1H175v3.9h6v1.1h-6v4.8h7.5V347.1z M162.3,336.5l-2.8,6.1h5.7L162.3,336.5z M157.5,347.1h-1.3l5.7-12.3h1.2l5.7,12.3h-1.3
	l-1.5-3.4h-6.5L157.5,347.1z M149.7,347.1h-1.3v-11H144v-1.3h10v1.1h-4.3V347.1z M135.7,336.5l-2.8,6.1h5.7L135.7,336.5z
	 M130.9,347.1h-1.3l5.7-12.3h1.2l5.7,12.3h-1.3l-1.5-3.4h-6.5L130.9,347.1z M124.6,347.1h-1.3v-5.5c-1.2,0.5-2.3,0.6-3.7,0.6
	c-1.5,0-2.5-0.3-3.3-1c-0.7-0.6-1.2-1.6-1.2-2.9v-3.6h1.3v3.2c0,1.1,0.3,1.8,0.8,2.3c0.5,0.5,1.3,0.6,2.5,0.6c1.2,0,2.2-0.2,3.3-0.6
	v-5.5h1.3v12.3H124.6z M110.4,347.1h-8.8v-12.3h8.7v1.1h-7.3v3.9h5.8v1.1h-6v4.8h7.7V347.1z M86.8,347.1h-1.3v-12.3h9.8V347h-1.3
	v-11h-7.2V347.1z"/>
<path class="st1" d="M17.1,333.3h147.6v24.8H17.1V333.3z M290.7,308.3l-27.5-26.6V168.5l27.5-26.6h48.2l27.5,26.6v23.2h-34.6v-16.6
	h-34.3v99.8h34.3v-16.6h34.6v23.2l-27.5,26.6h-48.2V308.3z M413.2,283.3h34.3v-74.8h-34.3V283.3z M406.4,308.3l-27.5-20v-84.8
	l27.5-20h48.2l27.5,20v84.8l-27.5,20H406.4z M96.3,308.3v-25h17.2v-74.8H96.3v-25h51.5l51.5,71.4v-46.4h-17.2v-25h68.6v25h-17.2
	v99.8h-34.3l-51.5-71.4v46.1h17.2v25H96.3V308.3z M17.8,308.3v-33.4h17.2v-99.6H17.8v-33.4h66.3v33.4H69.2v99.8h14.8v33.4H17.8
	V308.3z"/>
</svg>
