<?xml version="1.0" standalone="no"?>
<!DOCTYPE svg PUBLIC "-//W3C//DTD SVG 20010904//EN"
 "http://www.w3.org/TR/2001/REC-SVG-20010904/DTD/svg10.dtd">
<svg version="1.0" xmlns="http://www.w3.org/2000/svg"
 width="700.000000pt" height="700.000000pt" viewBox="0 0 700.000000 700.000000"
 preserveAspectRatio="xMidYMid meet">
<metadata>
Created by potrace 1.14, written by Peter Selinger 2001-2017
</metadata>
<g transform="translate(0.000000,700.000000) scale(0.100000,-0.100000)"
fill="#000000" stroke="none">
<path d="M260 5012 c-6 -2 -10 -90 -10 -235 l0 -232 120 1 120 1 0 -699 0
-698 -120 0 -120 0 0 -235 0 -234 463 0 462 1 0 231 0 232 -103 3 -102 3 2
697 3 697 80 1 c44 1 90 2 101 3 21 1 22 3 21 231 0 127 -3 230 -6 231 -17 3
-902 4 -911 1z"/>
<path d="M4088 5010 c-17 -3 -96 -72 -215 -187 l-188 -182 0 -793 0 -793 104
-100 c57 -55 144 -138 192 -185 l88 -85 338 1 338 0 56 55 c30 30 117 113 192
186 l137 132 0 160 c0 118 -3 160 -12 163 -11 3 -393 3 -454 -1 -19 -1 -20 -7
-20 -113 l1 -113 -234 -3 c-136 -1 -237 2 -240 7 -3 5 -6 319 -6 698 l0 688
238 3 c155 1 237 -1 238 -8 1 -5 2 -54 3 -107 1 -54 4 -102 8 -108 4 -6 95
-10 240 -10 l233 0 3 163 2 163 -126 122 c-70 67 -156 151 -192 186 l-64 64
-317 1 c-174 1 -329 -1 -343 -4z"/>
<path d="M1350 4255 l0 -175 103 1 c56 0 110 0 120 0 16 -1 17 -33 17 -524 l0
-523 -117 0 -118 1 -3 -173 -2 -172 197 -2 c109 -2 325 -2 481 0 l282 3 0 173
0 173 -116 1 c-64 0 -118 3 -121 5 -3 4 -6 453 -3 610 0 24 26 -8 153 -183 83
-117 185 -258 225 -314 41 -55 85 -117 97 -136 13 -19 73 -102 134 -185 l110
-150 240 0 241 0 0 697 0 698 63 1 c34 0 87 1 117 2 l55 2 3 173 2 172 -480 0
-480 0 0 -174 0 -175 116 0 c65 0 119 -2 121 -4 2 -2 2 -147 1 -321 l-3 -317
-285 396 c-329 456 -382 530 -411 568 l-21 27 -359 0 -359 0 0 -175z"/>
<path d="M5570 4345 c-63 -47 -148 -108 -187 -137 -40 -29 -73 -55 -74 -58 -1
-3 -2 -270 -3 -594 l-1 -590 50 -38 c117 -89 328 -238 339 -239 6 -1 159 -2
341 -3 l330 -2 130 95 c71 51 158 114 193 139 l62 46 -2 595 -3 595 -175 127
c-96 70 -180 132 -187 138 -8 8 -123 11 -355 11 l-343 -1 -115 -84z m689 -270
c11 -11 7 -1035 -4 -1036 -5 -1 -112 -3 -237 -3 -149 -1 -229 2 -231 9 -2 5
-3 240 -3 520 l1 510 45 5 c63 7 421 3 429 -5z"/>
<path d="M240 2163 c0 -158 2 -173 18 -174 50 -3 2019 -4 2032 -1 13 3 16 29
15 175 l0 172 -1033 0 -1032 0 0 -172z"/>
</g>
</svg>
