<svg width="1918" height="294" viewBox="0 0 1918 294" fill="none" xmlns="http://www.w3.org/2000/svg">
<g clip-path="url(#clip0_155_774)">
<g opacity="0.6" clip-path="url(#clip1_155_774)">
<g opacity="0.8">
<g opacity="0.1">
<path d="M1780.02 -167.05L1308.9 303.808L1310.54 305.451L1781.66 -165.407L1780.02 -167.05Z" fill="#8FB6C1"/>
</g>
<g opacity="0.1">
<path d="M1918.34 -250.692L1447.22 220.167L1448.87 221.81L1919.99 -249.049L1918.34 -250.692Z" fill="#8FB6C1"/>
</g>
<g opacity="0.1">
<path d="M791.988 -269.315L320.869 201.543L322.513 203.186L793.632 -267.672L791.988 -269.315Z" fill="#8FB6C1"/>
</g>
<g opacity="0.1">
<path d="M930.315 -352.957L459.196 117.902L460.84 119.545L931.959 -351.314L930.315 -352.957Z" fill="#8FB6C1"/>
</g>
<g opacity="0.49">
<g opacity="0.49">
<path opacity="0.49" d="M167.265 261.669L143.552 302.678C148.667 287.459 156.803 273.518 167.265 261.669Z" fill="#8FB6C1"/>
</g>
<g opacity="0.49">
<path opacity="0.49" d="M186.676 244.011L137.973 328.236C138.322 325.215 138.671 322.195 139.252 319.174L179.47 249.587C181.794 247.728 184.119 245.87 186.676 244.011Z" fill="#8FB6C1"/>
</g>
<g opacity="0.49">
<path opacity="0.49" d="M200.973 235.065L137.392 345.197C137.392 343.803 137.276 342.409 137.276 340.899C137.276 340.085 137.276 339.272 137.276 338.459L195.162 238.318C197.138 237.156 198.997 235.995 200.973 235.065Z" fill="#8FB6C1"/>
</g>
<g opacity="0.49">
<path opacity="0.49" d="M213.527 229.257L138.671 358.905C138.438 357.047 138.206 355.188 137.973 353.329L208.413 231.464C210.04 230.651 211.784 229.954 213.527 229.257Z" fill="#8FB6C1"/>
</g>
<g opacity="0.49">
<path opacity="0.49" d="M224.918 225.423L140.995 370.639C140.53 369.012 140.181 367.386 139.833 365.76L220.152 226.817C221.78 226.352 223.291 225.888 224.918 225.423Z" fill="#8FB6C1"/>
</g>
<g opacity="0.49">
<path opacity="0.49" d="M235.496 222.983L144.134 381.094C143.669 379.7 143.087 378.19 142.739 376.796L231.079 223.913C232.474 223.564 233.985 223.216 235.496 222.983Z" fill="#8FB6C1"/>
</g>
<g opacity="0.49">
<path opacity="0.49" d="M245.492 221.589L147.969 390.388C147.388 389.11 146.807 387.832 146.342 386.554L241.308 222.054C242.702 221.938 244.097 221.706 245.492 221.589Z" fill="#8FB6C1"/>
</g>
<g opacity="0.49">
<path opacity="0.49" d="M255.024 221.009L152.27 398.985C151.573 397.823 150.992 396.661 150.41 395.5L251.072 221.241C252.35 221.125 253.629 221.125 255.024 221.009Z" fill="#8FB6C1"/>
</g>
<g opacity="0.49">
<path opacity="0.49" d="M264.09 221.241L156.92 406.652C156.222 405.607 155.525 404.561 154.827 403.399L260.254 221.009C261.533 221.125 262.811 221.125 264.09 221.241Z" fill="#8FB6C1"/>
</g>
<g opacity="0.49">
<path opacity="0.49" d="M272.808 222.054L162.034 413.855C161.22 412.926 160.523 411.88 159.825 410.834L269.088 221.589C270.367 221.706 271.645 221.822 272.808 222.054Z" fill="#8FB6C1"/>
</g>
<g opacity="0.49">
<path opacity="0.49" d="M281.177 223.448L167.381 420.361C166.567 419.431 165.754 418.502 165.056 417.689L277.69 222.751C278.852 222.983 280.014 223.216 281.177 223.448Z" fill="#8FB6C1"/>
</g>
<g opacity="0.49">
<path opacity="0.49" d="M289.314 225.307L173.193 426.402C172.379 425.588 171.566 424.775 170.752 423.962L285.943 224.494C286.989 224.726 288.151 225.074 289.314 225.307Z" fill="#8FB6C1"/>
</g>
<g opacity="0.49">
<path opacity="0.49" d="M296.985 227.746L179.121 431.862C178.191 431.165 177.377 430.351 176.564 429.538L293.73 226.701C294.893 227.049 295.939 227.398 296.985 227.746Z" fill="#8FB6C1"/>
</g>
<g opacity="0.49">
<path opacity="0.49" d="M304.541 230.651L185.398 436.973C184.468 436.276 183.538 435.579 182.724 434.882L301.402 229.373C302.448 229.838 303.494 230.302 304.541 230.651Z" fill="#8FB6C1"/>
</g>
<g opacity="0.49">
<path opacity="0.49" d="M311.747 234.136L191.907 441.504C190.977 440.923 190.047 440.226 189.117 439.645L308.725 232.626C309.771 233.09 310.701 233.555 311.747 234.136Z" fill="#8FB6C1"/>
</g>
<g opacity="0.49">
<path opacity="0.49" d="M318.721 237.97L198.765 445.57C197.719 444.989 196.789 444.408 195.859 443.828L315.815 236.111C316.745 236.808 317.791 237.389 318.721 237.97Z" fill="#8FB6C1"/>
</g>
<g opacity="0.49">
<path opacity="0.49" d="M325.463 242.268L205.855 449.288C204.809 448.823 203.763 448.358 202.833 447.777L322.673 240.409C323.487 240.99 324.533 241.571 325.463 242.268Z" fill="#8FB6C1"/>
</g>
<g opacity="0.49">
<path opacity="0.49" d="M331.856 247.031L213.178 452.424C212.132 451.96 211.086 451.611 210.04 451.146L329.183 244.94C330.113 245.637 330.926 246.334 331.856 247.031Z" fill="#8FB6C1"/>
</g>
<g opacity="0.49">
<path opacity="0.49" d="M338.017 252.259L220.734 455.212C219.687 454.864 218.525 454.515 217.479 454.051L335.459 249.935C336.273 250.749 337.087 251.446 338.017 252.259Z" fill="#8FB6C1"/>
</g>
<g opacity="0.49">
<path opacity="0.49" d="M343.828 257.951L228.638 457.419C227.475 457.187 226.313 456.839 225.267 456.49L341.387 255.512C342.201 256.325 343.131 257.138 343.828 257.951Z" fill="#8FB6C1"/>
</g>
<g opacity="0.49">
<path opacity="0.49" d="M349.408 264.225L236.891 459.162C235.728 458.93 234.566 458.698 233.404 458.465L347.083 261.553C347.897 262.366 348.711 263.295 349.408 264.225Z" fill="#8FB6C1"/>
</g>
<g opacity="0.49">
<path opacity="0.49" d="M354.755 270.963L245.492 460.208C244.213 460.092 243.051 459.975 241.772 459.859L352.546 268.058C353.244 268.988 354.057 270.033 354.755 270.963Z" fill="#8FB6C1"/>
</g>
<g opacity="0.49">
<path opacity="0.49" d="M359.637 278.398L254.21 460.789C252.931 460.789 251.653 460.672 250.374 460.672L357.544 275.261C358.242 276.19 358.939 277.352 359.637 278.398Z" fill="#8FB6C1"/>
</g>
<g opacity="0.49">
<path opacity="0.49" d="M364.17 286.414L263.509 460.672C262.23 460.789 260.835 460.789 259.557 460.789L362.31 282.928C362.891 284.09 363.589 285.252 364.17 286.414Z" fill="#8FB6C1"/>
</g>
<g opacity="0.49">
<path opacity="0.49" d="M368.238 295.359L273.273 459.859C271.878 460.092 270.483 460.208 269.088 460.324L366.611 291.525C367.192 292.687 367.657 293.965 368.238 295.359Z" fill="#8FB6C1"/>
</g>
</g>
<path opacity="0.2" d="M1323.91 221.082L1291.25 188.437L1323.91 155.793L1356.57 188.437L1323.91 221.082ZM1294.5 188.437L1323.91 217.829L1353.32 188.437L1323.91 159.046L1294.5 188.437Z" fill="#8FB6C1"/>
<path opacity="0.1" d="M1021.02 207.765C1036.14 204.047 1050.66 198.82 1064.26 191.965C1133.54 157.694 1181.08 86.3645 1181.08 3.99819C1181.08 2.60412 1181.08 1.0939 1181.08 -0.300171H1084.84C1084.84 1.0939 1084.95 2.60412 1084.95 3.99819C1084.95 66.7314 1034.04 117.615 971.275 117.615C908.507 117.615 857.595 66.7314 857.595 3.99819C857.595 2.60412 857.595 1.0939 857.712 -0.300171H761.468C761.468 1.0939 761.468 2.60412 761.468 3.99819C761.468 103.558 830.861 186.854 923.967 208.346C938.729 211.715 954.072 213.573 969.764 213.69C970.229 213.69 970.81 213.69 971.275 213.69C988.362 213.69 1004.98 211.599 1021.02 207.765Z" fill="#8FB6C1"/>
<path opacity="0.1" d="M1040.67 -0.416382H901.649C901.649 37.9206 932.801 69.0548 971.159 69.0548C1009.63 69.0548 1040.67 38.0367 1040.67 -0.416382Z" fill="#8FB6C1"/>
<path opacity="0.2" d="M971.159 233.323C972.437 233.323 973.483 234.368 973.483 235.646C973.483 236.924 972.437 237.97 971.159 237.97C969.88 237.97 968.834 236.924 968.834 235.646C968.95 234.368 969.996 233.323 971.159 233.323ZM971.159 209.972C972.437 209.972 973.483 211.018 973.483 212.296C973.483 213.573 972.437 214.619 971.159 214.619C969.88 214.619 968.834 213.573 968.834 212.296C968.95 211.018 969.996 209.972 971.159 209.972ZM971.159 186.621C972.437 186.621 973.483 187.667 973.483 188.945C973.483 190.223 972.437 191.268 971.159 191.268C969.88 191.268 968.834 190.223 968.834 188.945C968.95 187.667 969.996 186.621 971.159 186.621ZM971.159 163.271C972.437 163.271 973.483 164.316 973.483 165.594C973.483 166.872 972.437 167.918 971.159 167.918C969.88 167.918 968.834 166.872 968.834 165.594C968.95 164.316 969.996 163.271 971.159 163.271ZM971.159 139.92C972.437 139.92 973.483 140.966 973.483 142.244C973.483 143.521 972.437 144.567 971.159 144.567C969.88 144.567 968.834 143.521 968.834 142.244C968.95 140.849 969.996 139.92 971.159 139.92ZM971.159 116.453C972.437 116.453 973.483 117.499 973.483 118.777C973.483 120.055 972.437 121.1 971.159 121.1C969.88 121.1 968.834 120.055 968.834 118.777C968.95 117.499 969.996 116.453 971.159 116.453ZM971.159 93.1025C972.437 93.1025 973.483 94.1481 973.483 95.426C973.483 96.7039 972.437 97.7494 971.159 97.7494C969.88 97.7494 968.834 96.7039 968.834 95.426C968.95 94.1481 969.996 93.1025 971.159 93.1025ZM971.159 69.7518C972.437 69.7518 973.483 70.7974 973.483 72.0753C973.483 73.3532 972.437 74.3987 971.159 74.3987C969.88 74.3987 968.834 73.3532 968.834 72.0753C968.95 70.7974 969.996 69.7518 971.159 69.7518ZM971.159 46.4011C972.437 46.4011 973.483 47.4467 973.483 48.7246C973.483 50.0025 972.437 51.048 971.159 51.048C969.88 51.048 968.834 50.0025 968.834 48.7246C968.95 47.4467 969.996 46.4011 971.159 46.4011ZM971.159 23.0505C972.437 23.0505 973.483 24.096 973.483 25.3739C973.483 26.6518 972.437 27.6974 971.159 27.6974C969.88 27.6974 968.834 26.6518 968.834 25.3739C968.95 23.9799 969.996 23.0505 971.159 23.0505ZM971.159 -0.416382C972.437 -0.416382 973.483 0.629171 973.483 1.90707C973.483 3.18497 972.437 4.23052 971.159 4.23052C969.88 4.23052 968.834 3.18497 968.834 1.90707C968.95 0.629171 969.996 -0.416382 971.159 -0.416382Z" fill="#8FB6C1"/>
<path opacity="0.1" d="M1624.99 226.12C1539.32 226.12 1469.81 295.591 1469.81 381.21C1469.81 466.83 1539.32 536.301 1624.99 536.301C1710.66 536.301 1780.17 466.83 1780.17 381.21C1780.17 295.591 1710.77 226.12 1624.99 226.12ZM1624.99 499.939C1559.43 499.939 1506.31 446.848 1506.31 381.327C1506.31 315.805 1559.43 262.714 1624.99 262.714C1690.55 262.714 1743.67 315.805 1743.67 381.327C1743.67 446.848 1690.66 499.939 1624.99 499.939Z" fill="#8FB6C1"/>
<path opacity="0.1" d="M1624.99 279.211C1568.62 279.211 1522.93 324.867 1522.93 381.21C1522.93 437.554 1568.62 483.21 1624.99 483.21C1681.37 483.21 1727.05 437.554 1727.05 381.21C1727.16 324.983 1681.37 279.211 1624.99 279.211ZM1624.99 459.278C1581.87 459.278 1546.88 424.31 1546.88 381.21C1546.88 338.11 1581.87 303.142 1624.99 303.142C1668.11 303.142 1703.1 338.11 1703.1 381.21C1703.1 424.31 1668.11 459.278 1624.99 459.278Z" fill="#8FB6C1"/>
</g>
</g>
</g>
<defs>
<clipPath id="clip0_155_774">
<rect width="1918" height="294" fill="white"/>
</clipPath>
<clipPath id="clip1_155_774">
<rect width="1920" height="1395" fill="white" transform="translate(0 -353)"/>
</clipPath>
</defs>
</svg>
