<svg width="329" height="201" viewBox="0 0 329 201" fill="none" xmlns="http://www.w3.org/2000/svg">
<path fill-rule="evenodd" clip-rule="evenodd" d="M0.387451 135.155H104.469V152.651H0.387451V135.155ZM193.304 117.498L173.913 98.7178V18.7805L193.304 0H227.28L246.671 18.7805V35.1532H222.307V23.4354H198.11V93.9023H222.307V82.1846H246.671V98.5573L227.28 117.338H193.304V117.498ZM279.652 99.8414H303.849V47.0314H279.652V99.8414ZM274.846 117.498L255.455 103.373V43.5L274.846 29.3746H308.821L328.213 43.5V103.373L308.821 117.498H274.846ZM56.2404 117.498V99.8414H68.3391V47.0314H56.2404V29.3746H92.5365L128.833 79.7768V47.0314H116.734V29.3746H165.129V47.0314H153.03V117.498H128.833L92.5365 67.096V99.6809H104.635V117.338H56.2404V117.498ZM0.884658 117.498V93.9023H12.9834V23.596H0.884658V0H47.6221V23.596H37.1808V94.0628H47.6221V117.659H0.884658V117.498Z" fill="white"/>
<path fill-rule="evenodd" clip-rule="evenodd" d="M321.223 197.615H319.892V185.345H328.213V186.475H321.223V197.615ZM314.567 197.615H305.747V185.345H314.401V186.475H307.079V190.35H313.069V191.48H307.079V196.324H314.567V197.615ZM290.771 197.615H289.439V185.345H290.771V190.35H298.259V185.345H299.59V197.454H298.259V191.48H290.771V197.615ZM284.114 197.615H275.295V185.345H283.948V186.475H276.626V190.35H282.617V191.48H276.626V196.324H284.114V197.615ZM259.819 196.324H266.974V186.475H261.815V187.282C261.815 191.48 261.15 194.548 259.819 196.324ZM258.487 200.198H257.322V196.324H258.487C259.319 195.193 259.819 194.063 260.151 192.61C260.484 191.157 260.651 189.22 260.651 186.798V185.345H268.305V196.324H270.136V200.198H268.971V197.454H258.487V200.198ZM248.669 197.615H239.85V185.345H248.503V186.475H241.181V190.35H247.172V191.48H241.181V196.324H248.669V197.615ZM223.209 197.615H221.877V185.345H223.209L227.702 191.157L232.195 185.345H233.526V197.454H232.195V187.282L228.035 192.61H227.202L223.042 187.282V197.615H223.209ZM206.235 195.032C207.233 196.001 208.398 196.485 209.73 196.485C211.061 196.485 212.392 196.001 213.224 195.032C214.223 194.063 214.722 192.772 214.722 191.48C214.722 190.027 214.223 188.897 213.224 187.928C212.226 186.96 211.061 186.475 209.73 186.475C208.398 186.475 207.067 186.96 206.235 187.928C205.237 188.897 204.737 190.189 204.737 191.48C204.737 192.933 205.237 194.063 206.235 195.032ZM205.237 186.96C206.401 185.829 207.899 185.184 209.73 185.184C211.56 185.184 213.058 185.829 214.223 186.96C215.387 188.09 216.053 189.704 216.053 191.48C216.053 193.256 215.387 194.709 214.223 196.001C213.058 197.131 211.56 197.777 209.73 197.777C207.899 197.777 206.401 197.131 205.237 196.001C204.072 194.871 203.406 193.256 203.406 191.48C203.406 189.704 204.072 188.251 205.237 186.96ZM190.759 186.637V191.157H194.586C195.418 191.157 196.084 190.996 196.583 190.511C197.083 190.189 197.249 189.543 197.249 188.897C197.249 188.251 197.083 187.605 196.583 187.282C196.084 186.96 195.418 186.637 194.586 186.637H190.759ZM190.759 197.615H189.428V185.345H194.753C195.918 185.345 196.916 185.668 197.748 186.314C198.414 186.96 198.747 187.767 198.747 188.736C198.747 189.704 198.414 190.673 197.748 191.157C197.082 191.803 196.084 192.126 194.753 192.126H190.759V197.615ZM174.784 185.345H176.115V190.673L181.939 185.345H183.77L177.613 190.834L184.768 197.454H182.938L176.281 191.319V197.454H174.95V185.345H174.784ZM164.799 197.615H155.98V185.345H164.633V186.475H157.311V190.35H163.302V191.48H157.311V196.324H164.799V197.615ZM146.661 197.777C144.83 197.777 143.333 197.131 142.001 196.001C140.836 194.871 140.171 193.256 140.171 191.48C140.171 189.704 140.836 188.09 142.001 186.96C143.166 185.829 144.83 185.184 146.661 185.184C147.992 185.184 149.157 185.507 150.155 186.152V187.444C148.99 186.798 147.826 186.475 146.661 186.475C145.163 186.475 143.998 186.96 143 187.928C142.001 188.897 141.502 190.027 141.502 191.48C141.502 192.933 142.001 194.225 143 195.194C143.998 196.162 145.163 196.647 146.661 196.647C148.158 196.647 149.323 196.162 150.322 195.355V196.647C149.49 197.454 148.158 197.777 146.661 197.777ZM126.692 186.637V190.673H130.519C131.351 190.673 131.85 190.511 132.35 190.189C132.849 189.866 133.015 189.381 133.015 188.736C133.015 188.09 132.849 187.605 132.35 187.282C131.85 186.96 131.351 186.798 130.519 186.798H126.692V186.637ZM126.692 191.642V196.324H131.185C132.183 196.324 132.849 196.162 133.348 195.678C133.847 195.194 134.18 194.709 134.18 193.902C134.18 193.095 133.847 192.61 133.348 192.126C132.849 191.642 132.183 191.48 131.185 191.48H126.692V191.642ZM131.351 197.615H125.36V185.345H130.852C132.017 185.345 132.849 185.668 133.514 186.152C134.18 186.637 134.513 187.444 134.513 188.251C134.513 188.897 134.346 189.381 134.014 189.866C133.681 190.35 133.348 190.673 132.849 190.834C133.681 190.996 134.346 191.319 134.846 191.965C135.345 192.61 135.511 193.256 135.511 194.225C135.511 195.194 135.178 196.001 134.346 196.647C133.681 197.292 132.682 197.615 131.351 197.615ZM104.06 197.615H102.729V185.345H104.06L108.553 191.157L113.046 185.345H114.377V197.454H113.046V187.282L108.886 192.61H108.054L103.894 187.282V197.615H104.06ZM97.4037 197.615H88.584V185.345H97.2373V186.475H89.9153V190.35H95.906V191.48H89.9153V196.324H97.4037V197.615ZM77.2683 186.96L74.4393 193.095H80.0972L77.2683 186.96ZM72.4424 197.615H71.1111L76.769 185.345H77.9339L83.5918 197.615H82.2605L80.7628 194.225H74.2729L72.4424 197.615ZM64.6212 197.615H63.2899V186.637H58.9633V185.345H68.9478V186.475H64.6212V197.615ZM50.6429 186.96L47.8139 193.095H53.4718L50.6429 186.96ZM45.817 197.615H44.4857L50.1436 185.345H51.3085L56.9664 197.615H55.6351L54.1375 194.225H47.6475L45.817 197.615ZM39.4935 197.615H38.1622V192.126C36.9974 192.61 35.8325 192.772 34.5012 192.772C33.0035 192.772 32.0051 192.449 31.1731 191.803C30.5074 191.157 30.0082 190.189 30.0082 188.897V185.345H31.3395V188.574C31.3395 189.704 31.6723 190.35 32.1715 190.834C32.6707 191.319 33.5028 191.48 34.6676 191.48C35.8325 191.48 36.831 191.319 37.9958 190.834V185.345H39.3271V197.615H39.4935ZM25.3488 197.615H16.5291V185.345H25.1823V186.475H17.8604V190.35H23.6847V191.48H17.694V196.324H25.3488V197.615ZM1.71872 197.615H0.387451V185.345H10.2056V197.454H8.87429V186.475H1.71872V197.615Z" fill="white"/>
</svg>
