<svg width="123" height="58" viewBox="0 0 123 58" fill="none" xmlns="http://www.w3.org/2000/svg">
<path fill-rule="evenodd" clip-rule="evenodd" d="M0 50.6329H38.992V57.1875H0V50.6329ZM72.2719 44.0181L65.0074 36.9825V7.03569L72.2719 0H85.0001L92.2646 7.03569V13.1694H83.1375V8.77957H74.0724V35.1784H83.1375V30.7886H92.2646V36.9223L85.0001 43.958H72.2719V44.0181ZM104.62 37.4034H113.685V17.6193H104.62V37.4034ZM102.82 44.0181L95.5553 38.7263V16.2963L102.82 11.0045H115.548L122.812 16.2963V38.7263L115.548 44.0181H102.82ZM20.9241 44.0181V37.4034H25.4566V17.6193H20.9241V11.0045H34.5216L48.1191 29.8866V17.6193H43.5866V11.0045H61.7167V17.6193H57.1842V44.0181H48.1191L34.5216 25.136V37.3433H39.0541V43.958H20.9241V44.0181ZM0.186268 44.0181V35.1784H4.71878V8.83971H0.186268V0H17.6954V8.83971H13.7838V35.2386H17.6954V44.0783H0.186268V44.0181Z" fill="#005F79"/>
</svg>
