<svg width="1920" height="1753" viewBox="0 0 1920 1753" fill="none" xmlns="http://www.w3.org/2000/svg">
<g opacity="0.6" clip-path="url(#clip0_1132_3640)">
<path d="M514.377 1206.43L485.053 1235.75L486.912 1237.61L516.236 1208.29L514.377 1206.43Z" fill="#8FB6C1"/>
<path d="M543.707 1206.47L514.383 1235.78L516.242 1237.64L545.565 1208.32L543.707 1206.47Z" fill="#8FB6C1"/>
<path d="M573.054 1206.38L543.73 1235.7L545.589 1237.55L574.912 1208.24L573.054 1206.38Z" fill="#8FB6C1"/>
<path d="M602.393 1206.35L573.069 1235.66L574.927 1237.52L604.251 1208.2L602.393 1206.35Z" fill="#8FB6C1"/>
<path d="M631.735 1206.5L602.407 1235.81L604.266 1237.67L633.593 1208.35L631.735 1206.5Z" fill="#8FB6C1"/>
<path d="M1022.51 1031.25L993.19 1060.56L995.049 1062.42L1024.37 1033.11L1022.51 1031.25Z" fill="#8FB6C1"/>
<path d="M1051.86 1031.29L1022.54 1060.6L1024.4 1062.46L1053.72 1033.15L1051.86 1031.29Z" fill="#8FB6C1"/>
<path d="M1081.19 1031.19L1051.87 1060.51L1053.73 1062.37L1083.05 1033.05L1081.19 1031.19Z" fill="#8FB6C1"/>
<path d="M1110.53 1031.15L1081.2 1060.47L1083.06 1062.33L1112.39 1033.01L1110.53 1031.15Z" fill="#8FB6C1"/>
<path d="M1139.91 1031.29L1110.58 1060.6L1112.44 1062.46L1141.77 1033.15L1139.91 1031.29Z" fill="#8FB6C1"/>
<g opacity="0.1">
<path d="M1850.14 233.67L1258.3 825.365L1260.37 827.43L1852.21 235.734L1850.14 233.67Z" fill="#8FB6C1"/>
</g>
<g opacity="0.1">
<path d="M2023.92 128.563L1432.07 720.259L1434.14 722.323L2025.98 130.628L2023.92 128.563Z" fill="#8FB6C1"/>
</g>
<g opacity="0.1">
<path d="M1190.08 1159.22L598.239 1750.91L600.304 1752.98L1192.15 1161.28L1190.08 1159.22Z" fill="#8FB6C1"/>
</g>
<g opacity="0.1">
<path d="M1363.86 1054.11L772.012 1645.81L774.077 1647.87L1365.92 1056.18L1363.86 1054.11Z" fill="#8FB6C1"/>
</g>
<g opacity="0.1">
<path d="M608.935 105.161L17.0918 696.856L19.1568 698.92L611 107.225L608.935 105.161Z" fill="#8FB6C1"/>
</g>
<g opacity="0.1">
<path d="M782.708 0.0540986L190.865 591.75L192.93 593.814L784.774 2.11863L782.708 0.0540986Z" fill="#8FB6C1"/>
</g>
<g opacity="0.1">
<path d="M205.875 1064.29L-385.968 1655.99L-383.903 1658.05L207.94 1066.36L205.875 1064.29Z" fill="#8FB6C1"/>
</g>
<g opacity="0.1">
<path d="M379.648 959.187L-212.195 1550.88L-210.13 1552.95L381.713 961.252L379.648 959.187Z" fill="#8FB6C1"/>
</g>
<g opacity="0.49">
<g opacity="0.49">
<path opacity="0.49" d="M5.63239 737.813L-144.917 998.398C-146.085 997.669 -147.253 996.793 -148.421 996.063L1.83578 735.916C3.14999 736.499 4.31818 737.083 5.63239 737.813Z" fill="#8FB6C1"/>
</g>
<g opacity="0.49">
<path opacity="0.49" d="M14.3934 742.631L-136.302 1003.51C-137.616 1002.78 -138.784 1002.05 -139.952 1001.32L10.7428 740.295C11.911 741.171 13.2252 741.901 14.3934 742.631Z" fill="#8FB6C1"/>
</g>
<g opacity="0.49">
<path opacity="0.49" d="M22.8629 748.032L-127.394 1008.18C-128.709 1007.6 -130.023 1007.01 -131.191 1006.28L19.3583 745.696C20.3805 746.426 21.6947 747.156 22.8629 748.032Z" fill="#8FB6C1"/>
</g>
<g opacity="0.49">
<path opacity="0.49" d="M30.8942 754.018L-118.195 1012.12C-119.509 1011.54 -120.823 1011.1 -122.137 1010.52L27.5357 751.39C28.7039 752.266 29.726 753.142 30.8942 754.018Z" fill="#8FB6C1"/>
</g>
<g opacity="0.49">
<path opacity="0.49" d="M38.6333 760.587L-108.703 1015.62C-110.018 1015.19 -111.478 1014.75 -112.792 1014.16L35.4209 757.667C36.443 758.689 37.4652 759.565 38.6333 760.587Z" fill="#8FB6C1"/>
</g>
<g opacity="0.49">
<path opacity="0.49" d="M45.9344 767.741L-98.7739 1018.4C-100.234 1018.11 -101.694 1017.67 -103.009 1017.23L42.868 764.675C43.8901 765.697 45.0582 766.719 45.9344 767.741Z" fill="#8FB6C1"/>
</g>
<g opacity="0.49">
<path opacity="0.49" d="M52.9434 775.624L-88.4064 1020.59C-89.8667 1020.3 -91.3269 1020 -92.7871 1019.71L50.0229 772.266C51.0451 773.288 52.0672 774.456 52.9434 775.624Z" fill="#8FB6C1"/>
</g>
<g opacity="0.49">
<path opacity="0.49" d="M59.6605 784.091L-77.6007 1021.9C-79.207 1021.76 -80.6672 1021.61 -82.2734 1021.46L56.886 780.441C57.7622 781.609 58.7844 782.923 59.6605 784.091Z" fill="#8FB6C1"/>
</g>
<g opacity="0.49">
<path opacity="0.49" d="M65.7934 793.434L-66.649 1022.63C-68.2553 1022.63 -69.8615 1022.49 -71.4678 1022.49L63.165 789.492C64.0411 790.66 64.9173 792.12 65.7934 793.434Z" fill="#8FB6C1"/>
</g>
<g opacity="0.49">
<path opacity="0.49" d="M71.4884 803.507L-54.9671 1022.49C-56.5734 1022.63 -58.3256 1022.63 -59.9319 1022.63L69.1521 799.127C69.8822 800.587 70.7583 802.047 71.4884 803.507Z" fill="#8FB6C1"/>
</g>
<g opacity="0.49">
<path opacity="0.49" d="M76.5992 814.748L-42.7012 1021.46C-44.4535 1021.76 -46.2057 1021.9 -47.958 1022.05L74.5549 809.93C75.285 811.39 75.8691 812.996 76.5992 814.748Z" fill="#8FB6C1"/>
</g>
<g opacity="0.49">
<path opacity="0.49" d="M80.9798 827.011L-29.9973 1019.13C-31.8956 1019.57 -33.6479 1020 -35.5461 1020.3L79.2275 821.609C79.9577 823.361 80.5417 825.113 80.9798 827.011Z" fill="#8FB6C1"/>
</g>
<g opacity="0.49">
<path opacity="0.49" d="M84.6304 840.733L-16.2711 1015.33C-18.1694 1015.92 -20.2137 1016.65 -22.2581 1017.08L83.1701 834.602C83.7542 836.646 84.1923 838.69 84.6304 840.733Z" fill="#8FB6C1"/>
</g>
<g opacity="0.49">
<path opacity="0.49" d="M87.1126 856.354L-1.37702 1009.64C-3.56736 1010.66 -5.61166 1011.54 -7.802 1012.41L86.2365 849.493C86.5285 851.682 86.8206 854.018 87.1126 856.354Z" fill="#8FB6C1"/>
</g>
<g opacity="0.49">
<path opacity="0.49" d="M87.8428 871.974C87.8428 872.996 87.8428 874.018 87.8428 875.04L15.1236 1001.03C12.7873 1002.49 10.3049 1003.8 7.82251 1005.11L87.8428 866.719C87.8428 868.471 87.8428 870.222 87.8428 871.974Z" fill="#8FB6C1"/>
</g>
<g opacity="0.49">
<path opacity="0.49" d="M87.1129 887.887C86.6748 891.682 86.2367 895.478 85.5066 899.274L34.9828 986.719C32.0624 989.201 28.9959 991.537 25.9294 993.872L87.1129 887.887Z" fill="#8FB6C1"/>
</g>
<g opacity="0.49">
<path opacity="0.49" d="M80.1035 920.004C73.6786 939.274 63.457 956.792 50.3149 971.683L80.1035 920.004Z" fill="#8FB6C1"/>
</g>
</g>
<path d="M1460.75 1252.27L1371.53 1163.07L1460.75 1073.87L1549.97 1163.07L1460.75 1252.27ZM1375.62 1163.07L1460.75 1248.18L1545.88 1163.07L1460.75 1077.96L1375.62 1163.07Z" fill="#8FB6C1"/>
<path d="M415.956 791.682L323.815 699.565L415.956 607.448L508.096 699.565L415.956 791.682ZM327.904 699.565L415.956 787.594L504.007 699.565L415.956 611.535L327.904 699.565Z" fill="#8FB6C1"/>
<path d="M341.484 1191.68L300.452 1150.66L341.484 1109.64L382.516 1150.66L341.484 1191.68ZM304.54 1150.66L341.484 1187.6L378.428 1150.66L341.484 1113.73L304.54 1150.66Z" fill="#8FB6C1"/>
<path d="M1365.1 620.879L1324.07 579.857L1365.1 538.834L1406.13 579.857L1365.1 620.879ZM1328.16 579.857L1365.1 616.791L1402.05 579.857L1365.1 542.922L1328.16 579.857Z" fill="#8FB6C1"/>
<path d="M1535.51 942.486L1506.89 913.872L1535.51 885.259L1564.13 913.872L1535.51 942.486ZM1510.98 913.727L1535.51 938.252L1560.04 913.727L1535.51 889.201L1510.98 913.727Z" fill="#8FB6C1"/>
<path d="M571.762 984.822L543.141 956.208L571.762 927.595L600.382 956.208L571.762 984.822ZM547.23 956.062L571.762 980.588L596.293 956.062L571.762 931.537L547.23 956.062Z" fill="#8FB6C1"/>
<path opacity="0.1" d="M896.662 704.674C915.644 700.003 933.897 693.433 950.982 684.82C1038.01 641.754 1097.73 552.119 1097.73 448.615C1097.73 446.863 1097.73 444.965 1097.73 443.213H976.828C976.828 444.965 976.974 446.863 976.974 448.615C976.974 527.447 913.016 591.389 834.164 591.389C755.312 591.389 691.354 527.447 691.354 448.615C691.354 446.863 691.354 444.965 691.5 443.213H570.593C570.593 444.965 570.593 446.863 570.593 448.615C570.593 573.725 657.769 678.397 774.733 705.404C793.278 709.638 812.553 711.974 832.266 712.12C832.85 712.12 833.58 712.12 834.164 712.12C855.629 712.12 876.51 709.492 896.662 704.674Z" fill="#8FB6C1"/>
<path opacity="0.1" d="M921.339 443.067H746.697C746.697 491.243 785.831 530.367 834.018 530.367C882.351 530.367 921.339 491.389 921.339 443.067Z" fill="#8FB6C1"/>
<path opacity="0.2" d="M834.018 736.791C835.624 736.791 836.939 738.105 836.939 739.711C836.939 741.317 835.624 742.631 834.018 742.631C832.412 742.631 831.098 741.317 831.098 739.711C831.244 738.105 832.558 736.791 834.018 736.791ZM834.018 707.448C835.624 707.448 836.939 708.762 836.939 710.368C836.939 711.974 835.624 713.287 834.018 713.287C832.412 713.287 831.098 711.974 831.098 710.368C831.244 708.762 832.558 707.448 834.018 707.448ZM834.018 678.105C835.624 678.105 836.939 679.419 836.939 681.025C836.939 682.63 835.624 683.944 834.018 683.944C832.412 683.944 831.098 682.63 831.098 681.025C831.244 679.419 832.558 678.105 834.018 678.105ZM834.018 648.762C835.624 648.762 836.939 650.076 836.939 651.681C836.939 653.287 835.624 654.601 834.018 654.601C832.412 654.601 831.098 653.287 831.098 651.681C831.244 650.076 832.558 648.762 834.018 648.762ZM834.018 619.418C835.624 619.418 836.939 620.732 836.939 622.338C836.939 623.944 835.624 625.258 834.018 625.258C832.412 625.258 831.098 623.944 831.098 622.338C831.244 620.586 832.558 619.418 834.018 619.418ZM834.018 589.929C835.624 589.929 836.939 591.243 836.939 592.849C836.939 594.455 835.624 595.769 834.018 595.769C832.412 595.769 831.098 594.455 831.098 592.849C831.244 591.243 832.558 589.929 834.018 589.929ZM834.018 560.586C835.624 560.586 836.939 561.9 836.939 563.506C836.939 565.112 835.624 566.426 834.018 566.426C832.412 566.426 831.098 565.112 831.098 563.506C831.244 561.9 832.558 560.586 834.018 560.586ZM834.018 531.243C835.624 531.243 836.939 532.557 836.939 534.163C836.939 535.768 835.624 537.082 834.018 537.082C832.412 537.082 831.098 535.768 831.098 534.163C831.244 532.557 832.558 531.243 834.018 531.243ZM834.018 501.9C835.624 501.9 836.939 503.214 836.939 504.819C836.939 506.425 835.624 507.739 834.018 507.739C832.412 507.739 831.098 506.425 831.098 504.819C831.244 503.214 832.558 501.9 834.018 501.9ZM834.018 472.557C835.624 472.557 836.939 473.87 836.939 475.476C836.939 477.082 835.624 478.396 834.018 478.396C832.412 478.396 831.098 477.082 831.098 475.476C831.244 473.724 832.558 472.557 834.018 472.557ZM834.018 443.067C835.624 443.067 836.939 444.381 836.939 445.987C836.939 447.593 835.624 448.907 834.018 448.907C832.412 448.907 831.098 447.593 831.098 445.987C831.244 444.381 832.558 443.067 834.018 443.067Z" fill="#8FB6C1"/>
<path opacity="0.1" d="M1074.23 1086.87C899.582 1086.87 758.086 1228.33 758.086 1402.93C758.086 1577.52 899.582 1718.99 1074.23 1718.99C1248.87 1718.99 1390.36 1577.52 1390.36 1402.93C1390.36 1228.47 1248.87 1086.87 1074.23 1086.87ZM1074.23 1644.82C940.615 1644.82 832.412 1536.5 832.412 1403.07C832.412 1269.64 940.761 1161.32 1074.23 1161.32C1207.84 1161.32 1316.04 1269.64 1316.04 1403.07C1316.04 1536.5 1207.84 1644.82 1074.23 1644.82Z" fill="#8FB6C1"/>
<path opacity="0.1" d="M1074.23 1195.04C959.451 1195.04 866.289 1288.18 866.289 1402.93C866.289 1517.67 959.451 1610.81 1074.23 1610.81C1189 1610.81 1282.16 1517.67 1282.16 1402.93C1282.16 1288.18 1189.14 1195.04 1074.23 1195.04ZM1074.23 1562.05C986.32 1562.05 915.207 1490.81 915.207 1403.07C915.207 1315.33 986.466 1244.09 1074.23 1244.09C1161.98 1244.09 1233.39 1315.19 1233.39 1402.93C1233.39 1490.66 1162.13 1562.05 1074.23 1562.05Z" fill="#8FB6C1"/>
<path opacity="0.1" d="M1655.39 727.74C1547.78 727.74 1460.45 815.04 1460.45 922.632C1460.45 1030.22 1547.78 1117.52 1655.39 1117.52C1763.01 1117.52 1850.33 1030.22 1850.33 922.632C1850.33 815.04 1763.16 727.74 1655.39 727.74ZM1655.39 1071.83C1573.04 1071.83 1506.31 1005.11 1506.31 922.777C1506.31 840.441 1573.04 773.726 1655.39 773.726C1737.75 773.726 1804.48 840.441 1804.48 922.777C1804.48 1005.11 1737.9 1071.83 1655.39 1071.83Z" fill="#8FB6C1"/>
<path opacity="0.1" d="M1655.39 794.456C1584.57 794.456 1527.19 851.829 1527.19 922.632C1527.19 993.435 1584.57 1050.81 1655.39 1050.81C1726.22 1050.81 1783.6 993.435 1783.6 922.632C1783.75 851.975 1726.22 794.456 1655.39 794.456ZM1655.39 1020.73C1601.22 1020.73 1557.27 976.793 1557.27 922.632C1557.27 868.471 1601.22 824.529 1655.39 824.529C1709.57 824.529 1753.52 868.471 1753.52 922.632C1753.52 976.793 1709.57 1020.73 1655.39 1020.73Z" fill="#8FB6C1"/>
<path opacity="0.1" d="M166 842.833V826.466H174.265V777.367H166V761H197.863V777.367H190.676V826.466H197.863V842.833H166ZM203.852 822.434V810.1H212.118V773.334H203.852V761H228.648L253.324 796.105V773.334H245.059V761H278V773.334H269.735V822.434H253.324L228.528 787.329V810.1H236.794V822.434H203.852ZM257.876 908.299L271.052 895.253V839.631L257.876 826.585H234.757L221.581 839.631V851.135H238.111V842.951H254.522V892.051H238.111V883.868H221.581V895.372L234.757 908.418H257.876V908.299ZM202.415 908.299L215.591 898.456V856.709L202.415 846.865H179.296L166.12 856.709V898.456L179.296 908.299H202.415ZM199.061 895.965H182.65V859.199H199.061V895.965ZM186.843 924.666H257.397V937H186.843V924.666Z" fill="#034F64"/>
<path opacity="0.1" d="M1025 1403.83V1387.47H1033.27V1338.37H1025V1322H1056.86V1338.37H1049.68V1387.47H1056.86V1403.83H1025ZM1062.85 1383.43V1371.1H1071.12V1334.33H1062.85V1322H1087.65L1112.32 1357.11V1334.33H1104.06V1322H1137V1334.33H1128.73V1383.43H1112.32L1087.53 1348.33V1371.1H1095.79V1383.43H1062.85ZM1116.88 1469.3L1130.05 1456.25V1400.63L1116.88 1387.58H1093.76L1080.58 1400.63V1412.13H1097.11V1403.95H1113.52V1453.05H1097.11V1444.87H1080.58V1456.37L1093.76 1469.42H1116.88V1469.3ZM1061.41 1469.3L1074.59 1459.46V1417.71L1061.41 1407.87H1038.3L1025.12 1417.71V1459.46L1038.3 1469.3H1061.41ZM1058.06 1456.96H1041.65V1420.2H1058.06V1456.96ZM1045.84 1485.67H1116.4V1498H1045.84V1485.67Z" fill="#034F64"/>
<path opacity="0.1" d="M1799 1498.48V1466.58H1815.09V1370.9H1799V1339H1861.02V1370.9H1847.03V1466.58H1861.02V1498.48H1799ZM1872.68 1458.73V1434.69H1888.76V1363.04H1872.68V1339H1920.94L1968.97 1407.42V1363.04H1952.88V1339H2017V1363.04H2000.91V1458.73H1968.97L1920.71 1390.31V1434.69H1936.79V1458.73H1872.68ZM1977.83 1626.07L2003.48 1600.64V1492.24L1977.83 1466.82H1932.83L1907.18 1492.24V1514.66H1939.36V1498.71H1971.3V1594.4H1939.36V1578.45H1907.18V1600.87L1932.83 1626.3H1977.83V1626.07ZM1869.88 1626.07L1895.53 1606.88V1525.52L1869.88 1506.34H1824.88L1799.23 1525.52V1606.88L1824.88 1626.07H1869.88ZM1863.35 1602.03H1831.41V1530.38H1863.35V1602.03ZM1839.57 1657.96H1976.9V1682H1839.57V1657.96Z" fill="#034F64"/>
</g>
<defs>
<clipPath id="clip0_1132_3640">
<rect width="2412" height="1753" fill="white" transform="translate(-386)"/>
</clipPath>
</defs>
</svg>
