<?xml version="1.0" encoding="utf-8"?><svg viewBox="0 0 88 88" xmlns="http://www.w3.org/2000/svg" xmlns:xlink="http://www.w3.org/1999/xlink"><style>:root>svg{display:none}:root>svg:target{display:block}</style><svg fill="none" viewBox="0 0 24 24" id="arrow-back" xmlns="http://www.w3.org/2000/svg"><g clip-path="url(#aaa)"><path d="M20 11H7.83l5.59-5.59L12 4l-8 8 8 8 1.41-1.41L7.83 13H20v-2Z" fill="#005F79"/></g><defs><clipPath id="aaa"><path fill="#fff" d="M0 0h24v24H0z"/></clipPath></defs></svg><svg fill="none" viewBox="0 0 64 51" id="canvas" xmlns="http://www.w3.org/2000/svg"><path fill-rule="evenodd" clip-rule="evenodd" d="M8.443 44.42c.265 0 .501-.09.708-.266l17.766-15.616 11.215 11.196a1.106 1.106 0 0 0 1.534 0 1.102 1.102 0 0 0 0-1.532l-5.223-5.215 10.004-10.93 12.248 11.225a1.08 1.08 0 0 0 1.535-.06 1.076 1.076 0 0 0-.06-1.531L45.097 19.699c-.207-.206-.502-.295-.797-.295-.295 0-.56.148-.767.354L32.879 31.426l-5.165-5.156a1.093 1.093 0 0 0-1.476-.06L7.705 42.505c-.443.383-.502 1.09-.089 1.532.236.265.531.383.827.383Zm9.798-29.347a3.889 3.889 0 1 1 0 7.779 3.889 3.889 0 0 1-3.896-3.89c.03-2.15 1.77-3.889 3.896-3.889Zm0 9.93c3.334 0 6.05-2.711 6.05-6.04 0-3.33-2.716-6.04-6.05-6.04-3.335 0-6.05 2.71-6.05 6.04 0 3.329 2.715 6.04 6.05 6.04ZM11.217 48.75H3.012V3.111h40.314c.62 0 .915-.295.944-1.12.03-.56-.324-1.06-.944-1.06H1.92C1.33.93.828 1.402.828 2.02v47.82c0 .589.502 1.09 1.092 1.09h9.297c.501-.03.678-.295.737-1.09.03-.53-.265-1.09-.737-1.09ZM62.892.93H49.14c-.531 0-.856.354-.827.973-.03.825.325 1.149.827 1.179H61.8V48.72H17.03c-.59 0-1.062.265-1.032 1.09.059.737.413 1.09 1.033 1.09h45.861c.59 0 1.092-.471 1.092-1.09V2.021c-.03-.59-.501-1.09-1.092-1.09Z" fill="#fff"/></svg><svg fill="none" viewBox="0 0 73 60" id="cap" xmlns="http://www.w3.org/2000/svg"><path fill-rule="evenodd" clip-rule="evenodd" d="M58.168 41.466c-5.112-.974-11.3-1.578-17.892-1.746H32.776c-.201 0-.437 0-.639.034h-.033c-6.357.201-12.276.772-17.186 1.746V38.51c0-17.526 9.619-31.796 21.49-31.93h.27c11.871.1 21.49 14.37 21.49 31.897v2.988Zm-45.57-2.955v3.459c-.37.1-.74.168-1.11.268h-.034c-.202.068-.403.101-.605.168-.034 0-.067.034-.1.034-.17.033-.337.1-.505.134-.034 0-.068.034-.135.034-.168.033-.303.1-.47.134-.034 0-.102.034-.135.034-.135.033-.303.1-.437.134-.034 0-.101.034-.135.034-.135.033-.269.1-.404.134-.033 0-.1.033-.134.033-.135.034-.27.101-.404.135-.033 0-.067.033-.1.033-.135.067-.27.101-.404.168-.034 0-.067.034-.067.034-.505.201-.942.403-1.346.604 0 0-.033 0-.033.034-.135.067-.236.134-.37.167-.034 0-.067.034-.101.034-.101.067-.202.1-.27.168-.033.034-.066.034-.1.067-.067.034-.168.1-.235.134-.034.034-.068.034-.135.068-.067.033-.134.1-.202.134-.033 0-.033.034-.067.034V37.57c0-.235 0-.47.034-.738v-.034c0-.235.033-.47.033-.705v-.168c.034-.235.034-.47.068-.705v-.067c.033-.235.033-.437.067-.672l.033-.201.101-.705v-.1c.034-.202.068-.404.101-.639l.034-.201c.033-.235.067-.437.134-.672l.034-.1c.034-.202.067-.404.135-.571l.033-.202c.067-.201.101-.436.168-.638l.034-.134c.034-.168.1-.37.134-.537v-.034c.034-.067.034-.134.068-.201.067-.202.134-.403.202-.638l.067-.168c.067-.168.1-.336.168-.504.034-.067.034-.134.067-.201l.202-.605.067-.167c.067-.168.101-.303.168-.47.034-.068.068-.135.101-.236.068-.201.168-.369.236-.57l.1-.202c.068-.134.135-.268.169-.436v-.034l.1-.201c.068-.168.169-.37.27-.537l.1-.235c.068-.135.135-.27.202-.37l.034-.033.1-.202c.102-.168.169-.336.27-.537a.733.733 0 0 1 .1-.168l.034-.067c.068-.134.135-.235.202-.37l.034-.067.1-.201s0-.034.034-.034a33.157 33.157 0 0 1 3.06-4.398l.068-.067c.168-.202.336-.403.505-.571l.1-.134c.169-.168.303-.336.471-.504l.101-.134.505-.504.1-.1.572-.571.034-.034a48.08 48.08 0 0 1 1.95-1.746l.068-.067c.202-.168.403-.302.571-.47l.101-.1c.202-.135.37-.303.572-.437l.135-.101c.201-.134.403-.302.639-.437l.067-.033c.74-.504 1.48-.974 2.253-1.41l.067-.034c.236-.134.471-.268.673-.37l.134-.066c.202-.101.438-.235.64-.336l.134-.067c.202-.101.437-.202.639-.303l.135-.067c.235-.1.504-.235.74-.335h.033l.505-.202c-1.816 1.511-3.498 3.358-4.978 5.54-4.44 6.682-6.894 15.21-6.894 24.275ZM35.13 2.182h2.758a.94.94 0 0 1 .942.94v1.276c-.1 0-.202 0-.303-.033h-.134c-.303 0-.606-.034-.875-.034H35.534c-.303 0-.605.034-.908.034-.134 0-.269 0-.37.033V3.123c-.067-.504.37-.94.874-.94Zm37.33 54.93-1.714-8.93V37.503c0-.268 0-.503-.034-.772v-.034c0-.235-.034-.503-.034-.738v-.202c-.033-.268-.033-.503-.067-.772v-.067c-.033-.235-.067-.47-.067-.705l-.034-.202c-.033-.235-.067-.503-.1-.738v-.101c-.034-.235-.068-.437-.102-.672l-.033-.201c-.034-.235-.101-.47-.135-.705l-.033-.134c-.034-.202-.101-.403-.135-.605 0-.067-.033-.134-.033-.201-.068-.235-.101-.47-.169-.705l-.033-.135c-.067-.201-.101-.369-.168-.57l-.068-.236c-.067-.235-.134-.436-.201-.671 0-.034-.034-.067-.034-.1l-.034-.068c-.067-.168-.1-.37-.168-.537-.033-.067-.033-.134-.067-.202-.067-.201-.135-.436-.236-.637 0-.034-.033-.101-.033-.135l-.034-.067-.201-.504c-.034-.067-.068-.168-.101-.235-.068-.201-.169-.402-.27-.604l-.1-.201c-.068-.135-.135-.303-.202-.437v-.034l-.101-.2c-.1-.202-.168-.404-.27-.605l-.1-.235-.202-.403-.033-.034-.101-.201c-.101-.202-.202-.37-.303-.571l-.1-.201-.034-.068c-.068-.134-.135-.235-.202-.369l-.034-.067a.703.703 0 0 0-.134-.202l-.034-.033s0-.034-.034-.034a32.228 32.228 0 0 0-3.262-4.667l-.067-.067c-.168-.201-.336-.403-.538-.604l-.101-.135c-.168-.201-.337-.369-.505-.57l-.134-.135a4.058 4.058 0 0 0-.538-.537 1.159 1.159 0 0 0-1.614-.034 1.154 1.154 0 0 0-.034 1.612l.504.504.101.134c.168.168.303.336.471.504l.1.134c.17.202.337.37.505.57l.068.068a30.285 30.285 0 0 1 3.06 4.398s0 .034.034.034v.034l.1.201.034.067c.067.134.135.235.202.37l.034.067c.033.067.067.134.1.168.102.167.202.335.27.537l.1.201.034.034c.067.134.135.268.202.37l.1.234c.102.168.169.37.27.537l.1.202v.033c.068.135.135.269.169.437l.1.201c.068.202.169.37.236.571.034.067.067.134.101.235.067.168.135.302.168.47l.068.168.201.604c.034.068.034.135.068.202.067.168.1.336.168.503l.067.168c.067.202.135.403.202.638l.067.202c.034.168.1.37.135.537l.033.134c.067.202.101.437.168.638 0 .067.034.134.034.202.034.201.1.369.135.57l.033.101c.034.235.101.437.135.672l.033.201.101.605v.067l.101.705.034.168c.033.235.067.436.067.671v.067c.034.235.034.47.067.705v.168c.034.235.034.47.034.705v.034c0 .235.034.47.034.739v7.353c-.034 0-.034-.034-.068-.034-.067-.033-.134-.1-.202-.134-.033-.034-.067-.034-.134-.067-.067-.034-.168-.101-.236-.135-.033-.033-.067-.033-.1-.067-.101-.067-.202-.1-.27-.168-.033 0-.067-.033-.1-.033a1.247 1.247 0 0 0-.37-.168s-.034 0-.034-.034a12.033 12.033 0 0 0-.908-.403c-.168-.067-.303-.134-.47-.201-.034 0-.068-.034-.068-.034-.135-.067-.27-.1-.404-.168-.033 0-.067-.033-.1-.033-.135-.034-.27-.1-.404-.134-.034 0-.101-.034-.135-.034-.134-.034-.269-.1-.403-.134-.034 0-.101-.034-.135-.034-.134-.033-.269-.1-.437-.134-.034 0-.1-.034-.134-.034-.135-.033-.303-.1-.471-.134-.034 0-.067-.033-.135-.033-.168-.034-.336-.101-.504-.135-.034 0-.068-.033-.101-.033-.202-.068-.404-.101-.605-.168h-.034c-.37-.101-.74-.168-1.11-.269v-3.458c0-9.066-2.455-17.594-6.86-24.007-1.514-2.182-3.196-4.029-4.978-5.54l.504.201h.068c.235.101.504.202.74.336l.134.067c.202.101.437.202.64.303l.167.067c.202.1.437.201.64.335l.134.068c.235.134.47.235.672.369l.068.034c.74.436 1.513.906 2.22 1.376l.066.034c.202.134.438.302.64.436l.1.067c.202.135.404.303.572.437l.101.1c.202.168.404.303.572.47l.067.068c.47.403 1.21.336 1.614-.168.404-.47.337-1.209-.168-1.612l-.1-.067c-.203-.168-.404-.336-.64-.503l-.134-.101c-.202-.168-.404-.302-.64-.47l-.134-.101c-.235-.168-.437-.302-.672-.47l-.068-.067A25.446 25.446 0 0 0 53.36 8.83l-.068-.033c-.235-.134-.504-.269-.74-.403l-.134-.067a6.272 6.272 0 0 0-.673-.336l-.168-.067c-.235-.1-.47-.235-.706-.336l-.135-.067c-.269-.134-.538-.235-.807-.37l-.033-.033c-.572-.235-1.178-.47-1.783-.705l-.067-.034a7.575 7.575 0 0 0-.807-.268l-.169-.067c-.235-.067-.47-.135-.706-.235-.067-.034-.168-.034-.235-.068-.236-.067-.437-.134-.673-.201l-.235-.067c-.236-.067-.471-.134-.706-.168h-.068c-.033 0-.1-.034-.134-.034a35.598 35.598 0 0 1-.875-.201h-.033c-.337-.067-.64-.134-.976-.168h-.067c-.269-.034-.572-.1-.874-.134-.068 0-.101 0-.168-.034h-.101c-.068 0-.168-.033-.236-.033V3.19A3.19 3.19 0 0 0 37.787 0H35.03a3.19 3.19 0 0 0-3.195 3.19V4.7c-.068 0-.168.034-.236.034h-.1c-.068 0-.101 0-.169.034-.302.033-.571.1-.874.134h-.034a9.238 9.238 0 0 1-.941.168h-.034c-.27.067-.572.134-.874.201-.034 0-.101.034-.135.034h-.067c-.236.067-.471.1-.706.168l-.236.067c-.235.067-.437.134-.673.201-.067.034-.168.034-.235.068a5.8 5.8 0 0 0-.706.235l-.168.067c-.27.1-.538.168-.807.268h-.034c-.605.202-1.21.437-1.783.706l-.033.033c-.27.1-.538.235-.807.336l-.135.067c-.235.1-.47.235-.706.336l-.168.067c-.236.1-.471.235-.673.336l-.135.067c-.235.134-.504.268-.74.403l-.067.033a56.88 56.88 0 0 0-2.387 1.478l-.068.033c-.235.168-.47.302-.672.47l-.135.101c-.202.168-.403.302-.605.47l-.135.1c-.202.169-.437.337-.639.504l-.1.068a37.869 37.869 0 0 0-2.12 1.846c-.201.202-.403.403-.638.605l-.101.1-.538.537-.135.135c-.168.168-.336.37-.504.57l-.101.135c-.168.201-.37.403-.538.638l-.068.067a32.237 32.237 0 0 0-3.262 4.667s0 .034-.033.034l-.034.033a.702.702 0 0 1-.134.202l-.034.067c-.067.134-.135.235-.202.37l-.034.066-.1.202c-.101.201-.202.37-.303.57l-.101.202-.034.034-.201.402-.101.235c-.101.202-.168.403-.27.571l-.1.202v.033c-.068.135-.135.302-.202.437l.067.168c-.033.033-.033.1-.067.134a4.48 4.48 0 0 0-.235.604c-.034.067-.068.168-.101.235l-.202.504-.034.067c0 .034-.033.1-.033.135-.068.201-.169.436-.236.637-.033.068-.033.135-.067.235-.067.168-.101.37-.168.538l-.034.067c0 .033-.033.067-.033.1-.068.236-.135.437-.202.672-.034.067-.034.134-.068.201v.034c-.067.202-.1.37-.168.57l-.033.135c-.068.235-.101.47-.168.705 0 .068-.034.135-.034.202-.034.201-.101.403-.135.638l-.033.1c-.034.235-.101.47-.135.706l-.033.201c-.034.235-.068.437-.101.672v.1c-.034.235-.068.504-.101.739l-.034.201c-.034.235-.067.47-.067.705v.068c-.034.268-.034.503-.067.772v.201a5.431 5.431 0 0 0-.034.739v.034c0 .268-.034.503-.034.772v10.677L.625 57.146c0 .067-.033.134-.033.201 0 .101 0 .202.033.303v.067c0 .067.034.168.034.235 0 .034 0 .034.033.067.034.1.068.202.101.269 0 .033.034.033.034.067.034.067.067.134.134.201 0 .034.034.034.034.067.067.068.135.168.202.235 0 .034.034.034.067.068l.168.167c.034 0 .034.034.068.034.067.067.168.1.235.168 0 0 .034 0 .034.033l.201.101.068.034c.168.067.336.134.538.201h.067c.067.034.168.034.235.067h.034c.101.034.168.034.27.067h.066c.068 0 .169.034.236.034h.067c.1 0 .202.034.303.034h.067c.1 0 .168 0 .27.033h2.051c.134 0 .235 0 .37-.033h.168c.067 0 .168 0 .269-.034h.168c.134 0 .235-.034.37-.034l.605-.067c.135 0 .236-.033.37-.033l.874-.1c.169-.035.337-.035.539-.068l.504-.067a141.03 141.03 0 0 0 4.204-.605c.975-.134 1.984-.302 3.027-.436.639-.1 1.042-.672.975-1.276a1.155 1.155 0 0 0-1.278-.974c-1.043.135-2.085.303-3.06.437-1.48.235-2.893.436-4.204.604l-.505.067c-.168.034-.336.034-.504.067l-.841.101c-.1 0-.235.034-.336.034l-.572.067c-.135 0-.235.034-.37.034h-.168c-.067 0-.168 0-.235.033h-.135c-.1 0-.235 0-.336.034H4.123c-.067 0-.135 0-.236-.034h-.033c-.068 0-.101 0-.168-.033h-.034c-.067 0-.135-.034-.168-.034-.034 0-.101-.034-.135-.034h-.033c-.068-.033-.135-.067-.202-.067H3.08c-.033 0-.033-.033-.067-.033l1.682-8.83v-.202c0-.806 1.85-2.62 8.81-4.197.539-.135 1.077-.235 1.615-.336 5.18-1.007 11.57-1.645 18.396-1.78h5.482c7.567.135 14.663.84 20.179 2.015.202.034.403.1.605.134 6.962 1.578 8.811 3.392 8.811 4.197v.202l1.682 8.83s-.034.034-.067.034h-.034a.478.478 0 0 1-.202.067h-.033c-.034 0-.101.034-.135.034h-.034c-.067 0-.1.033-.168.033h-.033c-.068 0-.101.034-.169.034h-.033c-.067 0-.135 0-.236.033h-2.084c-.102 0-.236 0-.37-.033h-.135c-.067 0-.168 0-.236-.034h-.134c-.135 0-.236-.033-.37-.033l-.572-.068c-.1 0-.235-.033-.336-.033l-.84-.1c-.169-.035-.337-.035-.505-.068l-.505-.067c-1.278-.168-2.69-.37-4.204-.605-1.883-.268-4.035-.604-6.255-.873l-4.204-.503h-.1c-.37-.034-.774-.067-1.144-.1l-.337-.034c-.37-.034-.773-.068-1.143-.101l-.336-.034c-.404-.033-.774-.067-1.177-.1l-.27-.034c-.403-.034-.773-.067-1.177-.067h-.168c-.437-.034-.84-.034-1.278-.067h-.269c-.403-.034-.84-.034-1.278-.068h-.269c-.437 0-.874-.033-1.311-.033h-3.195c-.437 0-.875.033-1.312.033h-.269c-.437 0-.84.034-1.278.068h-.269c-.437.033-.84.033-1.278.067h-.168c-.404.033-.774.067-1.177.067l-.27.034c-.403.033-.806.067-1.176.1l-.337.034-1.143.1-.336.034c-.37.034-.774.067-1.144.1l-3.834.47c-.639.068-1.076.639-1.009 1.277.068.638.64 1.074 1.278 1.007l3.7-.436h.1l1.11-.101.337-.034 1.11-.1.336-.034c.37-.034.773-.067 1.177-.1l.269-.034c.37-.034.774-.068 1.143-.068h.135c.404-.033.84-.033 1.278-.067h.235c.404-.033.841-.033 1.245-.033h.269c.437 0 .84-.034 1.278-.034h3.128c.437 0 .84.034 1.277.034h.27c.403 0 .84.033 1.244.033h.269c.403.034.84.034 1.244.067h.168c.37.034.774.034 1.144.068l.269.033c.404.034.773.067 1.177.1l.336.034 1.11.101.336.034 1.11.1 4.271.504c2.186.302 4.339.605 6.222.873 1.514.235 2.926.437 4.238.604l.504.068c.168.033.336.033.505.067l.874.1c.135 0 .235.034.37.034l.605.067c.135 0 .27.034.37.034h.168c.101 0 .168 0 .236.033h.168c.134 0 .235.034.37.034h2.051c.101 0 .169 0 .27-.034h.067c.1 0 .201-.033.302-.033h.068c.067 0 .168-.034.235-.034h.067c.101 0 .168-.033.27-.067h.033c.067-.034.168-.034.235-.067h.068c.201-.067.37-.134.538-.202l.067-.033.202-.1.033-.034c.068-.068.168-.101.236-.168.033 0 .033-.034.067-.034.067-.067.135-.1.168-.168l.068-.067c.067-.067.134-.168.201-.235 0-.033.034-.033.034-.067.034-.067.1-.134.134-.201 0-.034.034-.034.034-.068l.1-.302v-.067c.035-.067.035-.168.035-.235v-.067c0-.1.033-.202.033-.302-.033-.168-.067-.235-.067-.303Z" fill="#fff"/><path fill-rule="evenodd" clip-rule="evenodd" d="M36.51 31.528a4.682 4.682 0 0 1-4.675-4.667c0-2.586 2.118-4.667 4.675-4.667a4.682 4.682 0 0 1 4.674 4.667c.034 2.552-2.085 4.667-4.674 4.667Zm0-11.651c-3.834 0-6.962 3.123-6.962 6.95 0 3.828 3.128 6.95 6.962 6.95 3.833 0 6.961-3.122 6.961-6.95 0-3.828-3.128-6.95-6.961-6.95Z" fill="#fff"/></svg><svg fill="none" viewBox="0 0 18 18" id="checked" xmlns="http://www.w3.org/2000/svg"><path d="M16 0H2a2 2 0 0 0-2 2v14a2 2 0 0 0 2 2h14a2 2 0 0 0 2-2V2a2 2 0 0 0-2-2ZM7 14 2 9l1.41-1.41L7 11.17l7.59-7.59L16 5l-9 9Z" fill="#FFC267"/></svg><svg fill="none" viewBox="0 0 66 61" id="cup" xmlns="http://www.w3.org/2000/svg"><path d="M4.01.244h42.06c.397 0 .794.085 1.163.226.029 0 .057.028.085.028.34.142.653.369.908.623.284.284.51.623.652.991.142.369.227.765.227 1.161v8.863h2.978c.85 0 1.702.085 2.524.255.823.17 1.645.425 2.411.736.794.312 1.532.736 2.24 1.19.71.48 1.39 1.019 1.958 1.613a13.465 13.465 0 0 1 1.616 1.954c.482.708.88 1.444 1.191 2.237.312.765.568 1.586.738 2.407.17.82.255 1.67.255 2.52v10.505c0 .85-.085 1.699-.255 2.52-.17.821-.426 1.642-.738 2.407-.312.792-.737 1.529-1.19 2.237-.483.707-1.022 1.387-1.617 1.953a13.472 13.472 0 0 1-1.957 1.614c-.71.482-1.447.878-2.241 1.19-.766.31-1.588.566-2.41.736-.823.17-1.674.255-2.525.255h-2.978v8.72c0 .397-.085.793-.227 1.161 0 .029-.028.057-.028.086-.17.34-.369.65-.624.906l-.085.084a2.803 2.803 0 0 1-.908.595 3.267 3.267 0 0 1-1.163.227H4.01c-.397 0-.794-.085-1.163-.227a4.014 4.014 0 0 1-.993-.651 2.992 2.992 0 0 1-.907-2.152V3.302c0-.397.085-.793.227-1.161 0-.029.028-.057.028-.085.142-.34.369-.651.624-.906C2.393.612 3.159.244 4.01.244Zm38.884 45.502V53.76c0 .962-.54 1.472-1.22 1.472-.652 0-1.22-.51-1.22-1.472V45.745c0-.963.54-1.302 1.22-1.302.68 0 1.22.34 1.22 1.302Zm0-13.166v7.73c0 .962-.34 1.444-1.135 1.444-.822 0-1.276-.397-1.276-1.444V7.549c0-.963.624-1.444 1.276-1.444.653 0 1.135.481 1.135 1.444v25.03Zm3.8-28.712v-.566a.534.534 0 0 0-.056-.227.862.862 0 0 0-.142-.198.593.593 0 0 0-.17-.113s-.029 0-.029-.029a.536.536 0 0 0-.227-.056H4.01c-.17 0-.34.056-.454.17a.592.592 0 0 0-.113.17v.028a.533.533 0 0 0-.057.226v53.94c0 .17.057.34.17.454a.862.862 0 0 0 .199.142.566.566 0 0 0 .255.056h42.06c.085 0 .17-.028.227-.056.057-.029.114-.057.17-.114l.029-.028c.056-.057.085-.113.113-.17v-.028a.534.534 0 0 0 .057-.227V3.868h.028ZM49.105 14.6v31.486h2.978c.71 0 1.39-.057 2.042-.198.68-.142 1.333-.34 1.957-.595.652-.255 1.248-.594 1.815-.962a9.97 9.97 0 0 0 1.589-1.303c.51-.51.936-1.02 1.304-1.586.369-.566.71-1.16.964-1.812a11.15 11.15 0 0 0 .596-1.954c.142-.65.199-1.33.199-2.038V25.104c0-.707-.057-1.387-.199-2.038a11.15 11.15 0 0 0-.596-1.954c-.255-.651-.595-1.246-.964-1.812a9.954 9.954 0 0 0-1.304-1.586 9.694 9.694 0 0 0-1.589-1.302c-.567-.368-1.163-.708-1.815-.963a11.197 11.197 0 0 0-1.957-.595 9.608 9.608 0 0 0-2.042-.198h-2.978V14.6Z" fill="#fff"/></svg><svg fill="none" viewBox="0 0 19 19" id="down-arrow" xmlns="http://www.w3.org/2000/svg"><g clip-path="url(#afa)"><path d="M18.289 8.384 9.495 17.18.7 8.384a.413.413 0 0 0-.584.584l9.086 9.087a.413.413 0 0 0 .584 0l9.087-9.087a.413.413 0 0 0-.584-.584h-.001Z" fill="#607D8B"/><path d="M18.289.95 9.495 9.745.7.95a.413.413 0 0 0-.584.584l9.086 9.086a.413.413 0 0 0 .584 0l9.087-9.086A.413.413 0 1 0 18.29.95h-.001Z" fill="#607D8B"/><path d="M9.495 18.176a.413.413 0 0 1-.293-.12L.116 8.969A.413.413 0 0 1 .7 8.385l8.795 8.794 8.794-8.795a.413.413 0 0 1 .584.584l-9.087 9.087a.414.414 0 0 1-.291.121Z" fill="#fff"/><path d="M9.495 10.742a.413.413 0 0 1-.293-.12L.116 1.534A.413.413 0 0 1 .7.95l8.795 8.794L18.289.95a.413.413 0 1 1 .584.584L9.786 10.62a.413.413 0 0 1-.291.122Z" fill="#fff"/></g><defs><clipPath id="afa"><path fill="#fff" d="M0 0h19v19H0z"/></clipPath></defs></svg><svg fill="none" viewBox="0 0 50 61" id="hoody" xmlns="http://www.w3.org/2000/svg"><path fill-rule="evenodd" clip-rule="evenodd" d="m47.114 49.734-5.03 1.346v-3.394l5.03-1.374v3.422ZM7.329 51.08l-5.03-1.346V46.34l5.03 1.374v3.366ZM14.522 2.61l8.934 9.229-.224.224-.085.084-3.343-1.71V9.65a.947.947 0 0 0-.955-.954.962.962 0 0 0-.928.757L12.64 6.704c-.028-.028-.056-.028-.084-.028h-.028c-.028 0-.056-.028-.056-.028h-.028c-.029 0-.057 0-.085-.028h-.281c-.028 0-.084 0-.112.028-.113.028-.815.225-1.826.59 1.517-3.03 3.456-4.208 4.383-4.629Zm18.01-.14L31.323 3.73l-1.151 1.178H19.354l-2.36-2.44h15.538Zm2.5.14c.9.42 2.894 1.599 4.383 4.656-1.04-.364-1.77-.589-1.938-.617h-.028c-.057-.028-.113-.028-.17-.028-.168 0-.364.028-.505.112l-5.057 2.61a.948.948 0 0 0-.9-.618.947.947 0 0 0-.955.954v.589l-4.58 2.356.141-.14 5.816-5.975 2.135-2.216 1.658-1.683Zm-10.255 7.854L21.209 6.79h7.136l-3.568 3.674Zm23.292 20.898a.947.947 0 0 0-.955.954v12.061l-5.03 1.375V22.076a.947.947 0 0 0-.955-.954.947.947 0 0 0-.955.954v32.511H17.107a.947.947 0 0 0-.956.953c0 .533.422.954.956.954h23.067v2.188H9.24v-2.188h4.776c.534 0 .955-.42.955-.954a.947.947 0 0 0-.955-.953H9.24V22.076a.947.947 0 0 0-.956-.954.947.947 0 0 0-.955.954v23.675l-5.03-1.375V16.298c0-2.833 3.4-5.077 6.435-6.48.028 0 .028 0 .056-.028a26.204 26.204 0 0 1 3.315-1.234l5.816 3.001v15.091c0 .533.422.954.956.954s.955-.42.955-.954v-14.11l4.467 2.301c.281.14.59.14.871 0l4.749-2.44v14.25c0 .532.421.953.955.953s.955-.42.955-.954V11.417l5.535-2.861a30.8 30.8 0 0 1 3.428 1.29c.028 0 .028 0 .056.028 3.035 1.403 6.322 3.619 6.322 6.424v12.79c0 .534.421.954.955.954s.956-.42.956-.953V16.298c0-3.815-3.85-6.452-7.109-7.995C39.668 1.823 35.257.645 35.06.59H14.606c-.197.056-4.58 1.235-6.884 7.658C4.435 9.79.473 12.427.473 16.297v34.166c0 .42.281.814.703.926l6.21 1.683v6.564c0 .533.42.953.954.953h32.873c.534 0 .956-.42.956-.953v-6.564l6.21-1.683a.936.936 0 0 0 .702-.926V32.315c-.057-.533-.478-.954-1.012-.954Z" fill="#fff"/><path fill-rule="evenodd" clip-rule="evenodd" d="M34.414 50.014H15.14v-5.918c2.669-1.6 4.383-4.376 4.692-7.434h9.918c.309 3.086 2.023 5.835 4.692 7.434l-.028 5.918ZM31.576 35.71a.947.947 0 0 0-.955-.954H18.905a.947.947 0 0 0-.956.954c0 2.945-1.63 5.61-4.242 7.012a.946.946 0 0 0-.506.842v7.405c0 .533.421.954.955.954h21.185c.534 0 .955-.421.955-.954v-7.405a.946.946 0 0 0-.505-.842 7.944 7.944 0 0 1-4.215-7.012Z" fill="#fff"/></svg><svg fill="none" viewBox="0 0 24 24" id="icon-cart" xmlns="http://www.w3.org/2000/svg"><g clip-path="url(#aha)"><path d="M7 18c-1.1 0-1.99.9-1.99 2S5.9 22 7 22s2-.9 2-2-.9-2-2-2ZM1 2v2h2l3.6 7.59-1.35 2.45c-.16.28-.25.61-.25.96 0 1.1.9 2 2 2h12v-2H7.42c-.14 0-.25-.11-.25-.25l.03-.12.9-1.63h7.45c.75 0 1.41-.41 1.75-1.03l3.58-6.49A1.003 1.003 0 0 0 20 4H5.21l-.94-2H1Zm16 16c-1.1 0-1.99.9-1.99 2s.89 2 1.99 2 2-.9 2-2-.9-2-2-2Z" fill="#fff"/></g><defs><clipPath id="aha"><path fill="#fff" d="M0 0h24v24H0z"/></clipPath></defs></svg><svg fill="none" viewBox="0 0 24 24" id="icon-check" xmlns="http://www.w3.org/2000/svg"><g clip-path="url(#aia)"><path d="M9 16.17 4.83 12l-1.42 1.41L9 19 21 7l-1.41-1.41L9 16.17Z" fill="#fff"/></g><defs><clipPath id="aia"><path fill="#fff" d="M0 0h24v24H0z"/></clipPath></defs></svg><svg fill="none" viewBox="0 0 40 40" id="icon-facebook" xmlns="http://www.w3.org/2000/svg"><g clip-path="url(#aja)"><path d="M20 40c11.046 0 20-8.954 20-20S31.046 0 20 0 0 8.954 0 20s8.954 20 20 20Z" fill="#3B5998"/><path d="M25.028 20.783h-3.569v13.074h-5.407V20.783h-2.571v-4.595h2.571v-2.973c0-2.126 1.01-5.456 5.455-5.456l4.005.017v4.46h-2.905c-.477 0-1.147.238-1.147 1.252v2.704h4.04l-.472 4.591Z" fill="#fff"/></g><defs><clipPath id="aja"><path fill="#fff" d="M0 0h40v40H0z"/></clipPath></defs></svg><svg fill="none" viewBox="0 0 20 20" id="icon-info" xmlns="http://www.w3.org/2000/svg"><g clip-path="url(#aka)"><path d="M10 1.667A8.336 8.336 0 0 0 1.667 10c0 4.6 3.733 8.333 8.333 8.333S18.333 14.6 18.333 10 14.6 1.667 10 1.667Zm.833 12.5H9.167v-5h1.666v5Zm0-6.667H9.167V5.833h1.666V7.5Z" fill="#4DB2CE"/></g><defs><clipPath id="aka"><path fill="#fff" d="M0 0h20v20H0z"/></clipPath></defs></svg><svg fill="none" viewBox="0 0 40 40" id="icon-instagram" xmlns="http://www.w3.org/2000/svg"><g clip-path="url(#ala)"><path d="M20 40c11.046 0 20-8.954 20-20S31.046 0 20 0 0 8.954 0 20s8.954 20 20 20Z" fill="url(#alb)"/><path d="M20 40c11.046 0 20-8.954 20-20S31.046 0 20 0 0 8.954 0 20s8.954 20 20 20Z" fill="url(#alc)"/><path d="M19.966 8.2c-3.195 0-3.596.014-4.851.071-1.252.057-2.107.256-2.856.547a5.76 5.76 0 0 0-2.084 1.356 5.775 5.775 0 0 0-1.358 2.084c-.291.749-.49 1.604-.546 2.856-.056 1.255-.071 1.656-.071 4.851 0 3.195.014 3.595.071 4.85.058 1.252.256 2.107.547 2.855.3.774.702 1.43 1.357 2.085a5.76 5.76 0 0 0 2.083 1.358c.749.29 1.604.489 2.856.546 1.255.057 1.656.071 4.85.071 3.196 0 3.596-.014 4.85-.07 1.253-.058 2.11-.256 2.858-.547a5.755 5.755 0 0 0 2.083-1.358 5.774 5.774 0 0 0 1.358-2.084c.289-.749.487-1.604.546-2.856.056-1.255.071-1.655.071-4.85 0-3.195-.015-3.596-.07-4.851-.06-1.253-.258-2.107-.547-2.856a5.773 5.773 0 0 0-1.358-2.084 5.75 5.75 0 0 0-2.084-1.356c-.75-.291-1.605-.49-2.858-.547-1.255-.057-1.654-.071-4.85-.071h.003Zm-1.055 2.12h1.055c3.142 0 3.514.011 4.754.068 1.147.052 1.77.244 2.185.405.549.213.94.468 1.352.88.412.412.666.804.88 1.353.161.414.353 1.037.405 2.184.057 1.24.069 1.613.069 4.752 0 3.14-.012 3.513-.069 4.753-.052 1.147-.244 1.77-.405 2.184a3.64 3.64 0 0 1-.88 1.351 3.64 3.64 0 0 1-1.352.88c-.415.162-1.038.353-2.185.406-1.24.056-1.612.068-4.754.068-3.141 0-3.514-.012-4.754-.068-1.147-.053-1.77-.245-2.185-.406a3.643 3.643 0 0 1-1.353-.88 3.647 3.647 0 0 1-.88-1.352c-.161-.414-.353-1.037-.405-2.184-.057-1.24-.068-1.613-.068-4.755 0-3.141.011-3.512.068-4.752.052-1.147.244-1.77.405-2.185.213-.549.469-.94.88-1.353a3.652 3.652 0 0 1 1.353-.88c.415-.162 1.038-.353 2.185-.406 1.085-.049 1.506-.063 3.699-.066v.003Zm7.335 1.954a1.412 1.412 0 1 0 0 2.824 1.412 1.412 0 0 0 0-2.825Zm-6.28 1.65a6.042 6.042 0 1 0 .001 12.084 6.042 6.042 0 0 0-.001-12.085Zm0 2.12a3.922 3.922 0 1 1 0 7.843 3.922 3.922 0 0 1 0-7.844Z" fill="#fff"/></g><defs><radialGradient id="alb" cx="0" cy="0" r="1" gradientUnits="userSpaceOnUse" gradientTransform="matrix(0 -39.643 36.8711 0 10.625 43.08)"><stop stop-color="#FD5"/><stop offset=".1" stop-color="#FD5"/><stop offset=".5" stop-color="#FF543E"/><stop offset="1" stop-color="#C837AB"/></radialGradient><radialGradient id="alc" cx="0" cy="0" r="1" gradientUnits="userSpaceOnUse" gradientTransform="rotate(78.681 -5.108 -2.646) scale(17.7206 73.0449)"><stop stop-color="#3771C8"/><stop offset=".128" stop-color="#3771C8"/><stop offset="1" stop-color="#60F" stop-opacity="0"/></radialGradient><clipPath id="ala"><path fill="#fff" d="M0 0h40v40H0z"/></clipPath></defs></svg><svg fill="none" viewBox="0 0 24 24" id="icon-location" xmlns="http://www.w3.org/2000/svg"><g clip-path="url(#ama)"><path d="M12 2C8.13 2 5 5.13 5 9c0 5.25 7 13 7 13s7-7.75 7-13c0-3.87-3.13-7-7-7Zm0 9.5a2.5 2.5 0 0 1 0-5 2.5 2.5 0 0 1 0 5Z" fill="#FFC267"/></g><defs><clipPath id="ama"><path fill="#fff" d="M0 0h24v24H0z"/></clipPath></defs></svg><svg fill="none" viewBox="0 0 19 20" id="icon-phone" xmlns="http://www.w3.org/2000/svg"><path d="m19.456 14.678-2.791-2.791c-.997-.997-2.692-.598-3.09.698-.3.897-1.296 1.395-2.193 1.196-1.994-.498-4.685-3.09-5.184-5.184-.299-.897.3-1.894 1.196-2.193 1.296-.398 1.695-2.093.698-3.09L5.301.524c-.797-.698-1.994-.698-2.691 0L.716 2.416C-1.178 4.411.915 9.694 5.6 14.38c4.685 4.685 9.968 6.878 11.962 4.884l1.894-1.894c.698-.797.698-1.993 0-2.691Z" fill="#fff"/></svg><svg fill="none" viewBox="0 0 20 20" id="icon-telegram" xmlns="http://www.w3.org/2000/svg"><g clip-path="url(#aoa)"><path d="M10 20c5.524 0 10-4.476 10-10S15.524 0 10 0 0 4.476 0 10s4.476 10 10 10ZM4.576 9.783l9.642-3.717c.447-.162.838.109.693.786V6.85l-1.641 7.734c-.122.548-.447.682-.903.423l-2.5-1.842-1.206 1.162c-.133.133-.246.245-.504.245l.177-2.544 4.633-4.186c.202-.177-.045-.277-.31-.1L6.93 11.346l-2.468-.77c-.536-.17-.548-.535.113-.794Z" fill="#fff"/></g><defs><clipPath id="aoa"><path fill="#fff" d="M0 0h20v20H0z"/></clipPath></defs></svg><svg fill="none" viewBox="0 0 19 21" id="icon-viber" xmlns="http://www.w3.org/2000/svg"><path fill-rule="evenodd" clip-rule="evenodd" d="M11.552 0H7.35C3.298 0 0 3.298 0 7.35v3.151a7.354 7.354 0 0 0 4.2 6.643v3.509c0 .304.382.463.598.247l3.048-3.048h3.705c4.054 0 7.351-3.297 7.351-7.35V7.35c0-4.053-3.297-7.351-7.35-7.351Zm3.184 13.047-.315-1.705a.35.35 0 0 0-.275-.28l-2.476-.494a.35.35 0 0 0-.316.095L10.35 11.67c-1.695-.76-2.635-1.702-3.462-3.469l1.002-1.002a.35.35 0 0 0 .096-.316L7.49 4.407a.35.35 0 0 0-.28-.276l-1.705-.315a.35.35 0 0 0-.14.003c-.451.102-.862.33-1.189.656-.566.566-.782 1.392-.625 2.39.263 1.673 1.083 4.002 2.596 5.521l.02.02c1.518 1.512 3.847 2.332 5.521 2.596.211.033.414.05.609.05.726 0 1.334-.23 1.78-.676.327-.327.554-.738.656-1.188a.351.351 0 0 0 .003-.14ZM10.152 3.15c-.125 0-.252.005-.377.015a.35.35 0 0 0 .053.698A4.205 4.205 0 0 1 14.24 9.02a.353.353 0 0 0 .248.418.353.353 0 0 0 .433-.257 4.906 4.906 0 0 0-4.77-6.031Zm-.39 1.422A3.504 3.504 0 0 1 13.63 8.44a.354.354 0 0 1-.386.309.353.353 0 0 1-.31-.386A2.803 2.803 0 0 0 9.84 5.268a.35.35 0 0 1-.076-.696ZM9.802 6.3a.35.35 0 0 1 .35-.35c1.158 0 2.1.942 2.1 2.1 0 .19-.16.35-.35.35-.19 0-.35-.16-.35-.35 0-.772-.628-1.4-1.4-1.4a.35.35 0 0 1-.35-.35Z" fill="#fff"/></svg><svg fill="none" viewBox="0 0 24 24" id="icon-zoom" xmlns="http://www.w3.org/2000/svg"><g clip-path="url(#aqa)" fill="#4DB2CE"><path d="M15.5 14h-.79l-.28-.27A6.471 6.471 0 0 0 16 9.5 6.5 6.5 0 1 0 9.5 16c1.61 0 3.09-.59 4.23-1.57l.27.28v.79l5 4.99L20.49 19l-4.99-5Zm-6 0C7.01 14 5 11.99 5 9.5S7.01 5 9.5 5 14 7.01 14 9.5 11.99 14 9.5 14Z"/><path d="M12 10h-2v2H9v-2H7V9h2V7h1v2h2v1Z"/></g><defs><clipPath id="aqa"><path fill="#fff" d="M0 0h24v24H0z"/></clipPath></defs></svg><svg fill="none" viewBox="0 0 48 61" id="long-sleeve" xmlns="http://www.w3.org/2000/svg"><path fill-rule="evenodd" clip-rule="evenodd" d="M31.855 4.216c-.197 1.851-1.32 3.31-3.343 4.32a9.772 9.772 0 0 1-8.736 0c-3.371-1.712-3.54-4.32-3.315-5.778l.168.084c.056.028.085.056.14.056.394.196.844.365 1.265.505.225.084.421.14.646.196.225.056.45.112.646.168.478.14.955.169 1.433.28 1.123.225 2.275.17 3.399.225.477.028.983 0 1.46-.028a13.864 13.864 0 0 0 1.855-.196c.674-.084 1.32-.225 1.966-.393.337-.084.646-.196.983-.308.421-.14.843-.337 1.264-.533.056-.028.113-.056.14-.084.057.448.085.925.029 1.486Zm-17.192.168c.168 1.711 1.067 4.067 4.298 5.722 1.63.813 3.399 1.206 5.169 1.206 1.77 0 3.54-.393 5.169-1.206 3.23-1.627 4.129-4.01 4.297-5.722a6.802 6.802 0 0 0 0-1.514l6.574 2.776a2.67 2.67 0 0 1 1.657 2.104c.253 1.57.646 4.123 1.096 7.292.056.476.505.813 1.011.757.478-.056.815-.505.759-1.01-.45-3.169-.843-5.721-1.124-7.32a4.519 4.519 0 0 0-2.725-3.45L32.698.57a.958.958 0 0 0-.871.084c-2.838 2.02-7.641 1.851-7.697 1.851h-.085c-.056 0-4.55.169-7.416-1.654-.337-.225-.702-.449-1.123-.28L7.359 4.02a4.519 4.519 0 0 0-2.725 3.45C3.342 15.377-.73 42.441.45 59.072c.056.813.73 1.43 1.545 1.43h5.955c.534 0 1.04-.28 1.292-.73h29.665c.28.45.758.73 1.32.73h5.955c.815 0 1.49-.617 1.545-1.43.815-11.275-.814-27.4-2.331-38.927-.056-.477-.506-.814-.983-.757a.882.882 0 0 0-.759.981c1.489 11.386 3.09 27.232 2.332 38.366h-5.59l-.759-3.477c.534-3.17-1.264-15.201-1.489-16.575v-.028c-.59-3.394-.786-7.965-.533-13.21.168-3.982.533-6.983.533-7.01a.882.882 0 0 0-.758-.983c-.478-.056-.927.28-.983.758-.057.505-1.461 12.2 0 20.725.533 3.478 1.77 12.564 1.545 15.565H20.28a.874.874 0 0 0-.87.87c0 .476.393.87.87.87h17.754l.365 1.738H10.45c-.057-.73-.113-1.29-.197-1.739h6.067c.478 0 .871-.393.871-.87a.874.874 0 0 0-.87-.869h-6.04c-.225-2.972 1.011-12.087 1.545-15.565 1.46-8.498.056-20.22 0-20.725-.056-.477-.506-.814-.984-.758a.882.882 0 0 0-.758.982c0 .028.365 3 .534 6.983.168 3.646.196 8.919-.534 13.21v.028c-.197 1.374-1.994 13.18-1.489 16.49v.028l-.758 3.534H2.275C1.15 42.246 5.168 15.518 6.46 7.722a2.724 2.724 0 0 1 1.658-2.104l6.573-2.776c-.084.477-.084 1.01-.028 1.542Z" fill="#fff"/></svg><svg fill="none" viewBox="0 0 88 88" id="loyalty" xmlns="http://www.w3.org/2000/svg"><path opacity=".8" fill-rule="evenodd" clip-rule="evenodd" d="M52.83 23.193h-1.865c-.117 0-.132 0-.4-.263-.356-.348-.952-.93-2.039-.93-1.087 0-1.682.582-2.038.93-.268.263-.283.263-.4.263-.117 0-.132 0-.4-.263-.356-.348-.952-.93-2.039-.93-1.087 0-1.682.582-2.038.93-.268.263-.283.263-.4.263h-1.825l1.774 3.871h9.804l1.865-3.871Zm-1.175 29.442 4.21-7.025a3.858 3.858 0 0 1 2.043-1.654l.234-4.404c-1.691-2.377-4.087-4.001-6.97-5.453H40.881c-2.906 1.45-5.32 3.076-7.022 5.471l.233 4.386a3.86 3.86 0 0 1 2.042 1.654l4.212 7.025a8.313 8.313 0 0 1 1.292 5.162c1.394.468 2.866.713 4.345.713 1.492 0 2.974-.249 4.378-.725a8.313 8.313 0 0 1 1.294-5.15Zm-4.716-4.177v1.288h-1.635v-1.23c-1.16-.07-2.285-.382-2.98-.811l.881-1.995c.766.452 1.786.742 2.679.742.777 0 1.055-.162 1.055-.44 0-.376-.605-.502-1.372-.661-1.32-.275-3.116-.649-3.116-2.564 0-1.31.951-2.412 2.853-2.679v-1.264h1.635v1.241c.858.081 1.694.302 2.355.673l-.824 1.983c-.8-.406-1.554-.603-2.261-.603-.8 0-1.056.232-1.056.51 0 .354.593.472 1.347.623 1.322.263 3.142.626 3.142 2.531 0 1.253-.905 2.343-2.703 2.656Zm3.083-19.05H42.05v2.348h7.97v-2.348ZM38.428 53.843l-.021-.035-4.217-7.034a1.576 1.576 0 0 0-2.704 1.618l3.988 6.681-2.017 1.194-3.962-6.698a3.76 3.76 0 0 1-.484-2.906 3.954 3.954 0 0 1 1.833-2.475c.312-.184.637-.32.969-.414l-.424-7.961a2.68 2.68 0 0 0-5.356.135L26 48.676l5.33 9.173-1.562 4.15h7.839l1.41-2.723c.667-1.836.454-3.812-.588-5.433Zm27.537-17.895L66 48.676l-5.33 9.173 1.562 4.15h-7.838l-1.411-2.723c-.667-1.836-.454-3.812.588-5.433l.022-.035 4.216-7.034a1.576 1.576 0 0 1 2.704 1.618l-3.988 6.682 2.017 1.193 3.962-6.698c.55-.867.723-1.899.484-2.906a3.954 3.954 0 0 0-1.833-2.475 4.042 4.042 0 0 0-.969-.413l.424-7.962a2.68 2.68 0 0 1 5.356.135Z" fill="#AD6646"/><mask id="asa" fill="#fff"><path fill-rule="evenodd" clip-rule="evenodd" d="M88 0H0v64.969L23.031 88H88V0Z"/></mask><path d="M0 0v-2h-2v2h2Zm88 0h2v-2h-2v2ZM0 64.969h-2v.828l.586.586L0 64.969ZM23.031 88l-1.414 1.414.586.586h.828v-2ZM88 88v2h2v-2h-2ZM0 2h88v-4H0v4Zm2 62.969V0h-4v64.969h4Zm-3.414 1.414 23.031 23.031 2.828-2.828-23.03-23.032-2.83 2.829ZM88 86H23.031v4H88v-4ZM86 0v88h4V0h-4Z" fill="#AD6646" fill-opacity=".2" mask="url(#asa)"/></svg><svg fill="none" viewBox="0 0 60 61" id="pazzle" xmlns="http://www.w3.org/2000/svg"><path fill-rule="evenodd" clip-rule="evenodd" d="M12.753 49.374h5.699v-1.962h-5.699c-.505.056-.73.308-.758 1.009.028.532.197.953.758.953ZM43.099.244H7.616A6.895 6.895 0 0 0 .71 7.138v2.69c.028.505.477.701.926.701.59-.028 1.039-.224 1.039-.7v-2.69c0-2.72 2.218-4.905 4.94-4.934h16.76V8.54c0 .533.45.981.982.981.14 0 .281-.028.393-.084a3.869 3.869 0 0 1 1.573-.336 3.92 3.92 0 0 1 3.93 3.924 3.92 3.92 0 0 1-3.93 3.923 3.869 3.869 0 0 1-1.573-.336.967.967 0 0 0-1.29.504.895.895 0 0 0-.085.393v6.25h-4.997c.056-.309.084-.589.084-.897v-.084a5.92 5.92 0 0 0-5.923-5.914c-3.256 0-5.923 2.635-5.923 5.914v.084c0 .308.028.616.084.897H2.675v-8.829c-.028-.448-.702-.588-1.039-.588-.477.028-.87.196-.926.588v27.55a6.895 6.895 0 0 0 6.906 6.895c.42 0 .561-.309.561-1.037 0-.449-.14-.925-.561-.953-2.723 0-4.913-2.214-4.941-4.933v-16.62h6.344c.59-.055 1.011-.56.983-1.12a.746.746 0 0 0-.084-.337c-.87-1.99.028-4.316 2.02-5.185 1.994-.868 4.324.028 5.194 2.018a3.89 3.89 0 0 1 0 3.167c-.252.505-.028 1.121.477 1.373.14.057.281.085.422.113h6.344v5.913a5.808 5.808 0 0 0-.983-.084c-3.256 0-5.923 2.635-5.923 5.914a5.884 5.884 0 0 0 3.565 5.409l.786-1.794c-1.993-.869-2.92-3.195-2.049-5.185.618-1.43 2.05-2.354 3.621-2.354.534 0 1.067.112 1.572.336a.967.967 0 0 0 1.292-.504.893.893 0 0 0 .084-.393v-7.286h5.025a5.78 5.78 0 0 0-.084.98c0 2.803 1.993 5.213 4.744 5.774l.393-1.934a3.96 3.96 0 0 1-3.144-3.867c0-.533.112-1.066.337-1.57a.964.964 0 0 0-.506-1.29.899.899 0 0 0-.393-.083h-6.344v-4.989c.337.056.646.084.983.084 3.256 0 5.923-2.634 5.923-5.913a5.92 5.92 0 0 0-6.906-5.83V2.205h16.76c2.722 0 4.912 2.215 4.94 4.933V23.87h-6.372a.994.994 0 0 0-.983.98c0 .14.028.281.084.393a3.85 3.85 0 0 1 .337 1.57H43.1c0-.337-.028-.673-.084-.981h6.007a.994.994 0 0 0 .983-.981V7.138A6.895 6.895 0 0 0 43.099.244Z" fill="#fff"/><path fill-rule="evenodd" clip-rule="evenodd" d="M50.679 45.702c.28.729.365 1.486.28 2.27l-3.2-3.194c-1.32-1.346-3.48-1.374-4.856-.057-1.348 1.318-1.376 3.476-.056 4.849l.056.056 3.116 3.11-13.924 5.242-1.881-5.017c-.112-.308-.393-.532-.702-.616-.084-.028-.14-.028-.224-.028-.253 0-.506.112-.702.28a3.955 3.955 0 0 1-5.587-.168 3.94 3.94 0 0 1 .169-5.578c.365-.364.814-.616 1.291-.812.309-.112.646-.197.983-.224.196-.029.42-.029.617-.029a.996.996 0 0 0 1.039-.924c0-.14 0-.28-.056-.393l-2.583-6.866 4.688-1.766a5.916 5.916 0 0 0 6.934 4.68 3.74 3.74 0 0 0 .954-.28 5.917 5.917 0 0 0 3.453-7.623c-.084-.252-.168-.42-.252-.616l4.547-2.018 5.896 15.722Zm7.074-3.139-8.281-5.689-3.173-8.492a1.013 1.013 0 0 0-1.263-.588c-.028 0-.028.028-.056.028l-6.4 2.83a1.02 1.02 0 0 0-.534 1.261c.112.28.197.477.309.701.112.224.196.42.309.729a3.969 3.969 0 0 1-2.302 5.1c-2.05.757-4.323-.28-5.081-2.298a3.897 3.897 0 0 1-.253-1.597.996.996 0 0 0-.926-1.037c-.14 0-.281.028-.393.056l-6.85 2.578a1.01 1.01 0 0 0-.59 1.262l2.47 6.558a5.31 5.31 0 0 0-.954.252 5.92 5.92 0 0 0-3.48 7.623 5.936 5.936 0 0 0 7.635 3.475c.309-.112.618-.252.898-.42l1.769 4.708c.197.505.758.757 1.263.589l9.77-3.672a5.25 5.25 0 0 0 3.115 2.775l.618-1.878a3.312 3.312 0 0 1-1.88-1.597l2.975-1.121a6.87 6.87 0 0 0 6.485 4.568v-1.962a4.98 4.98 0 0 1-4.941-4.932c0-.253-.112-.505-.28-.701l-3.426-3.42c-.505-.504-.561-1.317-.14-1.905.253-.336.646-.56 1.067-.589.42-.028.842.112 1.123.42l6.877 6.867 1.404-1.401-2.05-2.046a6.805 6.805 0 0 0-.084-4.596l-1.852-4.933 5.951 4.092a2.975 2.975 0 0 1 1.263 2.41v12.724h1.965V46.571a4.758 4.758 0 0 0-2.077-4.008Z" fill="#fff"/></svg><svg fill="none" viewBox="0 0 62 51" id="pillow" xmlns="http://www.w3.org/2000/svg"><path fill-rule="evenodd" clip-rule="evenodd" d="M56.168 42.557c-.61-2.05-.444-4.21-.166-6.01.083-.666-.36-1.247-1.027-1.358a1.212 1.212 0 0 0-1.36 1.025c-.305 2.077-.499 4.543.25 7.036.167.526.639.858 1.138.858.111 0 .222-.027.333-.055.638-.221.999-.886.832-1.496ZM21.402 22.502c-1.11 0-2.025-1.025-2.025-2.272 0-1.246.915-2.271 2.025-2.271 1.11 0 2.026 1.025 2.026 2.271 0 1.247-.916 2.272-2.026 2.272Zm0-6.925c-2.442 0-4.412 2.105-4.412 4.653 0 2.577 1.97 4.654 4.412 4.654s4.412-2.105 4.412-4.654c0-2.576-1.97-4.653-4.412-4.653Zm18.84 6.925c-1.11 0-2.026-1.025-2.026-2.272 0-1.246.916-2.271 2.026-2.271 1.11 0 2.025 1.025 2.025 2.271-.027 1.247-.915 2.272-2.025 2.272Zm0-6.925c-2.442 0-4.412 2.105-4.412 4.653 0 2.577 1.97 4.654 4.412 4.654s4.412-2.105 4.412-4.654c0-2.576-1.998-4.653-4.412-4.653Zm-9.406 2.603c-1.11 0-2.025-1.024-2.025-2.27 0-1.248.915-2.272 2.025-2.272 1.11 0 2.026 1.024 2.026 2.271-.028 1.247-.916 2.271-2.026 2.271Zm0-6.952c-2.442 0-4.412 2.105-4.412 4.653 0 2.576 1.97 4.654 4.412 4.654s4.412-2.105 4.412-4.654c-.028-2.548-1.998-4.653-4.412-4.653Zm0 25.235c-2.858 0-5.189-2.327-5.189-5.208 0-2.88 2.331-5.207 5.189-5.207s5.189 2.326 5.189 5.207c-.028 2.881-2.331 5.208-5.189 5.208Zm0-12.798c-4.19 0-7.575 3.408-7.575 7.59 0 4.183 3.385 7.59 7.575 7.59s7.575-3.407 7.575-7.59c0-4.182-3.413-7.59-7.575-7.59ZM7.779 6.851a1.2 1.2 0 0 0-1.499-.803 1.197 1.197 0 0 0-.804 1.495c.61 2.05.444 4.21.166 6.012-.083.664.36 1.246 1.027 1.357h.166a1.22 1.22 0 0 0 1.193-1.025c.306-2.078.5-4.543-.25-7.036Zm50.498 36.925c-.055-.166-.11-.332-.166-.582-.389-1.302-.472-2.604-.361-4.016.083-1.33.333-2.743.583-4.322.221-1.302.471-2.742.638-4.404.194-1.607.333-3.407.333-5.43 0-2.021-.139-3.822-.333-5.429-.194-1.634-.444-3.102-.638-4.404-.278-1.58-.5-2.992-.583-4.322-.083-1.412 0-2.714.36-4.016.056-.222.112-.416.167-.582.083-.277.056-.138.167-.554.305-.942.554-1.745.638-2.354.055-.388.027-.665-.084-.831-.083-.111-.138-.167-.166-.167h-.11c-.528 0-1.416.36-2.36.748-.027 0-.027.028-.055.028-.527.222-1.11.443-1.692.665-1 .36-2.11.61-3.33.775-1.22.167-2.525.25-3.995.25-2.442 0-5.023-.222-7.742-.443-1.47-.111-2.996-.25-4.356-.333a75.62 75.62 0 0 0-4.384-.138c-1.498 0-2.969.055-4.384.138-1.36.083-2.885.222-4.356.333-2.72.221-5.3.443-7.741.443-1.47 0-2.775-.083-3.996-.25-1.22-.166-2.33-.415-3.33-.775-.582-.194-1.137-.443-1.692-.665-.943-.388-1.859-.776-2.386-.776h-.11c-.029.028-.084.056-.167.167-.111.166-.14.443-.084.83.084.61.333 1.413.639 2.355.138.416.083.277.166.554.056.166.111.333.166.582.389 1.302.472 2.604.361 4.016-.083 1.33-.333 2.743-.582 4.322-.222 1.302-.472 2.742-.639 4.404a44.877 44.877 0 0 0-.333 5.43c0 4.044.528 7.257.972 9.833.277 1.58.499 2.992.582 4.322.083 1.413 0 2.714-.36 4.016-.111.36-.222.72-.361 1.108v.028c-.305.942-.555 1.745-.638 2.355-.056.387-.028.664.083.83.083.111.139.167.166.167h.111c.222 0 .555-.083.944-.222.471-.166.97-.36 1.443-.554.25-.11.471-.194.804-.332.305-.11.61-.222.888-.332.999-.36 2.109-.61 3.33-.776 1.22-.166 2.524-.25 3.995-.25 1.193 0 2.47.056 3.774.139 1.36.083 2.636.194 3.967.305 1.47.11 2.997.25 4.357.332 1.442.083 2.885.139 4.384.139 1.498 0 2.968-.056 4.383-.139 1.36-.083 2.886-.221 4.357-.332 2.719-.222 5.3-.443 7.74-.443 1.471 0 2.775.083 3.996.249 1.221.166 2.33.415 3.33.776.277.11.582.221.888.332.333.138.582.221.804.332.5.194.971.416 1.443.554.36.111.694.194.944.194h.11c.028-.028.084-.055.167-.166.111-.166.139-.443.083-.831-.083-.61-.333-1.413-.638-2.355-.055-.387-.028-.277-.11-.526Zm2.053-1.219c.028.139.111.333.167.527.194.609.166.498.166.526.333 1.053.61 1.967.722 2.77.138 1.025 0 1.856-.555 2.576-.361.443-.722.693-1.082.859-.389.166-.722.194-1.055.194-.527 0-1.082-.139-1.664-.333a27.343 27.343 0 0 1-1.61-.637c-.277-.11-.582-.249-.777-.332-.25-.083-.5-.194-.777-.305a13.956 13.956 0 0 0-2.857-.665 29.028 29.028 0 0 0-3.69-.221c-2.36 0-4.884.194-7.548.415-1.387.111-2.83.222-4.411.333-1.526.083-3.053.166-4.523.166-1.498 0-2.997-.056-4.523-.166-1.581-.111-3.024-.222-4.411-.333-1.388-.11-2.747-.221-3.913-.304a53.81 53.81 0 0 0-3.634-.139c-1.388 0-2.609.083-3.69.222-1.055.138-1.998.36-2.859.664-.277.111-.554.194-.776.305-.195.083-.5.194-.777.333-.583.249-1.138.47-1.61.637-.582.194-1.137.304-1.664.304-.306 0-.666-.027-1.055-.194a2.947 2.947 0 0 1-1.082-.858c-.555-.72-.694-1.552-.555-2.576.111-.804.389-1.718.722-2.77v-.028c.11-.333.222-.665.333-1.053.305-.997.36-2.05.277-3.185-.083-1.22-.305-2.577-.555-4.1C.62 32.502.065 29.178.065 24.967c0-2.105.139-3.989.333-5.706.194-1.69.444-3.186.666-4.515.25-1.524.472-2.854.555-4.1.083-1.164.028-2.216-.277-3.186-.028-.138-.111-.332-.167-.526-.194-.637-.166-.499-.166-.526C.676 5.355.399 4.44.287 3.638c-.139-1.025 0-1.856.555-2.577.36-.443.722-.692 1.082-.858.389-.167.722-.194 1.055-.194.97 0 2.108.47 3.274.942.5.221 1.026.415 1.553.609.86.305 1.804.526 2.858.665 1.082.138 2.303.221 3.69.221 2.359 0 4.884-.193 7.548-.415 1.387-.11 2.83-.222 4.411-.332 1.526-.084 3.052-.167 4.523-.167 1.498 0 2.997.056 4.523.167 1.581.11 2.996.221 4.411.332 2.664.222 5.189.415 7.547.415 1.388 0 2.608-.083 3.69-.221a13.957 13.957 0 0 0 2.858-.665c.528-.194 1.055-.415 1.582-.61h.028C56.64.48 57.75.01 58.72.01c.305 0 .666.027 1.054.194.361.166.722.415 1.083.858.554.72.693 1.552.554 2.577-.11.803-.388 1.717-.721 2.77-.028.055.028-.111-.166.526a4.01 4.01 0 0 1-.167.526c-.305.998-.36 2.05-.277 3.186.083 1.219.305 2.576.554 4.1.223 1.33.472 2.825.666 4.515.195 1.717.333 3.601.333 5.706 0 2.106-.138 3.99-.333 5.707-.194 1.69-.444 3.185-.666 4.515-.25 1.523-.471 2.853-.554 4.1-.084 1.218-.028 2.271.25 3.268ZM7.168 16.352l-.055-.055a1.216 1.216 0 0 0-1.693.028c-.444.47-.444 1.218.028 1.662.222.221.555.36.86.36.305 0 .583-.111.833-.333.471-.443.471-1.19.027-1.662Zm49.056 15.734-.056-.055a1.216 1.216 0 0 0-1.692.028c-.444.47-.444 1.219.028 1.662.222.221.555.36.86.36.305 0 .582-.111.832-.333.472-.415.472-1.163.028-1.662Z" fill="#fff"/></svg><svg fill="none" viewBox="0 0 54 61" id="polo" xmlns="http://www.w3.org/2000/svg"><path fill-rule="evenodd" clip-rule="evenodd" d="M32.846 19.316a.946.946 0 0 0-.955.953c0 .533.422.954.955.954h5.448c.534 0 .955-.421.955-.954a.946.946 0 0 0-.955-.953h-5.448Zm11.655 8.383v-2.243l5.87-2.215.645 2.075-6.515 2.383ZM30.29 11.325s0 .028 0 0l-.029.028c-.308 0-.87-.364-1.46-.897l-.028-.028a.386.386 0 0 0-.112-.084 16.253 16.253 0 0 1-.983-1.01l6.6-6.588c.59.196.898.392.898.392.028.028.056.028.084.057l.73.42c-.982 1.346-4.577 6.365-5.7 7.71Zm-2.95 7.963h-1.853V11.69c.337-.309.646-.645.927-.953.28.308.59.644.927.953v7.598Zm0 3.813h-1.853v-1.906h1.854V23.1Zm-3.2-12.757c-.029.028-.057.056-.085.056-.028.028-.056.056-.084.056-.59.505-1.123.87-1.432.87l-.028-.029c-1.124-1.345-4.69-6.364-5.673-7.738l.73-.42c.028 0 .028-.029.056-.029 0 0 .337-.224.927-.392l6.571 6.589c-.253.308-.618.673-.983 1.037Zm7.778-7.935-5.504 5.496-5.504-5.496h11.008ZM8.694 25.456V27.7L2.18 25.316l.646-2.075 5.87 2.215Zm44.372.168-4.774-15.532c-.618-1.99-2.247-3.112-2.724-3.393h-.028L36.61 1.54C36.3 1.344 34.895.503 32.452.503H20.77c-2.471 0-3.875.841-4.156 1.037l-1.32.757-.253.14-7.358 4.206h-.028c-.477.28-2.134 1.402-2.724 3.393L.157 25.568c-.14.477.112.982.59 1.178L8.75 29.69v29.86c0 .532.42.953.954.953h33.897c.534 0 .955-.42.955-.953V41.017a.946.946 0 0 0-.955-.953.946.946 0 0 0-.955.953v13.822H20.265a.946.946 0 0 0-.955.954c0 .532.421.953.955.953h22.382v1.85H10.604v-1.85h6.263c.533 0 .954-.42.954-.953a.946.946 0 0 0-.954-.954h-6.263V20.241a.946.946 0 0 0-.955-.953.946.946 0 0 0-.955.953v3.169l-5.307-1.991L6.7 10.624c.422-1.345 1.545-2.13 1.91-2.327l6.572-3.757c.814 1.15 4.661 6.561 5.897 8.019.393.449.899.7 1.489.7.337 0 .674-.083 1.039-.223v11.018c0 .533.421.954.955.954h3.763c.533 0 .955-.421.955-.954V13.008c.337.14.702.224 1.039.224.59 0 1.095-.252 1.488-.701 1.32-1.542 5.504-7.486 5.982-8.159l6.852 3.925c.365.225 1.489.982 1.91 2.327l3.314 10.795-5.308 1.99v-3.14a.946.946 0 0 0-.955-.953.946.946 0 0 0-.955.953v17.58c0 .532.422.953.955.953.534 0 .955-.42.955-.953v-8.131l8.004-2.944a.916.916 0 0 0 .505-1.15Z" fill="#fff"/></svg><svg fill="none" viewBox="0 0 88 88" id="quality" xmlns="http://www.w3.org/2000/svg"><path opacity=".8" fill-rule="evenodd" clip-rule="evenodd" d="M49.535 25.5h2.715c.69 0 1.25.56 1.25 1.25v5c0 .69-.56 1.25-1.25 1.25h-12.5c-.69 0-1.25-.56-1.25-1.25v-5c0-.69.56-1.25 1.25-1.25h2.712A3.76 3.76 0 0 1 46 23c1.63 0 3.02 1.045 3.535 2.5ZM56 28h2.5c1.403 0 2.5 1.098 2.5 2.5v30c0 1.403-1.097 2.5-2.5 2.5h-25a2.473 2.473 0 0 1-2.5-2.5v-30c0-1.378 1.123-2.5 2.5-2.5H36v3.75a3.755 3.755 0 0 0 3.75 3.75h12.5A3.755 3.755 0 0 0 56 31.75V28ZM40.635 55.135l5-5a1.25 1.25 0 0 0-1.77-1.767l-4.115 4.114-1.617-1.614a1.25 1.25 0 0 0-1.768 1.767l2.5 2.5a1.256 1.256 0 0 0 1.77 0Zm0-10 5-5a1.25 1.25 0 0 0-1.77-1.767l-4.115 4.114-1.617-1.614a1.25 1.25 0 0 0-1.768 1.767l2.5 2.5a1.256 1.256 0 0 0 1.77 0ZM48.5 51.75c0 .69.56 1.25 1.25 1.25h5a1.25 1.25 0 0 0 0-2.5h-5c-.69 0-1.25.56-1.25 1.25ZM49.75 43h5a1.25 1.25 0 0 0 0-2.5h-5a1.25 1.25 0 0 0 0 2.5Z" fill="#AD6646"/><g opacity=".2"><mask id="awa" fill="#fff"><path fill-rule="evenodd" clip-rule="evenodd" d="M88 0H0v64.969L23.031 88H88V0Z"/></mask><path d="M0 0v-2h-2v2h2Zm88 0h2v-2h-2v2ZM0 64.969h-2v.828l.586.586L0 64.969ZM23.031 88l-1.414 1.414.586.586h.828v-2ZM88 88v2h2v-2h-2ZM0 2h88v-4H0v4Zm2 62.969V0h-4v64.969h4Zm-3.414 1.414 23.031 23.031 2.828-2.828-23.03-23.032-2.83 2.829ZM88 86H23.031v4H88v-4ZM86 0v88h4V0h-4Z" fill="#AD6646" mask="url(#awa)"/></g></svg><svg fill="none" viewBox="0 0 88 88" id="supply" xmlns="http://www.w3.org/2000/svg"><path opacity=".8" fill-rule="evenodd" clip-rule="evenodd" d="M53.917 22c.686 0 1.25.563 1.25 1.25v15.833c0 .689-.564 1.25-1.25 1.25H38.083c-.688 0-1.25-.561-1.25-1.25V23.25c0-.687.562-1.25 1.25-1.25h6.25v5a1.667 1.667 0 0 0 3.334 0v-5h6.25Zm-9.584 22.917c0-.689-.563-1.25-1.25-1.25h-6.25v5a1.667 1.667 0 0 1-3.333 0v-5h-6.25c-.688 0-1.25.561-1.25 1.25V60.75c0 .688.562 1.25 1.25 1.25h15.833c.687 0 1.25-.562 1.25-1.25V44.917Zm21.667 0c0-.689-.563-1.25-1.25-1.25H58.5v5a1.667 1.667 0 0 1-3.333 0v-5h-6.25c-.689 0-1.25.561-1.25 1.25V60.75c0 .688.561 1.25 1.25 1.25H64.75c.687 0 1.25-.562 1.25-1.25V44.917Z" fill="#AD6646"/><mask id="axa" fill="#fff"><path fill-rule="evenodd" clip-rule="evenodd" d="M88 0H0v64.969L23.031 88H88V0Z"/></mask><path d="M0 0v-2h-2v2h2Zm88 0h2v-2h-2v2ZM0 64.969h-2v.828l.586.586L0 64.969ZM23.031 88l-1.414 1.414.586.586h.828v-2ZM88 88v2h2v-2h-2ZM0 2h88v-4H0v4Zm2 62.969V0h-4v64.969h4Zm-3.414 1.414 23.031 23.031 2.828-2.828-23.03-23.032-2.83 2.829ZM88 86H23.031v4H88v-4ZM86 0v88h4V0h-4Z" fill="#AD6646" fill-opacity=".2" mask="url(#axa)"/></svg><svg fill="none" viewBox="0 0 71 61" id="sweatshirt" xmlns="http://www.w3.org/2000/svg"><path fill-rule="evenodd" clip-rule="evenodd" d="M11.963 47.642h-9.62c0-4.33.214-10.61 1.1-17.043C5.03 19.29 8.205 11.514 12.664 7.947l2.565 9.878v15.457l-3.268 14.36Zm-1.039 4.573h-8.49v-.213c-.03-.58-.03-1.372-.06-2.318h9.13l-.58 2.531Zm16.98-49.787h-.031.03Zm13.986 0c-.03.183-.062.336-.092.519a8.031 8.031 0 0 1-.58 1.829c-.306.701-.703 1.311-1.191 1.768a5.049 5.049 0 0 1-2.016 1.22c-1.985.64-5.069.549-6.78-.701a6.13 6.13 0 0 1-1.434-1.616c-.336-.55-.58-1.19-.764-1.89a12.936 12.936 0 0 1-.244-1.16h13.1v.031Zm16.826 45.214-3.268-14.33V17.826l2.535-9.848c4.49 3.567 7.665 11.342 9.223 22.653.885 6.433 1.099 12.744 1.099 17.042h-9.589v-.03Zm9.558 4.42v.153h-8.49l-.58-2.53h9.131c-.03.975-.06 1.798-.06 2.378Zm-14.872 6.25H17.276v-2.286h36.096v2.287h.03Zm16.98-9.664c.03-4.39-.153-11.25-1.13-18.323C67.45 17.337 63.662 8.983 58.013 5.477c-.092-.06-.184-.122-.275-.152l-4.703-1.677c-.52-.183-1.13.091-1.313.61-.183.518.091 1.128.61 1.31l3.818 1.373-2.718 10.518c-.03.091-.03.183-.03.244v36.28H17.306v-2.195c0-.58-.458-1.036-1.039-1.036-.58 0-1.038.457-1.038 1.036v6.89c0 .946.763 1.708 1.71 1.708h36.798c.947 0 1.71-.763 1.71-1.708V42.55l1.466 6.372.916 4.025a1.666 1.666 0 0 0 1.65 1.31h9.1c.916 0 1.68-.731 1.71-1.646 0-.122 0-.274.03-.457.03-.884.061-2.256.061-3.506 0 .03 0 0 0 0ZM15.23 45.599c0 .58.458 1.037 1.038 1.037.58 0 1.039-.458 1.039-1.037V17.703c0-.092 0-.183-.031-.244L14.558 6.94l12.215-4.36c.061.518.184 1.036.306 1.555.244.884.58 1.677.977 2.378A7.114 7.114 0 0 0 30.04 8.77c2.168 1.585 6.138 1.83 8.642 1.006a7.026 7.026 0 0 0 2.84-1.738c.641-.64 1.191-1.463 1.588-2.378.306-.701.55-1.463.733-2.286.061-.275.092-.55.122-.793l2.321.823c.52.183 1.13-.091 1.313-.61.183-.518-.091-1.128-.61-1.31L44.118.446c-.122-.03-.214-.061-.336-.061H26.987c-.122 0-.244.03-.336.06l-13.62 4.879c-.03 0-.03.03-.06.03h-.031c-.03.03-.061.03-.092.061-5.71 3.476-9.528 11.86-11.36 24.909C.51 37.398.328 44.258.358 48.648v.03c0 1.22.03 2.53.061 3.446 0 .182 0 .365.03.518.031.914.795 1.646 1.71 1.646h9.101c.794 0 1.496-.549 1.65-1.31l.915-4.025 1.466-6.403v3.05h-.061Z" fill="#fff"/></svg><svg fill="none" viewBox="0 0 57 61" id="t-shirt" xmlns="http://www.w3.org/2000/svg"><path fill-rule="evenodd" clip-rule="evenodd" d="M46.617 25.916v-2.047l7.358-3.084.477 2.019-7.835 3.112Zm0-9.757 4.297-7.122c.225.393.365.757.421.954 0 .028 0 .028.028.056v.056l2.135 8.747-6.88 2.972V16.16Zm-18.282-5.103c-3.763 0-7.751-3.42-8.2-8.607h16.372c-.421 5.186-4.409 8.607-8.172 8.607ZM9.912 16.159v5.663l-6.908-2.915 2.134-8.748s.14-.505.477-1.122l4.297 7.122Zm0 9.757L2.05 22.804l.477-2.019 7.358 3.084.028 2.047Zm46.59-2.776L53.245 9.71c-.028-.14-.815-3.28-3.96-4.598C47.038 4.16 39.877 1.44 38.08.766a.907.907 0 0 0-.59-.224H18.899c-.028 0-.028 0-.056.028h-.029C18.45.71 9.772 3.99 7.216 5.056 4.211 6.318 3.369 9.29 3.284 9.626v.028l-2.33 9.533-.927 3.953a.949.949 0 0 0 .561 1.094l9.324 3.7v31.654c0 .533.421.954.955.954h34.795c.534 0 .955-.42.955-.953V37.72a.946.946 0 0 0-.955-.954.946.946 0 0 0-.954.954v17.074h-23.31a.946.946 0 0 0-.955.954c0 .532.422.953.955.953h23.31v1.962H11.822v-1.962h6.43c.534 0 .956-.42.956-.953a.946.946 0 0 0-.955-.954h-6.431V15.907a.944.944 0 0 0-.14-.477L6.906 7.523a4.505 4.505 0 0 1 1.067-.645c1.938-.813 7.78-3.028 10.307-4.009.618 5.608 4.97 10.094 10.054 10.094 5.083 0 9.408-4.486 10.054-10.038 2.611.981 8.256 3.14 10.166 3.953.421.169.758.393 1.067.645l-4.774 7.907a.944.944 0 0 0-.14.476V34.58c0 .533.42.954.954.954s.955-.42.955-.954v-6.645l9.324-3.7a.92.92 0 0 0 .561-1.094ZM25.863 5.73h4.887c.534 0 .955-.42.955-.953a.946.946 0 0 0-.955-.954h-4.887a.946.946 0 0 0-.954.954c0 .532.42.953.954.953Z" fill="#fff"/></svg><svg fill="none" viewBox="0 0 88 88" id="timing" xmlns="http://www.w3.org/2000/svg"><path opacity=".8" fill-rule="evenodd" clip-rule="evenodd" d="M61 28h2c1 0 2 1 2 2v9.6c-2.8-2.2-6.2-3.6-10-3.6-8.8 0-16 7.2-16 16 0 2.8.8 5.6 2.2 8H29c-1 0-2-.8-2-2V30c0-1.2 1-2 2-2h4v-2c0-1.2.8-2 2-2s2 .8 2 2v2h20v-2c0-1.2.8-2 2-2s2 .8 2 2v2ZM43 52c0-6.6 5.4-12 12-12s12 5.4 12 12-5.4 12-12 12-12-5.4-12-12Zm10 0c0 1.2.8 2 2 2h4c1.2 0 2-.8 2-2s-.8-2-2-2h-2v-4c0-1.2-.8-2-2-2s-2 .8-2 2v6Z" fill="#AD6646"/><g opacity=".2"><mask id="baa" fill="#fff"><path fill-rule="evenodd" clip-rule="evenodd" d="M88 0H0v64.969L23.031 88H88V0Z"/></mask><path d="M0 0v-2h-2v2h2Zm88 0h2v-2h-2v2ZM0 64.969h-2v.828l.586.586L0 64.969ZM23.031 88l-1.414 1.414.586.586h.828v-2ZM88 88v2h2v-2h-2ZM0 2h88v-4H0v4Zm2 62.969V0h-4v64.969h4Zm-3.414 1.414 23.031 23.031 2.828-2.828-23.03-23.032-2.83 2.829ZM88 86H23.031v4H88v-4ZM86 0v88h4V0h-4Z" fill="#AD6646" mask="url(#baa)"/></g></svg></svg>