<svg width="64" height="51" viewBox="0 0 64 51" fill="none" xmlns="http://www.w3.org/2000/svg">
<path fill-rule="evenodd" clip-rule="evenodd" d="M8.44252 44.4192C8.70813 44.4192 8.9442 44.3308 9.15079 44.154L26.9171 28.5382L38.1317 39.7344C38.5449 40.1469 39.2532 40.1469 39.6664 39.7344C40.0796 39.3219 40.0796 38.6148 39.6664 38.2023L34.4427 32.9872L44.4474 22.0562L56.6949 33.2819C57.1376 33.6944 57.8164 33.6649 58.2295 33.2229C58.6427 32.781 58.6132 32.1033 58.1705 31.6908L45.0966 19.6991C44.89 19.4928 44.5949 19.4044 44.2998 19.4044C44.0047 19.4044 43.7391 19.5518 43.5325 19.758L32.8786 31.4257L27.714 26.2695C27.3008 25.857 26.6515 25.857 26.2384 26.2106L7.70472 42.504C7.26204 42.8871 7.203 43.5942 7.61617 44.0361C7.85227 44.3013 8.1474 44.4192 8.44252 44.4192ZM18.2406 15.0733C20.3949 15.0733 22.1361 16.8116 22.1361 18.9625C22.1361 21.1133 20.3949 22.8517 18.2406 22.8517C16.0862 22.8517 14.345 21.1133 14.345 18.9625C14.3745 16.8116 16.1157 15.0733 18.2406 15.0733ZM18.2406 25.0026C21.5754 25.0026 24.2905 22.2919 24.2905 18.9625C24.2905 15.6331 21.5754 12.9224 18.2406 12.9224C14.9057 12.9224 12.1906 15.6331 12.1906 18.9625C12.1906 22.2919 14.9057 25.0026 18.2406 25.0026ZM11.2166 48.7503H3.01224V3.11098H43.3259C43.9457 3.11098 44.2408 2.81634 44.2703 1.99136C44.2998 1.43155 43.9457 0.930664 43.3259 0.930664H1.92031C1.33006 0.930664 0.828369 1.40208 0.828369 2.02082V49.8405C0.828369 50.4298 1.33006 50.9307 1.92031 50.9307H11.2166C11.7183 50.9012 11.8954 50.636 11.9544 49.8405C11.984 49.3102 11.6888 48.7503 11.2166 48.7503ZM62.8925 0.930664H49.1398C48.6086 0.930664 48.2839 1.28423 48.3134 1.90297C48.2839 2.72795 48.6381 3.05205 49.1398 3.08152H61.8005V48.7209H17.0305C16.4403 48.7209 15.9681 48.9861 15.9976 49.811C16.0566 50.5476 16.4108 50.9012 17.0305 50.9012H62.8925C63.4827 50.9012 63.9844 50.4298 63.9844 49.811V2.02082C63.9549 1.43155 63.4827 0.930664 62.8925 0.930664Z" fill="#ffffff"/>
</svg>
