<svg width="66" height="61" viewBox="0 0 66 61" fill="none" xmlns="http://www.w3.org/2000/svg">
<path d="M4.0098 0.243652H46.0703C46.4674 0.243652 46.8645 0.328598 47.2332 0.470174C47.2616 0.470174 47.2899 0.498489 47.3183 0.498489C47.6586 0.640066 47.9706 0.866588 48.2259 1.12142C48.5095 1.40458 48.7364 1.74436 48.8782 2.11246C49.02 2.48056 49.105 2.87697 49.105 3.27338V12.1361H52.083C52.9339 12.1361 53.7848 12.221 54.6073 12.3909C55.4298 12.5608 56.2523 12.8156 57.018 13.1271C57.8122 13.4386 58.5495 13.8633 59.2586 14.3163C59.9676 14.7977 60.6483 15.3357 61.2156 15.9303C61.8112 16.5249 62.35 17.1762 62.8322 17.884C63.3143 18.5919 63.7114 19.3281 64.0234 20.121C64.3354 20.8855 64.5906 21.7066 64.7608 22.5277C64.931 23.3489 65.016 24.1983 65.016 25.0478V35.5528C65.016 36.4022 64.931 37.2517 64.7608 38.0728C64.5906 38.894 64.3354 39.7151 64.0234 40.4796C63.7114 41.2724 63.286 42.0086 62.8322 42.7165C62.35 43.4244 61.8112 44.104 61.2156 44.6703C60.62 45.2649 59.9676 45.8029 59.2586 46.2842C58.5495 46.7656 57.8122 47.162 57.018 47.4735C56.2523 47.7849 55.4298 48.0398 54.6073 48.2097C53.7848 48.3796 52.9339 48.4645 52.083 48.4645H49.105V57.1856C49.105 57.582 49.02 57.9784 48.8782 58.3465C48.8782 58.3748 48.8498 58.4032 48.8498 58.4315C48.6796 58.7713 48.4811 59.0827 48.2259 59.3376C48.1975 59.3659 48.1691 59.3942 48.1408 59.4225C47.8855 59.6773 47.5735 59.8756 47.2332 60.0171C46.8645 60.1587 46.4674 60.2437 46.0703 60.2437H4.0098C3.61273 60.2437 3.21571 60.1587 2.847 60.0171C2.4783 59.8472 2.13796 59.6207 1.85434 59.3659C1.2871 58.7996 0.946777 58.0634 0.946777 57.2139V3.3017C0.946777 2.90529 1.03181 2.50887 1.17362 2.14077C1.17362 2.11246 1.20201 2.08414 1.20201 2.05583C1.34381 1.71604 1.5707 1.40458 1.82595 1.14974C2.39319 0.611751 3.15894 0.243652 4.0098 0.243652ZM42.8938 45.7462V53.7311V53.7595C42.8938 54.7222 42.3549 55.2319 41.6743 55.2319C41.0219 55.2319 40.4547 54.7222 40.4547 53.7595V53.7311V45.7746V45.7462C40.4547 44.7835 40.9936 44.4437 41.6743 44.4437C42.3549 44.4437 42.8938 44.7835 42.8938 45.7462ZM42.8938 32.5797V40.3097C42.8938 41.2724 42.5535 41.7538 41.7594 41.7538C40.9369 41.7538 40.4831 41.3574 40.4831 40.3097V32.5797V7.54899C40.4831 6.58627 41.107 6.10491 41.7594 6.10491C42.4117 6.10491 42.8938 6.58627 42.8938 7.54899V32.5797ZM46.6943 3.868C46.6943 3.83969 46.6943 3.81137 46.6943 3.78306V3.3017C46.6943 3.21675 46.6659 3.13181 46.6376 3.07518C46.6092 3.01855 46.5525 2.9336 46.4958 2.87697C46.439 2.82034 46.3824 2.79202 46.3256 2.76371C46.3256 2.76371 46.2973 2.76371 46.2973 2.73539C46.2405 2.70708 46.1554 2.67876 46.0703 2.67876H4.0098C3.83962 2.67876 3.6695 2.73539 3.55605 2.84865C3.49932 2.90529 3.47092 2.96192 3.44256 3.01855V3.04686C3.4142 3.10349 3.38585 3.18844 3.38585 3.27338V57.2139C3.38585 57.3838 3.4426 57.5537 3.55605 57.667C3.61277 57.7236 3.69784 57.7802 3.75457 57.8085C3.81129 57.8369 3.89635 57.8652 4.0098 57.8652H46.0703C46.1554 57.8652 46.2405 57.8369 46.2973 57.8085C46.354 57.7802 46.4107 57.7519 46.4675 57.6953L46.4958 57.667C46.5525 57.6103 46.5809 57.5537 46.6093 57.4971V57.4688C46.6376 57.4121 46.666 57.3272 46.666 57.2422V49.3423C46.666 49.314 46.666 49.2857 46.666 49.2573V3.868H46.6943ZM49.105 14.5995V46.086H52.083C52.7921 46.086 53.4728 46.0294 54.1251 45.8878C54.8058 45.7462 55.4581 45.548 56.0821 45.2932C56.7344 45.0384 57.33 44.6986 57.8972 44.3305C58.4644 43.9624 59.0033 43.5093 59.4855 43.028C59.996 42.5183 60.4215 42.0086 60.7902 41.4423C61.1589 40.876 61.4992 40.2814 61.7544 39.6302C62.0097 39.0072 62.2082 38.356 62.3501 37.6764C62.4919 37.0252 62.5486 36.3456 62.5486 35.6377V25.1044C62.5486 24.3966 62.4919 23.717 62.3501 23.0657C62.2082 22.3862 62.0097 21.7349 61.7544 21.112C61.4992 20.4607 61.1589 19.8661 60.7902 19.2998C60.4215 18.7335 59.9676 18.1955 59.4855 17.7142C58.975 17.2045 58.4644 16.7798 57.8972 16.4117C57.33 16.0436 56.7344 15.7038 56.0821 15.4489C55.4581 15.1941 54.8058 14.9959 54.1251 14.8543C53.4728 14.7127 52.7921 14.6561 52.083 14.6561H49.105V14.5995Z" fill="#ffffff"/>
</svg>
