<svg width="40" height="40" viewBox="0 0 40 40" fill="none" xmlns="http://www.w3.org/2000/svg">
<g clip-path="url(#clip0_65_1527)">
<path d="M20 40C31.0457 40 40 31.0457 40 20C40 8.95431 31.0457 0 20 0C8.95431 0 0 8.95431 0 20C0 31.0457 8.95431 40 20 40Z" fill="url(#paint0_radial_65_1527)"/>
<path d="M20 40C31.0457 40 40 31.0457 40 20C40 8.95431 31.0457 0 20 0C8.95431 0 0 8.95431 0 20C0 31.0457 8.95431 40 20 40Z" fill="url(#paint1_radial_65_1527)"/>
<path d="M19.9662 8.19995C16.7709 8.19995 16.3699 8.21392 15.115 8.27103C13.8625 8.32839 13.0075 8.52668 12.2595 8.81762C11.4856 9.11812 10.8292 9.5201 10.1753 10.1743C9.52085 10.8282 9.11887 11.4846 8.81738 12.2582C8.5257 13.0065 8.32716 13.8617 8.27079 15.1137C8.21466 16.3686 8.19995 16.7699 8.19995 19.9651C8.19995 23.1603 8.21417 23.5601 8.27103 24.815C8.32863 26.0675 8.52693 26.9224 8.81763 27.6705C9.11838 28.4443 9.52036 29.1007 10.1746 29.7546C10.8283 30.4091 11.4847 30.812 12.258 31.1125C13.0065 31.4035 13.8617 31.6018 15.114 31.6591C16.369 31.7162 16.7697 31.7302 19.9647 31.7302C23.1602 31.7302 23.56 31.7162 24.8149 31.6591C26.0674 31.6018 26.9234 31.4035 27.6719 31.1125C28.4455 30.812 29.1009 30.4091 29.7546 29.7546C30.4091 29.1007 30.811 28.4443 31.1125 27.6707C31.4018 26.9224 31.6003 26.0673 31.6591 24.8153C31.7155 23.5603 31.7302 23.1603 31.7302 19.9651C31.7302 16.7699 31.7155 16.3689 31.6591 15.1139C31.6003 13.8614 31.4018 13.0065 31.1125 12.2584C30.811 11.4846 30.4091 10.8282 29.7546 10.1743C29.1002 9.51985 28.4457 9.11788 27.6712 8.81762C26.9212 8.52668 26.0657 8.32839 24.8132 8.27103C23.5583 8.21392 23.1587 8.19995 19.9625 8.19995H19.9662ZM18.9107 10.3201C19.224 10.3196 19.5735 10.3201 19.9662 10.3201C23.1075 10.3201 23.4798 10.3314 24.7203 10.3878C25.8674 10.4402 26.49 10.6319 26.9047 10.7929C27.4538 11.0062 27.8452 11.2611 28.2568 11.6729C28.6685 12.0846 28.9235 12.4768 29.1372 13.0259C29.2982 13.4401 29.4902 14.0627 29.5424 15.2098C29.5987 16.45 29.611 16.8226 29.611 19.9624C29.611 23.1022 29.5987 23.4748 29.5424 24.715C29.4899 25.8621 29.2982 26.4847 29.1372 26.8989C28.9239 27.4479 28.6685 27.8389 28.2568 28.2504C27.845 28.6622 27.454 28.9171 26.9047 29.1304C26.4905 29.2921 25.8674 29.4833 24.7203 29.5358C23.4801 29.5921 23.1075 29.6044 19.9662 29.6044C16.8246 29.6044 16.4523 29.5921 15.212 29.5358C14.0649 29.4828 13.4424 29.2911 13.0274 29.1301C12.4783 28.9169 12.0862 28.662 11.6744 28.2502C11.2626 27.8384 11.0077 27.4472 10.7939 26.8979C10.6329 26.4837 10.441 25.8611 10.3888 24.714C10.3324 23.4738 10.3211 23.1012 10.3211 19.9594C10.3211 16.8177 10.3324 16.4471 10.3888 15.2068C10.4412 14.0597 10.6329 13.4371 10.7939 13.0224C11.0072 12.4734 11.2626 12.0812 11.6744 11.6694C12.0862 11.2577 12.4783 11.0027 13.0274 10.789C13.4421 10.6272 14.0649 10.4361 15.212 10.3834C16.2974 10.3343 16.718 10.3196 18.9107 10.3172V10.3201ZM26.2464 12.2736C25.4669 12.2736 24.8345 12.9053 24.8345 13.685C24.8345 14.4644 25.4669 15.0968 26.2464 15.0968C27.0258 15.0968 27.6582 14.4644 27.6582 13.685C27.6582 12.9055 27.0258 12.2731 26.2464 12.2731V12.2736ZM19.9662 13.9232C16.6295 13.9232 13.9242 16.6284 13.9242 19.9651C13.9242 23.3017 16.6295 26.0057 19.9662 26.0057C23.3029 26.0057 26.0071 23.3017 26.0071 19.9651C26.0071 16.6284 23.3026 13.9232 19.9659 13.9232H19.9662ZM19.9662 16.0434C22.132 16.0434 23.8879 17.7991 23.8879 19.9651C23.8879 22.1308 22.132 23.8868 19.9662 23.8868C17.8001 23.8868 16.0444 22.1308 16.0444 19.9651C16.0444 17.7991 17.8001 16.0434 19.9662 16.0434Z" fill="white"/>
</g>
<defs>
<radialGradient id="paint0_radial_65_1527" cx="0" cy="0" r="1" gradientUnits="userSpaceOnUse" gradientTransform="translate(10.6251 43.0808) rotate(-90) scale(39.643 36.8711)">
<stop stop-color="#FFDD55"/>
<stop offset="0.1" stop-color="#FFDD55"/>
<stop offset="0.5" stop-color="#FF543E"/>
<stop offset="1" stop-color="#C837AB"/>
</radialGradient>
<radialGradient id="paint1_radial_65_1527" cx="0" cy="0" r="1" gradientUnits="userSpaceOnUse" gradientTransform="translate(-6.70021 2.88153) rotate(78.6806) scale(17.7206 73.0449)">
<stop stop-color="#3771C8"/>
<stop offset="0.128" stop-color="#3771C8"/>
<stop offset="1" stop-color="#6600FF" stop-opacity="0"/>
</radialGradient>
<clipPath id="clip0_65_1527">
<rect width="40" height="40" fill="white"/>
</clipPath>
</defs>
</svg>
