<svg width="48" height="61" viewBox="0 0 48 61" fill="none" xmlns="http://www.w3.org/2000/svg">
<path fill-rule="evenodd" clip-rule="evenodd" d="M31.8548 4.21612C31.6582 6.06711 30.5345 7.52546 28.512 8.53509C25.7871 9.9093 22.5004 9.9093 19.7756 8.53509C16.4046 6.82433 16.2361 4.21612 16.4608 2.75777C16.517 2.78581 16.5731 2.81386 16.6293 2.8419C16.6855 2.86995 16.7136 2.89799 16.7698 2.89799C17.1631 3.09431 17.6125 3.26258 18.0339 3.40281C18.2586 3.48694 18.4553 3.54303 18.68 3.59912C18.9047 3.65522 19.1295 3.71131 19.3261 3.7674C19.8037 3.90762 20.2812 3.93567 20.7588 4.04785C21.8824 4.27221 23.0342 4.21612 24.1578 4.27221C24.6354 4.30026 25.141 4.27221 25.6186 4.24417C26.2366 4.21612 26.8546 4.16003 27.4726 4.04785C28.1468 3.96371 28.7929 3.82349 29.439 3.65522C29.7761 3.57108 30.0851 3.4589 30.4222 3.34672C30.8435 3.20649 31.2649 3.01017 31.6863 2.81386C31.7425 2.78581 31.7987 2.75777 31.8267 2.72972C31.8829 3.17845 31.911 3.65522 31.8548 4.21612ZM14.6629 4.38439C14.8315 6.09515 15.7304 8.45095 18.9609 10.1056C20.5902 10.9189 22.36 11.3116 24.1297 11.3116C25.8995 11.3116 27.6692 10.9189 29.2985 10.1056C32.529 8.479 33.428 6.09515 33.5965 4.38439C33.6527 3.82349 33.6527 3.31867 33.5965 2.86995L40.1699 5.64643C41.0688 6.01102 41.6868 6.79628 41.8273 7.74982C42.0801 9.32036 42.4734 11.8725 42.9228 15.0416C42.979 15.5184 43.4285 15.8549 43.9341 15.7988C44.4117 15.7427 44.7488 15.294 44.6926 14.7892C44.2431 11.6201 43.8498 9.06795 43.5689 7.46937C43.3161 5.92688 42.3048 4.6368 40.8441 4.0198L32.6976 0.570238C32.4167 0.458057 32.0796 0.486103 31.8267 0.654374C28.9895 2.67363 24.1859 2.50536 24.1297 2.50536C24.1016 2.50536 24.0735 2.50536 24.0454 2.50536C23.9893 2.50536 19.4946 2.67363 16.6293 0.850691C16.2922 0.626329 15.927 0.401967 15.5057 0.570238L7.35918 4.0198C5.89843 4.6368 4.88716 5.92688 4.63434 7.46937C3.34213 15.3781 -0.731117 42.4418 0.448719 59.0726C0.504902 59.8859 1.17909 60.5029 1.99374 60.5029H7.94911C8.48285 60.5029 8.98848 60.2225 9.2413 59.7738H38.9058C39.1867 60.2225 39.6642 60.5029 40.226 60.5029H46.1814C46.9961 60.5029 47.6703 59.8859 47.7264 59.0726C48.5411 47.7984 46.9118 31.6724 45.3949 20.1458C45.3387 19.6691 44.8892 19.3325 44.4117 19.3886C43.9341 19.4447 43.597 19.8934 43.6532 20.3702C45.142 31.7565 46.7432 47.6021 45.9848 58.7361H40.3946L39.6361 55.2585C40.1699 52.0894 38.372 40.0579 38.1473 38.6837C38.1473 38.6837 38.1473 38.6837 38.1473 38.6557C37.5574 35.2622 37.3607 30.6908 37.6136 25.4464C37.7821 21.4639 38.1473 18.4631 38.1473 18.4351C38.2035 17.9583 37.8664 17.5096 37.3888 17.4535C36.9113 17.3974 36.4618 17.7339 36.4056 18.2107C36.3494 18.7155 34.9449 30.4104 36.4056 38.9361C36.9394 42.4137 38.1754 51.5004 37.9507 54.5012H20.2812C19.8036 54.5012 19.4104 54.8939 19.4104 55.3706C19.4104 55.8474 19.8036 56.2401 20.2812 56.2401H38.0349L38.4001 57.9789H10.4492C10.393 57.2497 10.3369 56.6888 10.2526 56.2401H16.3203C16.7979 56.2401 17.1911 55.8474 17.1911 55.3706C17.1911 54.8939 16.7979 54.5012 16.3203 54.5012H10.2807C10.056 51.5285 11.292 42.4137 11.8257 38.9361C13.2865 30.4384 11.8819 18.7155 11.8257 18.2107C11.7695 17.7339 11.3201 17.3974 10.8425 17.4535C10.365 17.5096 10.0279 17.9583 10.084 18.4351C10.084 18.4631 10.4492 21.4359 10.6178 25.4183C10.7863 29.0642 10.8144 34.3367 10.084 38.6276C10.084 38.6276 10.084 38.6276 10.084 38.6557C9.88741 40.0299 8.08956 51.8369 8.59521 55.1463V55.1743L7.83674 58.708H2.27466C1.151 42.2455 5.16807 15.5184 6.46027 7.72178C6.60073 6.76824 7.24682 5.98297 8.11765 5.61838L14.691 2.8419C14.6068 3.31867 14.6067 3.85153 14.6629 4.38439Z" fill="#ffffff"/>
</svg>
