<svg width="60" height="61" viewBox="0 0 60 61" fill="none" xmlns="http://www.w3.org/2000/svg">
<path fill-rule="evenodd" clip-rule="evenodd" d="M12.753 49.3737H18.4516V47.4118H12.753C12.2477 47.4679 12.0231 47.7201 11.995 48.4208C12.0231 48.9533 12.1915 49.3737 12.753 49.3737ZM43.0991 0.243652H7.61574C3.79791 0.243652 0.709961 3.32654 0.709961 7.13811V9.82863C0.738033 10.3331 1.1872 10.5293 1.63636 10.5293C2.22588 10.5013 2.67502 10.3051 2.67502 9.82863V7.13811C2.67502 4.41956 4.89273 2.23352 7.61574 2.20549H24.3749V8.53942C24.3749 9.07192 24.8241 9.52034 25.3574 9.52034C25.4978 9.52034 25.6381 9.49231 25.7504 9.43626C26.2557 9.21205 26.7891 9.09995 27.3225 9.09995C29.5121 9.09995 31.2526 10.8656 31.2526 13.0236C31.2526 15.2097 29.4841 16.9473 27.3225 16.9473C26.7891 16.9473 26.2557 16.8352 25.7504 16.611C25.2451 16.3868 24.6837 16.611 24.4591 17.1154C24.403 17.2276 24.3749 17.3677 24.3749 17.5078V23.7577H19.378C19.4342 23.4494 19.4623 23.1691 19.4623 22.8608C19.4623 22.8328 19.4623 22.8328 19.4623 22.8048C19.4623 22.7768 19.4623 22.7768 19.4623 22.7768C19.4623 19.5257 16.8234 16.8632 13.539 16.8632C10.2826 16.8632 7.61574 19.4977 7.61574 22.7768V22.8048C7.61574 22.8048 7.61574 22.8328 7.61574 22.8608C7.61574 23.1691 7.64382 23.4774 7.69997 23.7577H2.67502V14.9294C2.64695 14.481 1.97323 14.3409 1.63636 14.3409C1.15913 14.3689 0.766106 14.537 0.709961 14.9294V42.4792C0.709961 46.2908 3.79791 49.3737 7.61574 49.3737C8.03682 49.3737 8.17718 49.0654 8.17718 48.3367C8.17718 47.8883 8.03682 47.4118 7.61574 47.3838C4.89273 47.3838 2.70309 45.1697 2.67502 42.4512V25.8316H9.01935C9.60887 25.7756 10.03 25.2711 10.0019 24.7106C10.0019 24.5985 9.97383 24.4864 9.91769 24.3742C9.04745 22.3844 9.94575 20.0582 11.9389 19.1894C13.932 18.3206 16.262 19.2174 17.1323 21.2073C17.5814 22.2162 17.5814 23.3653 17.1323 24.3742C16.8796 24.8787 17.1042 25.4953 17.6095 25.7475C17.7498 25.8036 17.8902 25.8316 18.0306 25.8596H24.3749V31.7732C24.0381 31.7171 23.7293 31.6891 23.3924 31.6891C20.136 31.6891 17.4691 34.3236 17.4691 37.6026C17.4691 39.9568 18.8727 42.0868 21.0343 43.0117L21.8203 41.218C19.8272 40.3492 18.9008 38.023 19.7711 36.0332C20.3886 34.6038 21.8203 33.679 23.3924 33.679C23.9258 33.679 24.4591 33.7911 24.9644 34.0153C25.4697 34.2395 26.0312 34.0153 26.2557 33.5108C26.3119 33.3987 26.34 33.2586 26.34 33.1184V25.8316H31.3649C31.3087 26.1679 31.2807 26.4762 31.2807 26.8125C31.2807 29.6152 33.2738 32.0254 36.0249 32.5859L36.4179 30.6521C34.5932 30.2598 33.2738 28.6623 33.2738 26.7845C33.2738 26.252 33.3861 25.7195 33.6107 25.215C33.8353 24.7106 33.6107 24.15 33.1054 23.9258C32.9931 23.8698 32.8527 23.8417 32.7124 23.8417H26.368V18.8531C26.7049 18.9091 27.0137 18.9372 27.3506 18.9372C30.607 18.9372 33.2738 16.3027 33.2738 13.0236C33.2738 9.77257 30.635 7.11008 27.3506 7.11008C27.0137 7.11008 26.6768 7.13811 26.368 7.19416V2.20549H43.1272C45.8502 2.20549 48.0398 4.41956 48.0679 7.13811V23.8698H41.6955C41.1621 23.8698 40.713 24.3182 40.713 24.8507C40.713 24.9908 40.7411 25.131 40.7972 25.2431C41.0218 25.7475 41.1341 26.28 41.1341 26.8125H43.0991C43.0991 26.4762 43.071 26.1399 43.0149 25.8316H49.0224C49.5558 25.8316 50.0049 25.3832 50.0049 24.8507V7.13811C50.0049 3.32654 46.917 0.243652 43.0991 0.243652Z" fill="#ffffff"/>
<path fill-rule="evenodd" clip-rule="evenodd" d="M50.6787 45.7024C50.9594 46.431 51.0436 47.1877 50.9594 47.9725L47.7592 44.7775C46.4398 43.4322 44.2782 43.4042 42.9027 44.7214C41.5552 46.0387 41.5271 48.1967 42.8465 49.57C42.8746 49.598 42.8746 49.598 42.9027 49.626L46.0187 52.7369L32.0948 57.9779L30.214 52.9612C30.1017 52.6529 29.821 52.4287 29.5122 52.3446C29.4279 52.3166 29.3718 52.3166 29.2876 52.3166C29.0349 52.3166 28.7823 52.4287 28.5858 52.5968C27.0137 54.0822 24.5153 54.0262 22.9994 52.4287C21.5116 50.8592 21.5677 48.3648 23.1678 46.8514C23.5328 46.4871 23.9819 46.2349 24.4591 46.0387C24.7679 45.9266 25.1048 45.8425 25.4417 45.8145C25.6382 45.7864 25.8628 45.7864 26.0593 45.7864C26.5927 45.8145 27.0699 45.3941 27.0979 44.8616C27.0979 44.7214 27.098 44.5813 27.0418 44.4692L24.4591 37.6028L29.1472 35.8371C29.7648 39.0321 32.8528 41.1341 36.0811 40.5175C36.4179 40.4614 36.7267 40.3774 37.0355 40.2372C40.0954 39.0882 41.6394 35.669 40.4884 32.6141C40.4042 32.3619 40.32 32.1937 40.2358 31.9975L44.7835 29.9796L50.6787 45.7024ZM57.7529 42.5634L49.4716 36.8741L46.2994 28.3821C46.1029 27.8777 45.5415 27.6254 45.0362 27.7936C45.0081 27.7936 45.0081 27.8216 44.98 27.8216L38.5795 30.6523C38.1023 30.8765 37.8777 31.409 38.0461 31.9134C38.1584 32.1937 38.2426 32.3899 38.3549 32.6141C38.4672 32.8383 38.5514 33.0345 38.6637 33.3428C39.4217 35.3887 38.4111 37.6588 36.3618 38.4436C34.3125 39.2003 32.0387 38.1633 31.2807 36.1454C31.0842 35.6409 31 35.0804 31.0281 34.5479C31.0561 34.0154 30.635 33.539 30.1017 33.5109C29.9613 33.5109 29.821 33.539 29.7087 33.567L22.859 36.1454C22.3537 36.3416 22.1011 36.9021 22.2695 37.4066L24.7399 43.9647C24.403 44.0208 24.0942 44.1049 23.7854 44.217C20.7255 45.366 19.1535 48.7572 20.3045 51.8401C21.4554 54.895 24.8522 56.4644 27.9401 55.3154C28.2489 55.2033 28.5577 55.0631 28.8384 54.895L30.607 59.6034C30.8035 60.1078 31.3649 60.3601 31.8702 60.1919L41.6394 56.5205C42.257 57.8377 43.3799 58.8467 44.7554 59.2951L45.373 57.4173C44.5589 57.1371 43.8852 56.5765 43.4922 55.8198L46.4678 54.6988C47.4504 57.4454 50.033 59.2671 52.9526 59.2671V57.3052C50.2295 57.2772 48.0399 55.0911 48.0118 52.3726C48.0118 52.1204 47.8995 51.8681 47.7311 51.6719L44.3063 48.2527C43.801 47.7483 43.7448 46.9355 44.1659 46.347C44.4186 46.0106 44.8116 45.7864 45.2326 45.7584C45.6537 45.7304 46.0748 45.8705 46.3555 46.1788L53.2333 53.0452L54.6369 51.6439L52.5876 49.598C53.0929 48.1126 53.0648 46.4871 52.5034 45.0017L50.6506 40.0691L56.602 44.1609C57.388 44.7214 57.8652 45.6183 57.8652 46.5712V59.2951H59.8303V46.5712C59.8583 44.9737 59.0723 43.4603 57.7529 42.5634Z" fill="#ffffff"/>
</svg>
