<svg width="88" height="88" viewBox="0 0 88 88" fill="none" xmlns="http://www.w3.org/2000/svg">
<path opacity="0.8" fill-rule="evenodd" clip-rule="evenodd" d="M49.535 25.5H52.25C52.94 25.5 53.5 26.06 53.5 26.75V31.75C53.5 32.44 52.94 33 52.25 33H39.75C39.06 33 38.5 32.44 38.5 31.75V26.75C38.5 26.06 39.06 25.5 39.75 25.5H42.4625C42.98 24.045 44.37 23 46 23C47.63 23 49.02 24.045 49.535 25.5ZM56 28H58.5C59.9025 28 61 29.0975 61 30.5V60.5C61 61.9025 59.9025 63 58.5 63H33.5C32.0975 63 31 61.9025 31 60.5V30.5C31 29.1225 32.1225 28 33.5 28H36V31.75C36 33.8175 37.6825 35.5 39.75 35.5H52.25C54.3175 35.5 56 33.8175 56 31.75V28ZM40.635 55.135L45.635 50.135C46.1225 49.645 46.12 48.855 45.6325 48.3675C45.145 47.88 44.3525 47.88 43.865 48.3675L39.75 52.4825L38.1325 50.8675C37.645 50.38 36.8525 50.38 36.365 50.8675C35.8775 51.355 35.8775 52.1475 36.365 52.635L38.865 55.135C39.11 55.3775 39.43 55.5 39.75 55.5C40.07 55.5 40.39 55.3775 40.635 55.135ZM40.635 45.135L45.635 40.135C46.1225 39.645 46.12 38.855 45.6325 38.3675C45.145 37.88 44.3525 37.88 43.865 38.3675L39.75 42.4825L38.1325 40.8675C37.645 40.38 36.8525 40.38 36.365 40.8675C35.8775 41.355 35.8775 42.1475 36.365 42.635L38.865 45.135C39.11 45.3775 39.43 45.5 39.75 45.5C40.07 45.5 40.39 45.3775 40.635 45.135ZM48.5 51.75C48.5 52.44 49.06 53 49.75 53H54.75C55.44 53 56 52.44 56 51.75C56 51.06 55.44 50.5 54.75 50.5H49.75C49.06 50.5 48.5 51.06 48.5 51.75ZM49.75 43H54.75C55.44 43 56 42.44 56 41.75C56 41.06 55.44 40.5 54.75 40.5H49.75C49.06 40.5 48.5 41.06 48.5 41.75C48.5 42.44 49.06 43 49.75 43Z" fill="#AD6646"/>
<g opacity="0.2">
<mask id="path-2-inside-1_308_170" fill="white">
<path fill-rule="evenodd" clip-rule="evenodd" d="M88 0H0V64.9687L23.0313 88H88V0Z"/>
</mask>
<path d="M0 0V-2H-2V0H0ZM88 0H90V-2H88V0ZM0 64.9687H-2V65.7971L-1.41421 66.3829L0 64.9687ZM23.0313 88L21.6171 89.4142L22.2028 90H23.0313V88ZM88 88V90H90V88H88ZM0 2H88V-2H0V2ZM2 64.9687V0H-2V64.9687H2ZM-1.41421 66.3829L21.6171 89.4142L24.4455 86.5858L1.41421 63.5545L-1.41421 66.3829ZM88 86H23.0313V90H88V86ZM86 0V88H90V0H86Z" fill="#AD6646" mask="url(#path-2-inside-1_308_170)"/>
</g>
</svg>
