<svg width="88" height="88" viewBox="0 0 88 88" fill="none" xmlns="http://www.w3.org/2000/svg">
<path opacity="0.8" fill-rule="evenodd" clip-rule="evenodd" d="M53.9167 22C54.6033 22 55.1667 22.5633 55.1667 23.25V39.0833C55.1667 39.7717 54.6033 40.3333 53.9167 40.3333H38.0833C37.395 40.3333 36.8333 39.7717 36.8333 39.0833V23.25C36.8333 22.5633 37.395 22 38.0833 22H44.3333V27C44.3333 27.92 45.08 28.6667 46 28.6667C46.92 28.6667 47.6667 27.92 47.6667 27V22H53.9167ZM44.3333 44.9167C44.3333 44.2283 43.77 43.6667 43.0833 43.6667H36.8333V48.6667C36.8333 49.5867 36.0867 50.3333 35.1667 50.3333C34.2467 50.3333 33.5 49.5867 33.5 48.6667V43.6667H27.25C26.5617 43.6667 26 44.2283 26 44.9167V60.75C26 61.4383 26.5617 62 27.25 62H43.0833C43.77 62 44.3333 61.4383 44.3333 60.75V44.9167ZM66 44.9167C66 44.2283 65.4367 43.6667 64.75 43.6667H58.5V48.6667C58.5 49.5867 57.7533 50.3333 56.8333 50.3333C55.9133 50.3333 55.1667 49.5867 55.1667 48.6667V43.6667H48.9167C48.2283 43.6667 47.6667 44.2283 47.6667 44.9167V60.75C47.6667 61.4383 48.2283 62 48.9167 62H64.75C65.4367 62 66 61.4383 66 60.75V44.9167Z" fill="#AD6646"/>
<mask id="path-2-inside-1_308_182" fill="white">
<path fill-rule="evenodd" clip-rule="evenodd" d="M88 0H0V64.9687L23.0313 88H88V0Z"/>
</mask>
<path d="M0 0V-2H-2V0H0ZM88 0H90V-2H88V0ZM0 64.9687H-2V65.7971L-1.41421 66.3829L0 64.9687ZM23.0313 88L21.6171 89.4142L22.2028 90H23.0313V88ZM88 88V90H90V88H88ZM0 2H88V-2H0V2ZM2 64.9687V0H-2V64.9687H2ZM-1.41421 66.3829L21.6171 89.4142L24.4455 86.5858L1.41421 63.5545L-1.41421 66.3829ZM88 86H23.0313V90H88V86ZM86 0V88H90V0H86Z" fill="#AD6646" fill-opacity="0.2" mask="url(#path-2-inside-1_308_182)"/>
</svg>
