<svg width="73" height="60" viewBox="0 0 73 60" fill="none" xmlns="http://www.w3.org/2000/svg">
<path fill-rule="evenodd" clip-rule="evenodd" d="M58.1678 41.4661C53.0559 40.4924 46.8678 39.8881 40.2761 39.7202C40.2425 39.7202 40.2424 39.7202 40.2088 39.7202C40.007 39.7202 39.7716 39.7202 39.5699 39.7202C39.5026 39.7202 39.469 39.7202 39.4017 39.7202C39.1999 39.7202 39.0317 39.7202 38.83 39.7202C38.7291 39.7202 38.6282 39.7202 38.5609 39.7202C38.3928 39.7202 38.2582 39.7202 38.0901 39.7202C37.9556 39.7202 37.821 39.7202 37.6865 39.7202C37.6192 39.7202 37.552 39.7202 37.4847 39.7202C37.4511 39.7202 37.4175 39.7202 37.3838 39.7202C37.3502 39.7202 37.3502 39.7202 37.3166 39.7202C37.0475 39.7202 36.8121 39.7202 36.5431 39.7202C36.274 39.7202 36.005 39.7202 35.7695 39.7202C35.6686 39.7202 35.5677 39.7202 35.4669 39.7202C35.2987 39.7202 35.1642 39.7202 34.996 39.7202C34.8615 39.7202 34.727 39.7202 34.5925 39.7202C34.4579 39.7202 34.357 39.7202 34.2225 39.7202C34.0544 39.7202 33.8862 39.7202 33.7517 39.7202C33.6508 39.7202 33.5835 39.7202 33.4826 39.7202C33.3145 39.7202 33.1127 39.7202 32.9445 39.7202C32.8773 39.7202 32.8436 39.7202 32.7764 39.7202C32.5746 39.7202 32.3392 39.7202 32.1374 39.7538H32.1038C25.7475 39.9552 19.8285 40.526 14.9183 41.4997V38.5115C14.9183 20.9849 24.5368 6.71516 36.4085 6.58086C36.5094 6.58086 36.5767 6.58086 36.6776 6.58086C48.5493 6.68159 58.1678 20.9513 58.1678 38.4779V41.4661ZM12.5978 38.5115V41.9698C12.2279 42.0705 11.8579 42.1377 11.488 42.2384H11.4543C11.2525 42.3055 11.0508 42.3391 10.849 42.4063C10.8154 42.4063 10.7817 42.4398 10.7481 42.4398C10.5799 42.4734 10.4118 42.5406 10.2436 42.5742C10.21 42.5742 10.1764 42.6077 10.1091 42.6077C9.94094 42.6413 9.80645 42.7085 9.63829 42.742C9.60466 42.742 9.53739 42.7756 9.50376 42.7756C9.36924 42.8092 9.20107 42.8763 9.06654 42.9099C9.03291 42.9099 8.96564 42.9435 8.93201 42.9435C8.79749 42.9771 8.66298 43.0442 8.52845 43.0778C8.49482 43.0778 8.42755 43.1114 8.39392 43.1114C8.2594 43.1449 8.12489 43.2121 7.99037 43.2457C7.95674 43.2457 7.92309 43.2792 7.88946 43.2792C7.75493 43.3464 7.62043 43.38 7.4859 43.4471C7.45227 43.4471 7.41862 43.4807 7.41862 43.4807C6.91415 43.6822 6.47695 43.8836 6.07338 44.0851C6.07338 44.0851 6.03975 44.0851 6.03975 44.1186C5.90523 44.1858 5.80435 44.2529 5.66982 44.2865C5.63619 44.2865 5.60254 44.3201 5.56891 44.3201C5.46802 44.3872 5.36715 44.4208 5.29989 44.488C5.26626 44.5215 5.23261 44.5215 5.19898 44.5551C5.13172 44.5887 5.03084 44.6559 4.96358 44.6894C4.92995 44.723 4.89631 44.723 4.82905 44.7566C4.76179 44.7902 4.69453 44.8573 4.62727 44.8909C4.59364 44.8909 4.59361 44.9245 4.55998 44.9245V38.4779C4.55998 38.2429 4.55998 37.9743 4.55998 37.7392V37.5714C4.55998 37.3363 4.56002 37.1013 4.59365 36.8327C4.59365 36.8327 4.59365 36.8327 4.59365 36.7991C4.59365 36.5641 4.62727 36.329 4.62727 36.094V35.9261C4.6609 35.6911 4.66088 35.4561 4.69452 35.221V35.1539C4.72815 34.9189 4.72817 34.7174 4.7618 34.4824L4.79542 34.2809C4.82906 34.0459 4.86266 33.8109 4.89629 33.5758V33.4751C4.92992 33.2736 4.96357 33.0722 4.9972 32.8372L5.03082 32.6357C5.06446 32.4007 5.09809 32.1992 5.16536 31.9642L5.19898 31.8635C5.23261 31.662 5.26625 31.4605 5.33351 31.2927L5.36713 31.0912C5.4344 30.8898 5.46803 30.6547 5.53529 30.4533L5.56891 30.319C5.60254 30.1511 5.66981 29.9496 5.70344 29.7818V29.7482C5.73708 29.681 5.7371 29.6139 5.77073 29.5467C5.83799 29.3453 5.90525 29.1438 5.97251 28.9088L6.03975 28.7409C6.10702 28.573 6.14065 28.4052 6.20791 28.2373C6.24154 28.1701 6.24156 28.103 6.2752 28.0358C6.34246 27.8344 6.40971 27.6329 6.47697 27.4314L6.54422 27.2636C6.61148 27.0957 6.64511 26.9614 6.71237 26.7935C6.746 26.7264 6.77965 26.6592 6.81328 26.5585C6.88054 26.357 6.98142 26.1891 7.04868 25.9877L7.14959 25.7862C7.21685 25.6519 7.28412 25.5176 7.31775 25.3497V25.3162C7.35138 25.249 7.38498 25.1819 7.41862 25.1147C7.48588 24.9468 7.58679 24.7454 7.68768 24.5775L7.78859 24.3425C7.85585 24.2082 7.9231 24.0739 7.99037 23.9731L8.02399 23.9396C8.05762 23.8724 8.09127 23.8053 8.1249 23.7381C8.22579 23.5702 8.29303 23.4024 8.39392 23.2009C8.42755 23.1337 8.4612 23.0666 8.49483 23.033L8.52845 22.9659C8.59572 22.8316 8.66297 22.7308 8.73023 22.5965L8.76385 22.5294C8.79749 22.4622 8.83113 22.3951 8.86476 22.3279C8.86476 22.3279 8.86476 22.2943 8.89839 22.2943C9.80642 20.7499 10.8153 19.2725 11.9588 17.8959L12.0261 17.8288C12.1942 17.6273 12.3624 17.4259 12.5305 17.258L12.6314 17.1237C12.7996 16.9558 12.9341 16.7879 13.1023 16.62L13.2032 16.4857C13.3713 16.3179 13.5395 16.15 13.7076 15.9821L13.8085 15.8814C14.0103 15.6799 14.2121 15.4785 14.3803 15.3106L14.4139 15.277C15.0529 14.6726 15.6919 14.1018 16.3645 13.5311L16.4317 13.4639C16.6335 13.296 16.8353 13.1617 17.0034 12.9938L17.1044 12.8931C17.3061 12.7588 17.4743 12.5909 17.6761 12.4566L17.8106 12.3559C18.0124 12.2216 18.2142 12.0537 18.4496 11.9194L18.5168 11.8858C19.2567 11.3822 19.9966 10.9121 20.7701 10.4757L20.8374 10.4421C21.0728 10.3078 21.3082 10.1735 21.51 10.0727L21.6445 10.0056C21.8463 9.90487 22.0817 9.77057 22.2835 9.66984L22.4181 9.60269C22.6198 9.50196 22.8552 9.40123 23.057 9.3005L23.1915 9.23335C23.427 9.13262 23.696 8.99832 23.9315 8.89759H23.9651C24.1332 8.83044 24.3014 8.76329 24.4695 8.69614C22.6535 10.2071 20.9719 12.0537 19.4921 14.2361C15.0529 20.9177 12.5978 29.446 12.5978 38.5115ZM35.1305 2.18243H37.8883C38.3928 2.18243 38.83 2.58534 38.83 3.12255V4.39843C38.7291 4.39843 38.6282 4.39843 38.5273 4.36486C38.4936 4.36486 38.46 4.36486 38.4264 4.36486C38.4264 4.36486 38.4264 4.36486 38.3928 4.36486C38.0901 4.36486 37.7874 4.33128 37.5183 4.33128H37.4847C37.3838 4.33128 37.2829 4.33128 37.182 4.33128C37.1148 4.33128 37.0811 4.33128 37.0139 4.33128C36.8457 4.33128 36.6776 4.33128 36.5094 4.33128C36.3413 4.33128 36.1731 4.33128 36.0049 4.33128C35.9377 4.33128 35.8704 4.33128 35.8368 4.33128C35.7359 4.33128 35.635 4.33128 35.5678 4.33128H35.5341C35.2315 4.33128 34.9288 4.36486 34.6261 4.36486C34.4916 4.36486 34.357 4.36486 34.2561 4.39843V3.12255C34.1889 2.61891 34.6261 2.18243 35.1305 2.18243ZM72.4609 57.1125L70.7458 48.1813V38.4779C70.7458 38.2093 70.7458 37.9407 70.7458 37.7057V37.5042C70.7458 37.2356 70.7458 37.0006 70.7121 36.732V36.6984C70.7121 36.4633 70.6785 36.1947 70.6785 35.9597V35.7583C70.6449 35.4897 70.6449 35.2546 70.6112 34.986V34.9189C70.5776 34.6838 70.544 34.4488 70.544 34.2138L70.5104 34.0123C70.4767 33.7773 70.4431 33.5087 70.4094 33.2736V33.1729C70.3758 32.9379 70.3422 32.7364 70.3085 32.5014L70.2749 32.2999C70.2413 32.0649 70.174 31.8299 70.1404 31.5949L70.1068 31.4605C70.0731 31.2591 70.0059 31.0576 69.9722 30.8562C69.9722 30.789 69.9386 30.7219 69.9386 30.6547C69.8713 30.4197 69.8377 30.1847 69.7704 29.9496L69.7368 29.8153C69.6696 29.6139 69.6359 29.446 69.5687 29.2445L69.5014 29.0095C69.4342 28.7745 69.3669 28.573 69.2996 28.338C69.2996 28.3044 69.266 28.2708 69.266 28.2373L69.2324 28.1701C69.1651 28.0022 69.1315 27.8008 69.0642 27.6329C69.0306 27.5658 69.0306 27.4986 68.997 27.4314C68.9297 27.23 68.8624 26.995 68.7615 26.7935C68.7615 26.7599 68.7279 26.6928 68.7279 26.6592L68.6943 26.5921C68.627 26.4242 68.5598 26.2563 68.4925 26.0884C68.4589 26.0213 68.4252 25.9205 68.3916 25.8534C68.3243 25.6519 68.2234 25.4505 68.1225 25.249L68.0217 25.0476C67.9544 24.9133 67.8871 24.7454 67.8199 24.6111V24.5775C67.7862 24.5104 67.7526 24.4432 67.719 24.3761C67.6181 24.1746 67.5508 23.9731 67.4499 23.7717L67.349 23.5367C67.2818 23.4024 67.2145 23.268 67.1473 23.1337L67.1136 23.1002C67.08 23.033 67.0464 22.9659 67.0127 22.8987C66.9118 22.6973 66.8109 22.5294 66.71 22.3279C66.6764 22.2608 66.6428 22.1936 66.6091 22.1265L66.5755 22.0593C66.5082 21.925 66.441 21.8243 66.3737 21.69L66.3401 21.6228C66.3065 21.5557 66.2728 21.4885 66.2056 21.4214L66.172 21.3878C66.172 21.3878 66.172 21.3542 66.1383 21.3542C65.1967 19.709 64.0868 18.1309 62.8761 16.6872L62.8089 16.62C62.6407 16.4186 62.4726 16.2171 62.2708 16.0157L62.1699 15.8814C62.0017 15.6799 61.8335 15.512 61.6654 15.3106L61.5309 15.1763C61.3627 14.9748 61.1946 14.8069 60.9928 14.6391C60.5556 14.2026 59.8493 14.169 59.3785 14.6055C58.9413 15.042 58.9076 15.7471 59.3448 16.2171C59.513 16.385 59.6812 16.5529 59.8493 16.7208L59.9502 16.8551C60.1184 17.0229 60.2529 17.1908 60.4211 17.3587L60.5219 17.493C60.6901 17.6945 60.8582 17.8623 61.0264 18.0638L61.0937 18.1309C62.2371 19.5076 63.2797 20.9849 64.1541 22.5294C64.1541 22.5294 64.1541 22.563 64.1877 22.563V22.5965C64.2213 22.6637 64.255 22.7308 64.2886 22.798L64.3222 22.8651C64.3895 22.9994 64.4568 23.1002 64.524 23.2345L64.5576 23.3016C64.5913 23.3688 64.6249 23.4359 64.6586 23.4695C64.7595 23.6374 64.8603 23.8053 64.9276 24.0067C64.9612 24.0739 64.9949 24.141 65.0285 24.2082L65.0621 24.2417C65.1294 24.376 65.1966 24.5104 65.2639 24.6111L65.3648 24.8461C65.4657 25.014 65.533 25.2154 65.6339 25.3833C65.6675 25.4505 65.7011 25.5176 65.7347 25.5848V25.6184C65.802 25.7527 65.8693 25.887 65.9029 26.0548L66.0038 26.2563C66.0711 26.4578 66.1719 26.6256 66.2392 26.8271C66.2728 26.8942 66.3065 26.9614 66.3401 27.0621C66.4074 27.23 66.4746 27.3643 66.5083 27.5322L66.5755 27.7001C66.6428 27.9015 66.71 28.103 66.7773 28.3044C66.8109 28.3716 66.8109 28.4387 66.8446 28.5059C66.9118 28.6738 66.9455 28.8416 67.0127 29.0095L67.08 29.1774C67.1472 29.3788 67.2145 29.5803 67.2817 29.8153L67.349 30.0168C67.3827 30.1847 67.4499 30.3861 67.4836 30.554L67.5172 30.6883C67.5844 30.8898 67.6181 31.1248 67.6853 31.3262C67.6853 31.3934 67.719 31.4605 67.719 31.5277C67.7526 31.7292 67.8199 31.897 67.8535 32.0985L67.8871 32.1992C67.9208 32.4342 67.988 32.6357 68.0217 32.8707L68.0553 33.0722C68.0889 33.2736 68.1226 33.4751 68.1562 33.6766V33.7437C68.1898 33.9787 68.2234 34.2138 68.2571 34.4488L68.2907 34.6167C68.3243 34.8517 68.358 35.0532 68.358 35.2882V35.3553C68.3916 35.5904 68.3916 35.8254 68.4252 36.0604V36.2283C68.4588 36.4634 68.4588 36.6984 68.4588 36.9334C68.4588 36.9334 68.4588 36.9334 68.4588 36.967C68.4588 37.202 68.4925 37.437 68.4925 37.7057V37.8735C68.4925 38.1086 68.4925 38.3772 68.4925 38.6122V45.0588C68.4589 45.0588 68.4588 45.0252 68.4252 45.0252C68.3579 44.9916 68.2907 44.9245 68.2234 44.8909C68.1898 44.8573 68.1562 44.8573 68.0889 44.8237C68.0216 44.7902 67.9208 44.723 67.8535 44.6894C67.8199 44.6559 67.7862 44.6559 67.7526 44.6223C67.6517 44.5551 67.5508 44.5215 67.4836 44.4544C67.4499 44.4544 67.4163 44.4208 67.3827 44.4208C67.2818 44.3537 67.1472 44.2865 67.0127 44.2529C67.0127 44.2529 66.9791 44.2529 66.9791 44.2194C66.7101 44.0851 66.4073 43.9508 66.071 43.8165C65.9029 43.7493 65.7684 43.6822 65.6002 43.615C65.5666 43.615 65.533 43.5814 65.533 43.5814C65.3984 43.5143 65.2639 43.4807 65.1294 43.4135C65.0958 43.4135 65.0621 43.38 65.0285 43.38C64.894 43.3464 64.7595 43.2792 64.6249 43.2457C64.5913 43.2457 64.524 43.2121 64.4904 43.2121C64.3559 43.1785 64.2213 43.1114 64.0868 43.0778C64.0532 43.0778 63.9859 43.0442 63.9523 43.0442C63.8178 43.0106 63.6833 42.9435 63.5151 42.9099C63.4815 42.9099 63.4142 42.8763 63.3806 42.8763C63.246 42.8428 63.0779 42.7756 62.9097 42.742C62.8761 42.742 62.8425 42.7085 62.7752 42.7085C62.6071 42.6749 62.4389 42.6077 62.2708 42.5742C62.2371 42.5742 62.2035 42.5406 62.1699 42.5406C61.9681 42.4734 61.7663 42.4398 61.5645 42.3727H61.5309C61.1609 42.272 60.791 42.2048 60.4211 42.1041V38.6458C60.4211 29.5803 57.966 21.052 53.5603 14.6391C52.0469 12.4566 50.3654 10.61 48.5829 9.09905C48.7511 9.1662 48.9192 9.23335 49.0874 9.3005C49.0874 9.3005 49.0874 9.3005 49.121 9.3005H49.1547C49.3901 9.40123 49.6591 9.50196 49.8946 9.63626L50.0291 9.70341C50.2309 9.80414 50.4663 9.90487 50.6681 10.0056L50.8362 10.0727C51.038 10.1735 51.2734 10.2742 51.4752 10.4085L51.6097 10.4757C51.8451 10.61 52.0806 10.7107 52.2823 10.845L52.3496 10.8786C53.0895 11.3151 53.863 11.7851 54.5693 12.2552L54.6365 12.2888C54.8383 12.4231 55.0737 12.5909 55.2755 12.7252L55.3764 12.7924C55.5782 12.9267 55.78 13.0946 55.9481 13.2289L56.049 13.3296C56.2508 13.4975 56.4526 13.6318 56.6207 13.7997L56.688 13.8668C57.1588 14.2697 57.8987 14.2026 58.3023 13.6989C58.7059 13.2289 58.6386 12.4902 58.1341 12.0873L58.0332 12.0201C57.8314 11.8523 57.6297 11.6844 57.3943 11.5165L57.2597 11.4158C57.058 11.2479 56.8562 11.1136 56.6207 10.9457L56.4862 10.845C56.2508 10.6771 56.049 10.5428 55.8136 10.3749L55.7463 10.3078C54.9728 9.77057 54.1657 9.26693 53.3586 8.83044L53.2913 8.79687C53.0559 8.66256 52.7868 8.52826 52.5514 8.39396L52.4169 8.32681C52.1815 8.1925 51.9797 8.09177 51.7443 7.99105L51.5761 7.92389C51.3407 7.82317 51.1053 7.68886 50.8699 7.58814L50.7353 7.52098C50.4663 7.38668 50.1972 7.28595 49.9282 7.15165L49.8946 7.11808C49.3228 6.88304 48.7174 6.64801 48.1121 6.41298L48.0448 6.37941C47.7758 6.27868 47.5067 6.17795 47.2377 6.1108L47.0695 6.04365C46.8341 5.9765 46.5987 5.90935 46.3633 5.80862C46.296 5.77504 46.1952 5.77504 46.1279 5.74147C45.8925 5.67431 45.6907 5.60716 45.4553 5.54001L45.2198 5.47286C44.9844 5.40571 44.749 5.33856 44.5136 5.30498H44.4464C44.4127 5.30498 44.3454 5.27141 44.3118 5.27141C44.0091 5.20425 43.7065 5.1371 43.4374 5.06995H43.4038C43.0674 5.0028 42.7648 4.93565 42.4285 4.90207H42.3948C42.3948 4.90207 42.3948 4.90207 42.3612 4.90207C42.0922 4.86849 41.7895 4.80134 41.4868 4.76777C41.4195 4.76777 41.3859 4.76777 41.3187 4.73419H41.2177C41.1505 4.73419 41.0496 4.70062 40.9823 4.70062V3.1897C40.9823 1.41018 39.5362 0 37.7874 0H35.0297C33.2472 0 31.8347 1.44376 31.8347 3.1897V4.70062C31.7675 4.70062 31.6666 4.73419 31.5993 4.73419H31.4984C31.4312 4.73419 31.3975 4.73419 31.3303 4.76777C31.0276 4.80134 30.7585 4.86849 30.4558 4.90207H30.4222C30.1195 4.96922 29.7832 5.03637 29.4806 5.06995H29.4469C29.1779 5.1371 28.8752 5.20425 28.5725 5.27141C28.5389 5.27141 28.4716 5.30498 28.438 5.30498H28.3707C28.1353 5.37213 27.8999 5.40571 27.6645 5.47286L27.429 5.54001C27.1936 5.60716 26.9918 5.67431 26.7564 5.74147C26.6892 5.77504 26.5883 5.77504 26.521 5.80862C26.2856 5.87577 26.0502 5.94292 25.8148 6.04365L25.6466 6.1108C25.3776 6.21153 25.1085 6.27868 24.8395 6.37941H24.8059C24.2005 6.58086 23.5951 6.81589 23.0234 7.0845L22.9898 7.11808C22.7207 7.2188 22.4517 7.35311 22.1826 7.45383L22.0481 7.52098C21.8127 7.62171 21.5773 7.75602 21.3418 7.85674L21.1737 7.92389C20.9383 8.02462 20.7029 8.15893 20.5011 8.25965L20.3665 8.32681C20.1311 8.46111 19.8621 8.59541 19.6267 8.72972L19.5594 8.76329C18.7523 9.23335 17.9451 9.73699 17.1716 10.2406L17.1044 10.2742C16.8689 10.4421 16.6335 10.5764 16.4317 10.7443L16.2972 10.845C16.0954 11.0129 15.8937 11.1472 15.6919 11.3151L15.5573 11.4158C15.3555 11.5837 15.1201 11.7515 14.9183 11.9194L14.8174 11.9866C14.0775 12.5909 13.3713 13.1953 12.6987 13.8332C12.4969 14.0347 12.2951 14.2362 12.0597 14.4376L11.9588 14.5383C11.7906 14.7062 11.5889 14.9077 11.4207 15.0755L11.2862 15.2098C11.118 15.3777 10.9499 15.5792 10.7817 15.7806L10.6808 15.9149C10.5127 16.1164 10.3109 16.3179 10.1428 16.5529L10.0755 16.62C8.86476 18.0638 7.75495 19.6419 6.81328 21.2871C6.81328 21.2871 6.81329 21.3206 6.77966 21.3206L6.746 21.3542C6.71237 21.4214 6.67877 21.4885 6.61151 21.5557L6.57784 21.6228C6.51058 21.7571 6.44333 21.8579 6.37606 21.9922L6.34244 22.0593C6.30881 22.1265 6.27516 22.1936 6.24153 22.2608C6.14064 22.4622 6.03978 22.6301 5.93889 22.8316C5.90525 22.8987 5.87161 22.9659 5.83798 23.033L5.80435 23.0666C5.73709 23.2009 5.66984 23.3352 5.60258 23.4695L5.50167 23.7045C5.40077 23.906 5.3335 24.1074 5.2326 24.2753C5.19897 24.3425 5.16537 24.4096 5.13173 24.4768V24.5104C5.06447 24.6447 4.99722 24.8125 4.92996 24.9468L4.9972 25.1147C4.96357 25.1483 4.96359 25.2154 4.92996 25.249C4.82906 25.4505 4.76178 25.6519 4.69452 25.8534C4.66088 25.9205 4.62728 26.0213 4.59365 26.0884C4.52638 26.2563 4.45909 26.4242 4.39183 26.5921L4.35821 26.6592C4.35821 26.6928 4.32458 26.7599 4.32458 26.7935C4.25732 26.995 4.15644 27.23 4.08918 27.4314C4.05555 27.4986 4.05553 27.5658 4.0219 27.6665C3.95463 27.8344 3.921 28.0358 3.85374 28.2037L3.82012 28.2708C3.82012 28.3044 3.7865 28.338 3.7865 28.3716C3.71923 28.6066 3.65198 28.8081 3.58472 29.0431C3.55109 29.1102 3.55106 29.1774 3.51743 29.2445V29.2781C3.45017 29.4796 3.41654 29.6475 3.34928 29.8489L3.31565 29.9832C3.24839 30.2182 3.21476 30.4533 3.1475 30.6883C3.1475 30.7555 3.11388 30.8226 3.11388 30.8898C3.08024 31.0912 3.01297 31.2927 2.97934 31.5277L2.94572 31.6284C2.91209 31.8635 2.84482 32.0985 2.81119 32.3335L2.77757 32.535C2.74394 32.77 2.71029 32.9715 2.67666 33.2065V33.3072C2.64303 33.5423 2.60942 33.8109 2.57579 34.0459L2.54212 34.2473C2.50849 34.4824 2.47488 34.7174 2.47488 34.9524V35.0196C2.44125 35.2882 2.44126 35.5232 2.40763 35.7918V35.9933C2.374 36.2283 2.37397 36.4969 2.37397 36.732V36.7655C2.37397 37.0341 2.34035 37.2692 2.34035 37.5378V37.7392C2.34035 38.0078 2.34035 38.2764 2.34035 38.5115V48.2149L0.625175 57.1461C0.625175 57.2132 0.591553 57.2804 0.591553 57.3475C0.591553 57.4482 0.591545 57.549 0.625175 57.6497C0.625175 57.6833 0.625175 57.7169 0.625175 57.7169C0.625175 57.784 0.658798 57.8847 0.658798 57.9519C0.658798 57.9855 0.65879 57.9855 0.692421 58.019C0.726052 58.1198 0.759699 58.2205 0.79333 58.2876C0.79333 58.3212 0.826953 58.3212 0.826953 58.3548C0.860584 58.4219 0.894223 58.4891 0.961485 58.5562C0.961485 58.5898 0.995108 58.5898 0.995108 58.6234C1.06237 58.6905 1.12962 58.7913 1.19689 58.8584C1.19689 58.892 1.23054 58.892 1.26417 58.9256C1.33143 58.9927 1.36507 59.0263 1.43233 59.0935C1.46596 59.0935 1.46594 59.127 1.49957 59.127C1.56683 59.1942 1.66775 59.2278 1.73501 59.2949C1.73501 59.2949 1.76864 59.2949 1.76864 59.3285C1.8359 59.3621 1.90315 59.3956 1.97041 59.4292L2.03766 59.4628C2.20581 59.5299 2.374 59.5971 2.57579 59.6642H2.60941H2.64303C2.7103 59.6978 2.81117 59.6978 2.87843 59.7314H2.9121C3.01299 59.765 3.08023 59.765 3.18112 59.7985H3.24841C3.31567 59.7985 3.41655 59.8321 3.48381 59.8321H3.55105C3.65195 59.8321 3.75285 59.8657 3.85374 59.8657H3.92103C4.02192 59.8657 4.08916 59.8657 4.19005 59.8993H4.29096C4.39185 59.8993 4.49275 59.8993 4.62727 59.8993H4.66089C4.76179 59.8993 4.86269 59.8993 4.96358 59.8993H5.06445C5.16534 59.8993 5.29986 59.8993 5.40076 59.8993C5.40076 59.8993 5.40079 59.8993 5.43442 59.8993C5.53531 59.8993 5.66984 59.8993 5.77073 59.8993H5.8716C5.97249 59.8993 6.07339 59.8993 6.17429 59.8993H6.24153C6.37606 59.8993 6.47698 59.8993 6.61151 59.8657C6.61151 59.8657 6.6115 59.8657 6.64513 59.8657H6.77966C6.84692 59.8657 6.94779 59.8657 7.04868 59.8321H7.21684C7.35136 59.8321 7.45225 59.7985 7.58677 59.7985L8.19214 59.7314C8.32667 59.7314 8.42755 59.6978 8.56208 59.6978L9.43647 59.5971C9.60463 59.5635 9.77282 59.5635 9.9746 59.5299L10.4791 59.4628C11.7907 59.2949 13.2032 59.0935 14.6829 58.8584C15.6582 58.7241 16.6672 58.5562 17.7097 58.4219C18.3487 58.3212 18.7523 57.7504 18.685 57.1461C18.5841 56.5081 18.0124 56.1052 17.407 56.1724C16.3645 56.3067 15.3219 56.4745 14.3466 56.6088C12.8669 56.8439 11.4544 57.0453 10.1428 57.2132L9.63829 57.2804C9.47014 57.3139 9.30198 57.3139 9.13383 57.3475L8.29305 57.4482C8.19216 57.4482 8.05764 57.4818 7.95674 57.4818L7.38499 57.549C7.25047 57.549 7.14958 57.5825 7.01506 57.5825H6.84691C6.77964 57.5825 6.67877 57.5825 6.61151 57.6161H6.47697C6.37608 57.6161 6.24156 57.6161 6.14066 57.6497H6.07338C5.97248 57.6497 5.90525 57.6497 5.80435 57.6497H5.70344C5.60255 57.6497 5.50165 57.6497 5.40076 57.6497C5.40076 57.6497 5.40077 57.6497 5.36713 57.6497C5.26624 57.6497 5.16534 57.6497 5.06445 57.6497H4.9972C4.92994 57.6497 4.82906 57.6497 4.7618 57.6497H4.72814C4.62724 57.6497 4.56001 57.6497 4.45911 57.6497H4.39183C4.32457 57.6497 4.25731 57.6497 4.19005 57.6497H4.1228C4.05554 57.6497 3.98826 57.6497 3.88736 57.6161H3.85374C3.78648 57.6161 3.75285 57.6161 3.68559 57.5825H3.65196C3.5847 57.5825 3.51744 57.549 3.48381 57.549C3.45018 57.549 3.38291 57.5154 3.34928 57.5154H3.31565C3.24839 57.4818 3.18114 57.4482 3.11388 57.4482H3.08025C3.04662 57.4482 3.0466 57.4147 3.01297 57.4147L4.69452 48.5842V48.5506C4.69452 48.5171 4.69452 48.5171 4.69452 48.4835C4.69452 48.4499 4.69452 48.4163 4.69452 48.3828C4.69452 47.577 6.54424 45.7639 13.5059 44.1858C14.044 44.0515 14.582 43.9508 15.1201 43.85C20.2993 42.8428 26.6892 42.2048 33.5163 42.0705C33.5499 42.0705 33.5835 42.0705 33.6172 42.0705C33.8526 42.0705 34.0544 42.0705 34.2898 42.0705C34.357 42.0705 34.458 42.0705 34.5252 42.0705C34.6934 42.0705 34.8951 42.0705 35.0633 42.0705C35.1978 42.0705 35.3323 42.0705 35.4669 42.0705C35.6014 42.0705 35.7023 42.0705 35.8368 42.0705C35.9713 42.0705 36.1395 42.0705 36.274 42.0705C36.4085 42.0705 36.5094 42.0705 36.6439 42.0705C36.913 42.0705 37.182 42.0705 37.4511 42.0705C37.6529 42.0705 37.8546 42.0705 38.0228 42.0705C38.0901 42.0705 38.1574 42.0705 38.2246 42.0705C38.46 42.0705 38.7291 42.0705 38.9645 42.0705H38.9981C46.5651 42.2048 53.6612 42.9099 59.1767 44.0851C59.3785 44.1186 59.5803 44.1858 59.7821 44.2194C66.7437 45.7974 68.5934 47.6105 68.5934 48.4163C68.5934 48.4499 68.5934 48.4835 68.5934 48.5171C68.5934 48.5506 68.5934 48.5506 68.5934 48.5842V48.6178L70.2749 57.4482C70.2749 57.4482 70.2413 57.4818 70.2077 57.4818H70.174C70.1068 57.5154 70.0395 57.549 69.9722 57.549H69.9386C69.905 57.549 69.8377 57.5825 69.8041 57.5825C69.8041 57.5825 69.8041 57.5825 69.7704 57.5825C69.7032 57.5825 69.6696 57.6161 69.6023 57.6161H69.5687C69.5014 57.6161 69.4678 57.6497 69.4005 57.6497H69.3669C69.2996 57.6497 69.2323 57.6497 69.1315 57.6833C69.1315 57.6833 69.1315 57.6833 69.0978 57.6833H69.0642C68.9969 57.6833 68.9297 57.6833 68.8624 57.6833H68.8288C68.7279 57.6833 68.6606 57.6833 68.5597 57.6833H68.4925C68.4252 57.6833 68.3243 57.6833 68.2571 57.6833H68.1562C68.0553 57.6833 67.9544 57.6833 67.8535 57.6833H67.8199C67.719 57.6833 67.6181 57.6833 67.5172 57.6833H67.4163C67.3154 57.6833 67.2481 57.6833 67.1473 57.6833H67.0463C66.9455 57.6833 66.8109 57.6833 66.6764 57.6497H66.5419C66.4746 57.6497 66.3737 57.6497 66.3065 57.6161H66.172C66.0374 57.6161 65.9365 57.5825 65.802 57.5825L65.2303 57.5154C65.1294 57.5154 64.9949 57.4818 64.894 57.4818L64.0532 57.3811C63.885 57.3475 63.7169 57.3475 63.5487 57.3139L63.0443 57.2468C61.7663 57.0789 60.3538 56.8774 58.8404 56.6424C56.957 56.3738 54.8047 56.0381 52.585 55.7695L48.3812 55.2658H48.2802C47.9103 55.2322 47.5068 55.1987 47.1368 55.1651L46.8005 55.1315C46.4306 55.0979 46.027 55.0644 45.6571 55.0308L45.3207 54.9972C44.9172 54.9636 44.5472 54.9301 44.1437 54.8965L43.8746 54.8629C43.471 54.8293 43.1011 54.7957 42.6975 54.7957H42.5294C42.0922 54.7622 41.6886 54.7622 41.2514 54.7286H40.9823C40.5788 54.695 40.1416 54.695 39.7043 54.6614H39.4353C38.9981 54.6614 38.5609 54.6279 38.1237 54.6279H37.9219C37.4175 54.6279 36.9466 54.6279 36.5094 54.6279C36.1058 54.6279 35.635 54.6279 35.1305 54.6279H34.9288C34.4916 54.6279 34.0544 54.6614 33.6172 54.6614H33.3481C32.9109 54.6614 32.5073 54.695 32.0701 54.7286H31.8011C31.3639 54.7622 30.9603 54.7622 30.5231 54.7957H30.355C29.9514 54.8293 29.5815 54.8629 29.1779 54.8629L28.9088 54.8965C28.5052 54.9301 28.1017 54.9636 27.7317 54.9972L27.3954 55.0308C27.0255 55.0644 26.6219 55.0979 26.252 55.1315L25.9157 55.1651C25.5457 55.1987 25.1422 55.2322 24.7722 55.2658L20.9383 55.7359C20.2993 55.803 19.8621 56.3738 19.9294 57.0118C19.9966 57.6497 20.5683 58.0862 21.2073 58.019L24.9067 57.5825H25.0076C25.3776 57.549 25.7475 57.5154 26.1175 57.4818L26.4538 57.4482C26.8237 57.4147 27.1936 57.3811 27.5636 57.3475L27.8999 57.3139C28.2698 57.2804 28.6734 57.2468 29.077 57.2132L29.346 57.1796C29.716 57.1461 30.1196 57.1125 30.4895 57.1125H30.624C31.0276 57.0789 31.4648 57.0789 31.902 57.0453H32.1374C32.541 57.0118 32.9782 57.0118 33.3818 57.0118H33.6508C34.088 57.0118 34.4916 56.9782 34.9288 56.9782H35.1305C35.635 56.9782 36.0722 56.9782 36.5094 56.9782C36.913 56.9782 37.3502 56.9782 37.8546 56.9782H38.0565C38.4937 56.9782 38.8972 57.0118 39.3344 57.0118H39.6035C40.0071 57.0118 40.4442 57.0453 40.8478 57.0453H41.1169C41.5204 57.0789 41.9576 57.0789 42.3612 57.1125H42.5294C42.8993 57.1461 43.3029 57.1461 43.6728 57.1796L43.9419 57.2132C44.3455 57.2468 44.7154 57.2804 45.119 57.3139L45.4553 57.3475C45.8252 57.3811 46.1951 57.4147 46.5651 57.4482L46.9014 57.4818C47.2713 57.5154 47.6413 57.549 48.0112 57.5825L52.2823 58.0862C54.4684 58.3884 56.6207 58.6905 58.5041 58.9592C60.0175 59.1942 61.43 59.3956 62.7416 59.5635L63.246 59.6307C63.4142 59.6642 63.5823 59.6642 63.7505 59.6978L64.6249 59.7985C64.7595 59.7985 64.8603 59.8321 64.9949 59.8321L65.6002 59.8993C65.7347 59.8993 65.8693 59.9328 65.9702 59.9328H66.1383C66.2392 59.9328 66.3065 59.9329 66.3737 59.9664H66.5083C66.5083 59.9664 66.5083 59.9664 66.5419 59.9664C66.6764 59.9664 66.7773 60 66.9118 60H66.9791C67.08 60 67.1809 60 67.2817 60H67.4163C67.5172 60 67.6517 60 67.7526 60H67.7862C67.8871 60 68.0216 60 68.1225 60H68.2234C68.3243 60 68.4252 60 68.4925 60H68.5597C68.6606 60 68.7615 60 68.896 60H68.9633C69.0642 60 69.1315 60 69.2324 59.9664H69.266H69.2996C69.4005 59.9664 69.5014 59.9328 69.6023 59.9328H69.6696C69.7368 59.9328 69.8377 59.8993 69.905 59.8993H69.9722C70.0731 59.8993 70.1404 59.8657 70.2413 59.8321C70.2749 59.8321 70.2749 59.8321 70.2749 59.8321C70.3422 59.7985 70.4431 59.7985 70.5104 59.765H70.544H70.5776C70.7794 59.6978 70.9475 59.6307 71.1157 59.5635L71.183 59.5299C71.2502 59.4964 71.3175 59.4628 71.3848 59.4292L71.4184 59.3956C71.4856 59.3285 71.5865 59.2949 71.6538 59.2278C71.6874 59.2278 71.6874 59.1942 71.7211 59.1942C71.7883 59.127 71.8556 59.0935 71.8892 59.0263C71.9228 58.9927 71.9228 58.9927 71.9565 58.9592C72.0237 58.892 72.091 58.7913 72.1582 58.7241C72.1582 58.6905 72.1919 58.6905 72.1919 58.657C72.2255 58.5898 72.2928 58.5227 72.3264 58.4555C72.3264 58.4219 72.3601 58.4219 72.3601 58.3884C72.3937 58.2876 72.4273 58.1869 72.4609 58.0862C72.4609 58.0526 72.4609 58.0526 72.4609 58.019C72.4946 57.9519 72.4945 57.8512 72.4945 57.784C72.4945 57.7504 72.4945 57.7504 72.4945 57.7169C72.4945 57.6161 72.5282 57.5154 72.5282 57.4147C72.4946 57.2468 72.4609 57.1796 72.4609 57.1125Z" fill="#ffffff"/>
<path fill-rule="evenodd" clip-rule="evenodd" d="M36.5095 31.5278C33.9199 31.5278 31.8348 29.4125 31.8348 26.8607C31.8348 24.2754 33.9535 22.1937 36.5095 22.1937C39.0991 22.1937 41.1842 24.309 41.1842 26.8607C41.2178 29.4125 39.0991 31.5278 36.5095 31.5278ZM36.5095 19.877C32.6755 19.877 29.5479 22.9995 29.5479 26.8271C29.5479 30.6548 32.6755 33.7773 36.5095 33.7773C40.3434 33.7773 43.4711 30.6548 43.4711 26.8271C43.4711 22.9995 40.3434 19.877 36.5095 19.877Z" fill="#ffffff"/>
</svg>
