<svg width="19" height="19" viewBox="0 0 19 19" fill="none" xmlns="http://www.w3.org/2000/svg">
<g clip-path="url(#clip0_230_116)">
<path d="M18.289 8.38431L9.49485 17.1793L0.700695 8.38431C0.536633 8.22582 0.275149 8.23039 0.116664 8.39445C-0.0379113 8.55453 -0.0379113 8.80827 0.116664 8.9683L9.20324 18.0549C9.36451 18.2161 9.62596 18.2161 9.78727 18.0549L18.8738 8.9683C19.0323 8.80424 19.0278 8.54276 18.8637 8.38427C18.7036 8.22966 18.4499 8.22966 18.2898 8.38427L18.289 8.38431Z" fill="#607D8B"/>
<path d="M18.289 0.949806L9.49485 9.74477L0.700694 0.949806C0.536633 0.791321 0.275149 0.79589 0.116664 0.959951C-0.0379113 1.12002 -0.0379113 1.37376 0.116664 1.53384L9.20324 10.6204C9.36451 10.7816 9.62596 10.7816 9.78727 10.6204L18.8738 1.53384C19.0379 1.37535 19.0424 1.11391 18.884 0.949806C18.7255 0.785745 18.4641 0.781214 18.3 0.939661C18.2965 0.942991 18.2931 0.94636 18.2898 0.949806H18.289Z" fill="#607D8B"/>
<path d="M9.49488 18.1763C9.38526 18.1765 9.28006 18.1331 9.20246 18.0557L0.115885 8.9691C-0.042601 8.80504 -0.038032 8.54355 0.12603 8.38507C0.286103 8.23049 0.539842 8.23049 0.699877 8.38507L9.49484 17.1792L18.289 8.38426C18.4531 8.22577 18.7145 8.23034 18.873 8.3944C19.0276 8.55447 19.0276 8.80821 18.873 8.96829L9.78649 18.0549C9.7092 18.1323 9.60435 18.176 9.49488 18.1763Z" fill="white"/>
<path d="M9.49488 10.7418C9.38526 10.742 9.28006 10.6987 9.20246 10.6212L0.115885 1.53465C-0.0426011 1.37059 -0.038032 1.1091 0.12603 0.950619C0.286103 0.796045 0.539842 0.796045 0.699916 0.950619L9.49488 9.74477L18.289 0.949806C18.4475 0.785745 18.709 0.781214 18.8731 0.939661C19.0372 1.09811 19.0417 1.35959 18.8832 1.52369C18.8799 1.52714 18.8765 1.53051 18.8731 1.53384L9.78649 10.6204C9.7092 10.6979 9.60435 10.7416 9.49488 10.7418Z" fill="white"/>
</g>
<defs>
<clipPath id="clip0_230_116">
<rect width="19" height="19" fill="white"/>
</clipPath>
</defs>
</svg>
