<svg width="50" height="61" viewBox="0 0 50 61" fill="none" xmlns="http://www.w3.org/2000/svg">
<path fill-rule="evenodd" clip-rule="evenodd" d="M47.1137 49.7338L42.0844 51.0802V47.6861L47.1137 46.3117V49.7338ZM7.32893 51.0802L2.29967 49.7338V46.3397L7.32893 47.7142V51.0802ZM14.5217 2.60899L23.4564 11.8376L23.2316 12.062L23.1473 12.1462L19.8038 10.4351V9.64966C19.8038 9.1167 19.3824 8.69595 18.8485 8.69595C18.399 8.69595 18.0057 9.03255 17.9214 9.45331L12.6392 6.70436C12.6111 6.67631 12.583 6.67631 12.5549 6.67631H12.5268C12.4987 6.67631 12.4706 6.64826 12.4706 6.64826H12.4425C12.4144 6.64826 12.3863 6.64826 12.3582 6.62021H12.3301C12.302 6.62021 12.2739 6.62021 12.2177 6.62021C12.2177 6.62021 12.2178 6.62021 12.1897 6.62021C12.1616 6.62021 12.1334 6.62021 12.1054 6.62021H12.0773C12.0492 6.62021 11.993 6.62021 11.9649 6.64826C11.8525 6.67631 11.1501 6.87267 10.1386 7.23732C11.6558 4.20787 13.5945 3.02975 14.5217 2.60899ZM32.5316 2.46874L31.3234 3.73101L30.1715 4.90913H19.3543L16.9942 2.46874H32.5316ZM35.0322 2.60899C35.9313 3.02975 37.9261 4.20787 39.4153 7.26537C38.3757 6.90072 37.6452 6.67631 37.4766 6.64826H37.4485C37.3923 6.62021 37.3361 6.62021 37.2799 6.62021C37.1113 6.62021 36.9147 6.64826 36.7742 6.73241L31.7168 9.34111C31.5763 8.97645 31.2392 8.724 30.8177 8.724C30.2839 8.724 29.8624 9.14476 29.8624 9.67772V10.2668L25.2827 12.623L25.4231 12.4828L31.2392 6.50801L33.3745 4.29202L35.0322 2.60899ZM24.7769 10.4631L21.2087 6.78851H28.3452L24.7769 10.4631ZM48.069 31.3607C47.5352 31.3607 47.1137 31.7815 47.1137 32.3145V44.3762L42.0844 45.7506V22.076C42.0844 21.5431 41.663 21.1223 41.1291 21.1223C40.5953 21.1223 40.1739 21.5431 40.1739 22.076V46.9849V52.3425V54.5866H17.1066C16.5727 54.5866 16.1513 55.0073 16.1513 55.5403C16.1513 56.0732 16.5727 56.494 17.1066 56.494H40.1739V58.6819H9.23951V56.494H14.0159C14.5498 56.494 14.9712 56.0732 14.9712 55.5403C14.9712 55.0073 14.5498 54.5866 14.0159 54.5866H9.23951V52.3425V46.9849V22.076C9.23951 21.5431 8.81806 21.1223 8.28422 21.1223C7.75039 21.1223 7.32893 21.5431 7.32893 22.076V45.7506L2.29967 44.3762V16.2976C2.29967 13.4645 5.69933 11.2205 8.73376 9.81797C8.76186 9.81797 8.76188 9.81797 8.78997 9.78992C10.2229 9.14476 11.5153 8.724 12.1054 8.55569L17.9214 11.5571V26.6483C17.9214 27.1812 18.3428 27.602 18.8767 27.602C19.4105 27.602 19.8319 27.1812 19.8319 26.6483V12.5389L24.2993 14.839C24.5802 14.9793 24.8893 14.9793 25.1703 14.839L29.9186 12.3986V26.6483C29.9186 27.1812 30.3401 27.602 30.8739 27.602C31.4077 27.602 31.8292 27.1812 31.8292 26.6483V11.4168L37.3642 8.55569C37.9823 8.75205 39.3029 9.17281 40.792 9.84602C40.8201 9.84602 40.8201 9.84602 40.8482 9.87407C43.8826 11.2766 47.1699 13.4926 47.1699 16.2976V29.0887C47.1699 29.6216 47.5914 30.0424 48.1252 30.0424C48.659 30.0424 49.0805 29.6216 49.0805 29.0887V16.2976C49.0805 12.4828 45.2313 9.84602 41.972 8.30324C39.6681 1.82358 35.257 0.645456 35.0603 0.589355C35.0322 0.589355 35.0322 0.589355 35.0041 0.589355C34.976 0.589355 34.976 0.589355 34.9479 0.589355C34.9198 0.589355 34.8917 0.589355 34.8636 0.589355H34.8355H14.8307H14.8027C14.7746 0.589355 14.7464 0.589355 14.7183 0.589355C14.6903 0.589355 14.6903 0.589355 14.6622 0.589355C14.6341 0.589355 14.6341 0.589355 14.606 0.589355C14.4093 0.645456 10.0262 1.82358 7.72229 8.24714C4.43499 9.78992 0.473389 12.4267 0.473389 16.2976V45.1055V50.4631C0.473389 50.8839 0.754355 51.2766 1.1758 51.3888L7.38514 53.0718V55.5403V59.6356C7.38514 60.1686 7.8066 60.5894 8.34044 60.5894H41.2135C41.7473 60.5894 42.1687 60.1686 42.1687 59.6356V55.5403V53.0718L48.3781 51.3888C48.7995 51.2766 49.0805 50.9119 49.0805 50.4631V45.1055V32.3145C49.0243 31.7815 48.6028 31.3607 48.069 31.3607Z" fill="#ffffff"/>
<path fill-rule="evenodd" clip-rule="evenodd" d="M34.4139 50.0143H15.1396V44.0957C17.8088 42.4968 19.5227 39.7198 19.8317 36.6623H29.7498C30.0589 39.7479 31.7728 42.4968 34.4419 44.0957L34.4139 50.0143ZM31.5761 35.7086C31.5761 35.1756 31.1546 34.7549 30.6208 34.7549H18.9045C18.3707 34.7549 17.9493 35.1756 17.9493 35.7086C17.9493 38.6539 16.3197 41.3187 13.7067 42.7212C13.3976 42.8895 13.2009 43.1981 13.2009 43.5627V50.9681C13.2009 51.501 13.6224 51.9218 14.1562 51.9218H35.3411C35.8749 51.9218 36.2963 51.501 36.2963 50.9681V43.5627C36.2963 43.1981 36.0997 42.8895 35.7906 42.7212C33.2057 41.3467 31.5761 38.6539 31.5761 35.7086Z" fill="#ffffff"/>
</svg>
