<svg width="19" height="21" viewBox="0 0 19 21" fill="none" xmlns="http://www.w3.org/2000/svg">
<path fill-rule="evenodd" clip-rule="evenodd" d="M11.5515 0H7.35093C3.29757 0 0 3.29757 0 7.35093V10.5013C0 13.347 1.6412 15.9295 4.20053 17.1443V20.6526C4.20053 20.9572 4.5816 21.1165 4.79808 20.9001L7.84591 17.8523H11.5514C15.6047 17.8523 18.9024 14.5547 18.9024 10.5013V7.35093C18.9024 3.29757 15.6047 0 11.5515 0ZM14.7359 13.0471L14.4212 11.3422C14.3952 11.2014 14.2861 11.0906 14.1456 11.0625L11.6705 10.5675C11.5555 10.5446 11.4371 10.5805 11.3542 10.6632L10.3487 11.6688C8.6544 10.9097 7.71408 9.96731 6.88671 8.20031L7.88905 7.19802C7.97178 7.11525 8.00771 6.99655 7.98478 6.88179L7.48976 4.40658C7.46167 4.26618 7.35088 4.157 7.21003 4.13099L5.50518 3.81632C5.45851 3.80775 5.41044 3.80865 5.36409 3.81919C4.91394 3.92145 4.50321 4.14826 4.17628 4.47528C3.61018 5.04138 3.39382 5.86743 3.55067 6.86415C3.81395 8.53783 4.63393 10.867 6.14679 12.386L6.16746 12.4065C7.6852 13.9183 10.0144 14.7383 11.6882 15.0016C11.8991 15.0349 12.1021 15.0513 12.2969 15.0513C13.0226 15.0513 13.6307 14.8224 14.0771 14.376C14.4041 14.049 14.631 13.6383 14.7332 13.1882C14.7436 13.1418 14.7446 13.0938 14.7359 13.0471ZM10.1518 3.1504C10.0267 3.1504 9.89997 3.15515 9.77529 3.16463C9.58251 3.17923 9.43806 3.34739 9.45266 3.54013C9.46722 3.7329 9.63595 3.87736 9.82815 3.86275C9.93533 3.85459 10.0442 3.85049 10.1518 3.85049C12.468 3.85049 14.3523 5.73483 14.3523 8.05102C14.3523 8.37873 14.3145 8.70497 14.2399 9.02063C14.1971 9.2015 14.3085 9.38952 14.4879 9.43866C14.6766 9.49034 14.8763 9.37201 14.9212 9.18165C15.0083 8.81329 15.0524 8.43291 15.0524 8.05102C15.0524 5.34879 12.854 3.1504 10.1518 3.1504ZM9.76253 4.5718C9.89082 4.55765 10.0215 4.55047 10.151 4.55047C12.0811 4.55047 13.6514 6.12079 13.6514 8.0509C13.6514 8.18043 13.6442 8.3111 13.6301 8.4394C13.6091 8.62901 13.4333 8.76982 13.2437 8.74895C13.0541 8.72807 12.9133 8.55211 12.9342 8.36258C12.9455 8.25971 12.9513 8.15488 12.9513 8.0509C12.9513 6.50679 11.6951 5.25056 10.151 5.25056C10.0471 5.25056 9.94222 5.25635 9.83935 5.26771C9.64752 5.28858 9.47419 5.15036 9.45298 4.95816C9.43178 4.76596 9.57037 4.593 9.76253 4.5718ZM9.80087 6.30085C9.80087 6.10755 9.95759 5.95082 10.1509 5.95082C11.309 5.95082 12.2512 6.89295 12.2511 8.05107C12.2511 8.24179 12.0918 8.40109 11.9011 8.40109C11.7104 8.40109 11.5511 8.24179 11.5511 8.05107C11.5511 7.27899 10.923 6.65088 10.1509 6.65088C9.95759 6.65088 9.80087 6.49416 9.80087 6.30085Z" fill="white"/>
</svg>
