<svg width="40" height="40" viewBox="0 0 40 40" fill="none" xmlns="http://www.w3.org/2000/svg">
<g clip-path="url(#clip0_65_1523)">
<path d="M20 40C31.0457 40 40 31.0457 40 20C40 8.95431 31.0457 0 20 0C8.95431 0 0 8.95431 0 20C0 31.0457 8.95431 40 20 40Z" fill="#3B5998"/>
<path d="M25.028 20.783H21.4592V33.8573H16.0523V20.783H13.4807V16.1882H16.0523V13.2148C16.0523 11.0886 17.0623 7.75903 21.5074 7.75903L25.5125 7.77579V12.2358H22.6065C22.1299 12.2358 21.4596 12.474 21.4596 13.4883V16.1925H25.5004L25.028 20.783Z" fill="white"/>
</g>
<defs>
<clipPath id="clip0_65_1523">
<rect width="40" height="40" fill="white"/>
</clipPath>
</defs>
</svg>
