<svg width="88" height="88" viewBox="0 0 88 88" fill="none" xmlns="http://www.w3.org/2000/svg">
<path opacity="0.8" fill-rule="evenodd" clip-rule="evenodd" d="M52.8291 23.1927H50.9649C50.8478 23.1927 50.8328 23.1927 50.5645 22.9302L50.5643 22.93C50.2085 22.5821 49.6132 22 48.5262 22C47.4392 22 46.844 22.5821 46.4883 22.9301L46.4881 22.9302C46.2198 23.1927 46.2047 23.1927 46.0877 23.1927C45.9707 23.1927 45.9557 23.1927 45.6875 22.9303C45.3318 22.5823 44.7365 22 43.6494 22C42.5623 22 41.967 22.5823 41.6113 22.9303C41.3431 23.1927 41.3281 23.1927 41.211 23.1927H39.3862L41.1602 27.0642H50.9637L52.8291 23.1927ZM51.6546 52.635L55.8659 45.6097C56.3341 44.8286 57.066 44.2482 57.9077 43.9558L58.1423 39.5522C56.4508 37.1748 54.0554 35.5507 51.1722 34.0994H40.8808C37.9752 35.5482 35.5605 37.1748 33.8588 39.5703L34.0925 43.9558C34.9341 44.2483 35.6661 44.8287 36.1343 45.6097L40.3456 52.635C41.3432 54.1947 41.7824 55.9955 41.6384 57.7969C43.0323 58.2652 44.5035 58.5095 45.9826 58.5095C47.4749 58.5095 48.9571 58.2612 50.3608 57.7853C50.2197 55.9878 50.6591 54.1913 51.6546 52.635ZM46.9394 48.4584V49.7457H45.3042V48.5164C44.1445 48.4467 43.0195 48.1336 42.3237 47.7046L43.205 45.7098C43.9705 46.1621 44.991 46.452 45.884 46.452C46.661 46.452 46.9393 46.2896 46.9393 46.0113C46.9393 45.6364 46.3337 45.5103 45.5673 45.3508C44.2475 45.0761 42.4512 44.7021 42.4512 42.7872C42.4512 41.4767 43.4021 40.375 45.3041 40.1082V38.8441H46.9393V40.085C47.7975 40.1662 48.6325 40.3866 49.2936 40.7576L48.4702 42.7408C47.67 42.3348 46.9161 42.1377 46.2087 42.1377C45.4085 42.1377 45.1533 42.3697 45.1533 42.648C45.1533 43.0019 45.7457 43.1201 46.5 43.2706C47.822 43.5344 49.6415 43.8974 49.6415 45.8024C49.6416 47.0552 48.737 48.1453 46.9394 48.4584ZM50.0215 29.4079H42.0508V31.7556H50.0215V29.4079ZM38.429 53.8431L38.4076 53.8085L34.1911 46.7743C33.7364 46.0158 32.7469 45.78 31.999 46.2518C31.2758 46.708 31.0485 47.6577 31.4868 48.3919L35.4754 55.0735L33.4582 56.2669L29.4958 49.5694C28.9453 48.7015 28.7735 47.6702 29.0124 46.6627C29.2561 45.6343 29.9241 44.7323 30.8449 44.1879C31.1565 44.0038 31.4824 43.8673 31.8139 43.7744L31.3897 35.8127C31.3139 34.3902 30.1385 33.2757 28.7139 33.2757C27.2369 33.2757 26.0384 34.4709 26.0344 35.948L26 48.6762L31.33 57.8487L29.7681 61.9999H37.6067L39.0173 59.2759C39.6842 57.4402 39.4711 55.4638 38.429 53.8431ZM65.9658 35.9481L66.0002 48.6762L60.6702 57.8487L62.2321 61.9999H54.3935L52.983 59.276C52.316 57.4403 52.5291 55.4639 53.5712 53.8432L53.5926 53.8085L57.8092 46.7744C58.2638 46.016 59.2534 45.7801 60.0012 46.2519C60.7243 46.7081 60.9517 47.6578 60.5134 48.392L56.5249 55.0736L58.542 56.267L62.5043 49.5695C63.0548 48.7016 63.2266 47.6703 62.9878 46.6628C62.744 45.6344 62.0761 44.7324 61.1552 44.188C60.8436 44.0038 60.5178 43.8673 60.1862 43.7745L60.6104 35.8128C60.6862 34.3903 61.8618 33.2758 63.2862 33.2758C64.7633 33.2758 65.9618 34.4711 65.9658 35.9481Z" fill="#AD6646"/>
<mask id="path-2-inside-1_308_157" fill="white">
<path fill-rule="evenodd" clip-rule="evenodd" d="M88 0H0V64.9687L23.0313 88H88V0Z"/>
</mask>
<path d="M0 0V-2H-2V0H0ZM88 0H90V-2H88V0ZM0 64.9687H-2V65.7971L-1.41421 66.3829L0 64.9687ZM23.0313 88L21.6171 89.4142L22.2028 90H23.0313V88ZM88 88V90H90V88H88ZM0 2H88V-2H0V2ZM2 64.9687V0H-2V64.9687H2ZM-1.41421 66.3829L21.6171 89.4142L24.4455 86.5858L1.41421 63.5545L-1.41421 66.3829ZM88 86H23.0313V90H88V86ZM86 0V88H90V0H86Z" fill="#AD6646" fill-opacity="0.2" mask="url(#path-2-inside-1_308_157)"/>
</svg>
