<svg width="62" height="51" viewBox="0 0 62 51" fill="none" xmlns="http://www.w3.org/2000/svg">
<path fill-rule="evenodd" clip-rule="evenodd" d="M56.1684 42.5573C55.558 40.5074 55.7244 38.3467 56.0019 36.5462C56.0851 35.8814 55.6412 35.2996 54.9753 35.1888C54.3094 35.1057 53.7267 35.549 53.6157 36.2138C53.3105 38.2913 53.1163 40.7567 53.8654 43.2498C54.0319 43.7761 54.5036 44.1085 55.003 44.1085C55.114 44.1085 55.225 44.0808 55.336 44.0531C55.9742 43.8315 56.3349 43.1667 56.1684 42.5573ZM21.4022 22.5019C20.2923 22.5019 19.3767 21.4769 19.3767 20.2304C19.3767 18.9839 20.2923 17.9589 21.4022 17.9589C22.512 17.9589 23.4277 18.9839 23.4277 20.2304C23.4277 21.4769 22.512 22.5019 21.4022 22.5019ZM21.4022 15.5767C18.9605 15.5767 16.9905 17.6819 16.9905 20.2304C16.9905 22.8066 18.9605 24.8841 21.4022 24.8841C23.8439 24.8841 25.8138 22.7789 25.8138 20.2304C25.8138 17.6542 23.8439 15.5767 21.4022 15.5767ZM40.2419 22.5019C39.1321 22.5019 38.2164 21.4769 38.2164 20.2304C38.2164 18.9839 39.1321 17.9589 40.2419 17.9589C41.3518 17.9589 42.2674 18.9839 42.2674 20.2304C42.2397 21.4769 41.3518 22.5019 40.2419 22.5019ZM40.2419 15.5767C37.8003 15.5767 35.8303 17.6819 35.8303 20.2304C35.8303 22.8066 37.8003 24.8841 40.2419 24.8841C42.6836 24.8841 44.6537 22.7789 44.6537 20.2304C44.6537 17.6542 42.6559 15.5767 40.2419 15.5767ZM30.836 18.1805C29.7261 18.1805 28.8105 17.1556 28.8105 15.9091C28.8105 14.6625 29.7261 13.6376 30.836 13.6376C31.9458 13.6376 32.8615 14.6625 32.8615 15.9091C32.8337 17.1556 31.9458 18.1805 30.836 18.1805ZM30.836 11.2276C28.3943 11.2276 26.4242 13.3329 26.4242 15.8814C26.4242 18.4575 28.3943 20.5351 30.836 20.5351C33.2776 20.5351 35.2476 18.4298 35.2476 15.8814C35.2199 13.3329 33.2499 11.2276 30.836 11.2276ZM30.836 36.4631C27.9781 36.4631 25.6474 34.1362 25.6474 31.2553C25.6474 28.3744 27.9781 26.0476 30.836 26.0476C33.6938 26.0476 36.0245 28.3744 36.0245 31.2553C35.9968 34.1362 33.6938 36.4631 30.836 36.4631ZM30.836 23.6653C26.6463 23.6653 23.2612 27.0725 23.2612 31.2553C23.2612 35.4382 26.6463 38.8454 30.836 38.8454C35.0257 38.8454 38.4107 35.4382 38.4107 31.2553C38.4107 27.0725 34.9979 23.6653 30.836 23.6653ZM7.77869 6.85089C7.58447 6.21378 6.91858 5.85366 6.28041 6.04757C5.64225 6.24148 5.2815 6.9063 5.47573 7.54342C6.08615 9.59328 5.9197 11.7539 5.64223 13.5545C5.55899 14.2193 6.00292 14.801 6.66884 14.9118C6.72433 14.9118 6.77985 14.9118 6.83534 14.9118C7.41802 14.9118 7.94521 14.4686 8.02845 13.8869C8.33366 11.8093 8.52784 9.34397 7.77869 6.85089ZM58.2771 43.7761C58.2216 43.6099 58.1661 43.4437 58.1107 43.1944C57.7222 41.8924 57.639 40.5905 57.7499 39.1778C57.8332 37.8481 58.0829 36.4354 58.3326 34.8564C58.5545 33.5545 58.8043 32.1141 58.9707 30.452C59.165 28.8454 59.3037 27.0448 59.3037 25.0226C59.3037 23.0005 59.165 21.1999 58.9707 19.5933C58.7765 17.9589 58.5268 16.4908 58.3326 15.1888C58.0551 13.6099 57.8332 12.1972 57.7499 10.8675C57.6667 9.45477 57.75 8.15283 58.1107 6.85089C58.1661 6.62929 58.2216 6.43538 58.2771 6.26918C58.3603 5.99217 58.3326 6.13067 58.4436 5.71516C58.7488 4.77333 58.9985 3.97001 59.0818 3.36059C59.1373 2.97278 59.1095 2.69577 58.9985 2.52956C58.9153 2.41876 58.8598 2.36336 58.832 2.36336C58.832 2.36336 58.7766 2.36336 58.7211 2.36336C58.1939 2.36336 57.306 2.72347 56.3626 3.11128C56.3349 3.11128 56.3349 3.13898 56.3071 3.13898C55.78 3.36059 55.1973 3.5822 54.6146 3.8038C53.6157 4.16391 52.5059 4.41322 51.285 4.57943C50.0642 4.74563 48.7601 4.82873 47.2896 4.82873C44.8479 4.82873 42.2674 4.60713 39.5483 4.38552C38.0777 4.27472 36.5517 4.13621 35.1921 4.05311C33.7493 3.97001 32.3065 3.91461 30.8082 3.91461C29.3099 3.91461 27.8393 3.97001 26.4242 4.05311C25.0647 4.13621 23.5386 4.27472 22.0681 4.38552C19.3489 4.60713 16.7685 4.82873 14.3269 4.82873C12.8563 4.82873 11.5522 4.74563 10.3313 4.57943C9.1105 4.41322 8.00065 4.16391 7.00178 3.8038C6.41911 3.6099 5.86422 3.36059 5.30929 3.13898C4.36591 2.75117 3.45026 2.36336 2.92308 2.36336C2.86758 2.36336 2.83986 2.36336 2.81212 2.36336C2.78437 2.39106 2.72885 2.41876 2.64561 2.52956C2.53463 2.69577 2.50687 2.97278 2.56236 3.36059C2.6456 3.97001 2.89533 4.77333 3.20054 5.71516C3.33927 6.13067 3.28381 5.99217 3.36704 6.26918C3.42254 6.43538 3.47799 6.60159 3.53348 6.85089C3.92193 8.15283 4.00518 9.45477 3.8942 10.8675C3.81096 12.1972 3.56128 13.6099 3.31157 15.1888C3.08959 16.4908 2.83986 17.9312 2.67339 19.5933C2.47916 21.1999 2.34044 23.0005 2.34044 25.0226C2.34044 29.067 2.86762 32.2803 3.31157 34.8564C3.58903 36.4354 3.81096 37.8481 3.8942 39.1778C3.97744 40.5905 3.89419 41.8924 3.53348 43.1944C3.4225 43.5545 3.31157 43.9146 3.17283 44.3024V44.3301C2.86762 45.2719 2.61789 46.0753 2.53465 46.6847C2.47916 47.0725 2.50692 47.3495 2.61791 47.5157C2.70115 47.6265 2.7566 47.6819 2.78434 47.6819C2.78434 47.6819 2.83988 47.6819 2.89537 47.6819C3.11734 47.6819 3.45027 47.5988 3.83872 47.4603C4.31041 47.2941 4.80983 47.1002 5.28152 46.9063C5.53123 46.7955 5.75325 46.7124 6.0862 46.5739C6.39141 46.4631 6.69661 46.3523 6.97407 46.2415C7.97294 45.8814 9.0828 45.6321 10.3036 45.4659C11.5245 45.2997 12.8285 45.2165 14.2991 45.2165C15.4922 45.2165 16.7685 45.2719 18.0726 45.355C19.4322 45.4382 20.7085 45.549 22.0404 45.6598C23.5109 45.7706 25.037 45.9091 26.3965 45.9922C27.8393 46.0753 29.2822 46.1307 30.7805 46.1307C32.2788 46.1307 33.7493 46.0753 35.1643 45.9922C36.5239 45.9091 38.05 45.7706 39.5206 45.6598C42.2397 45.4382 44.8201 45.2165 47.2618 45.2165C48.7324 45.2165 50.0364 45.2997 51.2572 45.4659C52.4781 45.6321 53.5879 45.8814 54.5868 46.2415C54.8643 46.3523 55.1695 46.4631 55.4747 46.5739C55.8077 46.7124 56.0574 46.7955 56.2794 46.9063C56.7788 47.1002 57.2505 47.3218 57.7222 47.4603C58.0829 47.5711 58.4159 47.6542 58.6656 47.6542C58.7211 47.6542 58.7488 47.6542 58.7765 47.6542C58.8043 47.6265 58.8598 47.5988 58.943 47.488C59.054 47.3218 59.0817 47.0448 59.0262 46.657C58.943 46.0476 58.6933 45.2442 58.3881 44.3024C58.3326 43.9146 58.3603 44.0254 58.2771 43.7761ZM60.3304 42.5573C60.3581 42.6958 60.4413 42.8897 60.4968 43.0836C60.691 43.693 60.6633 43.5822 60.6633 43.6099C60.9963 44.6625 61.2737 45.5767 61.3847 46.38C61.5234 47.4049 61.3847 48.2359 60.8297 48.9562C60.469 49.3994 60.1084 49.6487 59.7477 49.8149C59.3592 49.9811 59.0262 50.0088 58.6933 50.0088C58.1661 50.0088 57.6112 49.8703 57.0285 49.6764C56.5568 49.5102 56.0019 49.2886 55.4192 49.0393C55.1417 48.9285 54.8366 48.79 54.6424 48.7069C54.3926 48.6238 54.1429 48.5129 53.8654 48.4021C53.0053 48.0974 52.0619 47.8758 51.0076 47.7373C49.9254 47.5988 48.7046 47.5157 47.3173 47.5157C44.9588 47.5157 42.4339 47.7096 39.7703 47.9312C38.383 48.042 36.9402 48.1528 35.3586 48.2636C33.8326 48.3467 32.3065 48.4298 30.836 48.4298C29.3377 48.4298 27.8393 48.3744 26.3133 48.2636C24.7317 48.1528 23.289 48.042 21.9016 47.9312C20.5143 47.8204 19.1547 47.7096 17.9894 47.6265C16.7685 47.5434 15.5477 47.488 14.3546 47.488C12.9672 47.488 11.7465 47.5711 10.6644 47.7096C9.60999 47.8481 8.6666 48.0697 7.80646 48.3744C7.529 48.4852 7.25152 48.5683 7.02955 48.6791C6.83533 48.7623 6.5301 48.8731 6.25264 49.0116C5.66997 49.2609 5.11503 49.4825 4.64334 49.6487C4.06066 49.8426 3.50574 49.9534 2.97855 49.9534C2.67334 49.9534 2.3127 49.9257 1.92425 49.7595C1.56354 49.5933 1.2028 49.344 0.842098 48.9008C0.28717 48.1805 0.148438 47.3495 0.28717 46.3246C0.398156 45.5213 0.675646 44.6071 1.0086 43.5545V43.5268C1.11959 43.1944 1.23056 42.862 1.34155 42.4742C1.64676 41.4769 1.70225 40.4243 1.61901 39.2886C1.53577 38.0697 1.3138 36.7124 1.06408 35.1888C0.62014 32.5019 0.0651855 29.1778 0.0651855 24.9672C0.0651855 22.862 0.203972 20.9783 0.398196 19.2609C0.592421 17.5711 0.842111 16.0753 1.06408 14.7456C1.3138 13.2221 1.53577 11.8924 1.61901 10.6459C1.70225 9.48247 1.64676 8.42984 1.34155 7.46031C1.3138 7.32181 1.23053 7.1279 1.17504 6.934C0.980816 6.29688 1.0086 6.43538 1.0086 6.40768C0.675646 5.35505 0.398156 4.44092 0.28717 3.6376C0.148438 2.61267 0.28717 1.78164 0.842098 1.06142C1.2028 0.618207 1.56354 0.3689 1.92425 0.202695C2.3127 0.0364901 2.6456 0.00878906 2.97855 0.00878906C3.94968 0.00878906 5.08729 0.479703 6.25264 0.950617C6.75208 1.17222 7.27928 1.36613 7.80646 1.56004C8.6666 1.86474 9.60999 2.08635 10.6644 2.22486C11.7465 2.36336 12.9672 2.44646 14.3546 2.44646C16.713 2.44646 19.238 2.25256 21.9016 2.03095C23.289 1.92015 24.7317 1.80934 26.3133 1.69854C27.8393 1.61544 29.3654 1.53233 30.836 1.53233C32.3343 1.53233 33.8326 1.58774 35.3586 1.69854C36.9402 1.80934 38.3552 1.92015 39.7703 2.03095C42.4339 2.25256 44.9588 2.44646 47.3173 2.44646C48.7046 2.44646 49.9254 2.36336 51.0076 2.22486C52.0619 2.08635 53.0053 1.86474 53.8654 1.56004C54.3926 1.36613 54.9198 1.14452 55.447 0.950617H55.4747C56.6401 0.479703 57.7499 0.00878906 58.7211 0.00878906C59.0263 0.00878906 59.387 0.0364901 59.7754 0.202695C60.1361 0.3689 60.4968 0.618207 60.8575 1.06142C61.4124 1.78164 61.5512 2.61267 61.4124 3.6376C61.3015 4.44092 61.024 5.35505 60.691 6.40768C60.6633 6.46308 60.7188 6.29688 60.5246 6.934C60.4691 7.1556 60.4136 7.32181 60.3581 7.46031C60.0529 8.45754 59.9974 9.51017 60.0806 10.6459C60.1638 11.8647 60.3858 13.2221 60.6355 14.7456C60.8575 16.0753 61.1073 17.5711 61.3015 19.2609C61.4957 20.9783 61.6344 22.862 61.6344 24.9672C61.6344 27.0725 61.4957 28.9562 61.3015 30.6736C61.1073 32.3634 60.8575 33.8592 60.6355 35.1888C60.3858 36.7124 60.1638 38.042 60.0806 39.2886C59.9974 40.5074 60.0529 41.56 60.3304 42.5573ZM7.16828 16.3523C7.16828 16.3523 7.14055 16.3246 7.1128 16.2969C6.64112 15.8537 5.89194 15.8537 5.42025 16.3246C4.97631 16.7955 4.97633 17.5434 5.44802 17.9866C5.66999 18.2082 6.00291 18.3467 6.30812 18.3467C6.61333 18.3467 6.89079 18.2359 7.14051 18.0143C7.6122 17.5711 7.61223 16.8232 7.16828 16.3523ZM56.2239 32.0864C56.2239 32.0864 56.1962 32.0587 56.1684 32.031C55.6967 31.5877 54.9475 31.5877 54.4758 32.0587C54.0319 32.5296 54.0319 33.2775 54.5036 33.7207C54.7256 33.9423 55.0585 34.0808 55.3637 34.0808C55.6689 34.0808 55.9464 33.97 56.1961 33.7484C56.6678 33.3329 56.6678 32.585 56.2239 32.0864Z" fill="#ffffff"/>
</svg>
