<svg width="54" height="61" viewBox="0 0 54 61" fill="none" xmlns="http://www.w3.org/2000/svg">
<path fill-rule="evenodd" clip-rule="evenodd" d="M32.8462 19.316C32.3126 19.316 31.8913 19.7366 31.8913 20.2693C31.8913 20.802 32.3126 21.2226 32.8462 21.2226H38.2944C38.8279 21.2226 39.2492 20.802 39.2492 20.2693C39.2492 19.7366 38.8279 19.316 38.2944 19.316H32.8462ZM44.5008 27.6992V25.4562L50.3702 23.2412L51.0162 25.316L44.5008 27.6992ZM30.2906 11.3254C30.2906 11.3254 30.2906 11.3534 30.2906 11.3254C30.2625 11.3534 30.2625 11.3534 30.2625 11.3534C29.9536 11.3534 29.3919 10.9889 28.8022 10.4562L28.7741 10.4282C28.746 10.4001 28.7179 10.3721 28.6617 10.3441C28.2967 10.0076 27.9597 9.64312 27.6788 9.33471L34.2784 2.74592C34.8682 2.94218 35.1771 3.13844 35.1771 3.13844C35.2052 3.16648 35.2333 3.16648 35.2614 3.19452L35.9915 3.61508C35.0086 4.96087 31.4139 9.97956 30.2906 11.3254ZM27.3418 19.288H25.4883V11.6898C25.8253 11.3814 26.1342 11.045 26.4151 10.7366C26.6959 11.045 27.0048 11.3814 27.3418 11.6898V19.288ZM27.3418 23.1011H25.4883V21.1945H27.3418V23.1011ZM24.1403 10.3441C24.1122 10.3721 24.0841 10.4001 24.0561 10.4001C24.028 10.4282 23.9999 10.4562 23.9718 10.4562C23.382 10.9609 22.8485 11.3254 22.5396 11.3254C22.5396 11.3254 22.5396 11.3254 22.5115 11.2973C21.3881 9.95153 17.8215 4.93284 16.8386 3.559L17.5688 3.13844C17.5969 3.13844 17.5969 3.11041 17.6249 3.11041C17.6249 3.11041 17.9619 2.88611 18.5517 2.71788L25.1232 9.30667C24.8705 9.61508 24.5054 9.97956 24.1403 10.3441ZM31.9194 2.40947L26.4151 7.9048L20.9107 2.40947H31.9194ZM8.69441 25.4562V27.6992L2.17905 25.316L2.82497 23.2412L8.69441 25.4562ZM53.0663 25.6244L48.2921 10.0917C47.6742 8.10106 46.0454 6.97957 45.568 6.69919C45.568 6.69919 45.568 6.69919 45.5399 6.69919L36.6094 1.54031C36.3004 1.34405 34.8963 0.50293 32.453 0.50293H20.7703C18.2989 0.50293 16.8948 1.34405 16.6139 1.54031L15.294 2.29732L15.0413 2.43751L7.6834 6.64312C7.6834 6.64312 7.68341 6.64312 7.65532 6.64312C7.17791 6.92349 5.52098 8.04499 4.93123 10.0356L0.157039 25.5684C0.0166218 26.045 0.269375 26.5497 0.746793 26.7459L8.75058 29.6898V33.7833V55.7646V59.5497C8.75058 60.0824 9.17183 60.5029 9.70541 60.5029H43.6021C44.1357 60.5029 44.557 60.0824 44.557 59.5497V55.7927V41.0169C44.557 40.4842 44.1357 40.0637 43.6021 40.0637C43.0686 40.0637 42.6473 40.4842 42.6473 41.0169V54.8394H20.2648C19.7312 54.8394 19.31 55.2599 19.31 55.7927C19.31 56.3254 19.7312 56.7459 20.2648 56.7459H42.6473V58.5964H10.6041V56.7459H16.8667C17.4003 56.7459 17.8215 56.3254 17.8215 55.7927C17.8215 55.2599 17.4003 54.8394 16.8667 54.8394H10.6041V33.8113V29.073V24.8113V20.2412C10.6041 19.7085 10.1828 19.288 9.64924 19.288C9.11566 19.288 8.69441 19.7085 8.69441 20.2412V23.4095L3.38664 21.4188L6.70048 10.6244C7.12173 9.27863 8.24507 8.49358 8.61016 8.29732L15.1817 4.54031C15.9961 5.68985 19.8435 11.1011 21.0792 12.559C21.4724 13.0076 21.9779 13.2599 22.5676 13.2599C22.9046 13.2599 23.2416 13.1758 23.6067 13.0356V20.2693V24.0543C23.6067 24.587 24.028 25.0076 24.5616 25.0076H28.3247C28.8583 25.0076 29.2796 24.587 29.2796 24.0543V20.2412V13.0076C29.6166 13.1478 29.9817 13.2319 30.3187 13.2319C30.9084 13.2319 31.4139 12.9796 31.8071 12.531C33.127 10.9889 37.3114 5.04499 37.7889 4.37209L44.6412 8.29732C45.0063 8.52162 46.1297 9.27863 46.5509 10.6244L49.8647 21.4188L44.557 23.4095V20.2693C44.557 19.7366 44.1357 19.316 43.6021 19.316C43.0686 19.316 42.6473 19.7366 42.6473 20.2693V24.8113V29.073V34.7085V37.8487C42.6473 38.3814 43.0686 38.802 43.6021 38.802C44.1357 38.802 44.557 38.3814 44.557 37.8487V34.7085V29.7179L52.5608 26.774C52.982 26.6057 53.2348 26.1011 53.0663 25.6244Z" fill="#ffffff"/>
</svg>
