<svg width="71" height="61" viewBox="0 0 71 61" fill="none" xmlns="http://www.w3.org/2000/svg">
<path fill-rule="evenodd" clip-rule="evenodd" d="M11.9625 47.6418H2.34303C2.34303 43.3126 2.55679 37.0321 3.44239 30.5992C5.03036 19.2882 8.2063 11.5138 12.6648 7.94672L15.23 17.8248V33.2821L11.9625 47.6418ZM10.9242 52.215H2.43464C2.43464 52.154 2.43464 52.0931 2.43464 52.0016C2.4041 51.4223 2.4041 50.6296 2.37356 49.6845H11.5044L10.9242 52.215ZM27.9032 2.42843H27.8727C27.8727 2.42843 27.8727 2.42843 27.9032 2.42843ZM41.8896 2.42843C41.8591 2.61135 41.8285 2.76379 41.798 2.94672C41.6758 3.61745 41.462 4.22721 41.2177 4.77599C40.9124 5.47721 40.5154 6.08696 40.0268 6.54428C39.4771 7.09306 38.7747 7.51989 38.0113 7.76379C36.0263 8.40404 32.942 8.31257 31.2319 7.06257C30.6822 6.63574 30.1936 6.08696 29.7966 5.44672C29.4607 4.89794 29.2164 4.25769 29.0331 3.55647C28.9415 3.19062 28.8499 2.79428 28.7888 2.39794H41.8896V2.42843ZM58.716 47.6418L55.4484 33.3126V17.8248L57.9831 7.97721C62.4721 11.5443 65.6481 19.3187 67.2055 30.6296C68.0911 37.0626 68.3049 43.3735 68.3049 47.6723H58.716V47.6418ZM68.2743 52.0626C68.2743 52.1235 68.2743 52.154 68.2743 52.215H59.7848L59.2046 49.6845H68.3354C68.3049 50.6601 68.2743 51.4833 68.2743 52.0626ZM53.4024 58.3126H17.276V56.026H53.3718V58.3126H53.4024ZM70.3814 48.6479C70.412 44.2577 70.2288 37.3979 69.2515 30.3248C67.4498 17.337 63.6631 8.9833 58.0136 5.47721C57.922 5.41623 57.8304 5.35525 57.7388 5.32477L53.0359 3.64794C52.5168 3.46501 51.906 3.7394 51.7228 4.25769C51.5396 4.77599 51.8144 5.38574 52.3335 5.56867L56.1508 6.94062L53.4329 17.4589C53.4024 17.5504 53.4024 17.6418 53.4024 17.7028V33.404C53.4024 33.4345 53.4024 33.4955 53.4024 33.526V53.9833H17.3066V51.7882C17.3066 51.2089 16.8485 50.7516 16.2683 50.7516C15.6881 50.7516 15.23 51.2089 15.23 51.7882V58.6784C15.23 59.6235 15.9935 60.3857 16.9401 60.3857H53.7383C54.685 60.3857 55.4484 59.6235 55.4484 58.6784V42.5504L56.9142 48.9223L57.8304 52.9467C58.0136 53.7394 58.6854 54.2577 59.4794 54.2577H68.5797C69.4959 54.2577 70.2593 53.526 70.2898 52.6114C70.2898 52.4894 70.2898 52.337 70.3204 52.154C70.3509 51.2699 70.3814 49.8979 70.3814 48.6479C70.3814 48.6784 70.3814 48.6479 70.3814 48.6479ZM15.23 45.5992C15.23 46.1784 15.6881 46.6357 16.2683 46.6357C16.8485 46.6357 17.3066 46.1784 17.3066 45.5992V17.7028C17.3066 17.6114 17.3066 17.5199 17.276 17.4589L14.5582 6.94062L26.7733 2.58086C26.8344 3.09916 26.9566 3.61745 27.0787 4.13574C27.323 5.01989 27.6589 5.81257 28.0559 6.51379C28.5751 7.42843 29.2469 8.19062 30.0409 8.76989C32.2091 10.3553 36.179 10.5992 38.6831 9.77599C39.752 9.44062 40.7291 8.83086 41.5231 8.03818C42.1644 7.39794 42.7141 6.57477 43.1111 5.66013C43.4165 4.95891 43.6608 4.19672 43.844 3.37355C43.9051 3.09916 43.9356 2.82477 43.9662 2.58086L46.2871 3.40403C46.8062 3.58696 47.4169 3.31257 47.6002 2.79428C47.7834 2.27599 47.5086 1.66623 46.9894 1.4833L44.1188 0.446718C43.9967 0.41623 43.9051 0.385742 43.7829 0.385742H26.9871C26.8649 0.385742 26.7428 0.41623 26.6512 0.446718L13.0313 5.32477C13.0008 5.32477 13.0008 5.35525 12.9702 5.35525H12.9397C12.9091 5.38574 12.8786 5.38574 12.8481 5.41623C7.13747 8.89184 3.32023 17.276 1.48795 30.3248C0.510742 37.3979 0.327529 44.2577 0.358067 48.6479V48.6784C0.358067 49.8979 0.38859 51.2089 0.419128 52.1235C0.419128 52.3065 0.419139 52.4894 0.449677 52.6418C0.480215 53.5565 1.24365 54.2882 2.15979 54.2882H11.2601C12.0541 54.2882 12.7564 53.7394 12.9091 52.9772L13.8253 48.9528L15.2911 42.5504V45.5992H15.23Z" fill="#ffffff"/>
</svg>
