<svg width="57" height="61" viewBox="0 0 57 61" fill="none" xmlns="http://www.w3.org/2000/svg">
<path fill-rule="evenodd" clip-rule="evenodd" d="M46.6171 25.9158V23.8691L53.975 20.785L54.4524 22.8037L46.6171 25.9158ZM46.6171 16.1588L50.9139 9.03732C51.1386 9.42984 51.279 9.79433 51.3352 9.99059C51.3352 10.0186 51.3352 10.0186 51.3633 10.0467V10.0747V10.1027L53.4976 18.8504L46.6171 21.8224V16.1588ZM28.3348 11.056C24.5716 11.056 20.5838 7.63545 20.1344 2.44853H36.5071C36.0858 7.63545 32.098 11.056 28.3348 11.056ZM9.91207 16.1588V21.8224L3.00353 18.9065L5.13788 10.1588C5.13788 10.1588 5.2783 9.65414 5.6153 9.03732L9.91207 16.1588ZM9.91207 25.9158L2.0487 22.8037L2.52612 20.785L9.88398 23.8691L9.91207 25.9158ZM56.5025 23.1401L53.2448 9.71022C53.2168 9.57003 52.4304 6.42984 49.2851 5.11209C47.0384 4.15882 39.8771 1.43919 38.0798 0.766291C37.9113 0.626104 37.7147 0.541992 37.49 0.541992H37.3496H19.1515C19.1234 0.541992 19.0954 0.541992 19.0673 0.541992H19.0392C19.0111 0.541992 19.0111 0.541992 18.983 0.541992C18.9549 0.541992 18.9549 0.541992 18.9269 0.541992H18.8988C18.8707 0.541992 18.8707 0.541992 18.8426 0.57003H18.8145C18.4494 0.710216 9.77165 3.99059 7.21605 5.05601C4.21112 6.31769 3.36862 9.28966 3.28437 9.6261C3.28437 9.6261 3.28437 9.6261 3.28437 9.65414L0.953442 19.1869L0.0266876 23.1401C-0.0856463 23.5887 0.167105 24.0654 0.588357 24.2336L9.91207 27.9345V55.7476V59.5887C9.91207 60.1214 10.3333 60.542 10.8669 60.542H45.6623C46.1959 60.542 46.6171 60.1214 46.6171 59.5887V55.7476V37.7196C46.6171 37.1869 46.1959 36.7663 45.6623 36.7663C45.1287 36.7663 44.7075 37.1869 44.7075 37.7196V54.7943H21.3982C20.8646 54.7943 20.4434 55.2149 20.4434 55.7476C20.4434 56.2803 20.8646 56.7009 21.3982 56.7009H44.7075V58.6635H11.8217V56.7009H18.2529C18.7864 56.7009 19.2077 56.2803 19.2077 55.7476C19.2077 55.2149 18.7864 54.7943 18.2529 54.7943H11.8217V27.2897V23.2523V15.9065C11.8217 15.7383 11.7656 15.57 11.6813 15.4298L6.90714 7.5233C7.21605 7.27096 7.58114 7.04667 7.97431 6.87844C9.91207 6.06536 15.7534 3.8504 18.2809 2.8691C18.8988 8.47657 23.2517 12.9626 28.3348 12.9626C33.4179 12.9626 37.7428 8.47657 38.3887 2.92517C41.0005 3.90648 46.6452 6.06536 48.5549 6.87844C48.9762 7.04667 49.3132 7.27096 49.6221 7.5233L44.8479 15.4298C44.7636 15.57 44.7075 15.7383 44.7075 15.9065V23.2523V27.3177V34.5794C44.7075 35.1121 45.1287 35.5326 45.6623 35.5326C46.1959 35.5326 46.6171 35.1121 46.6171 34.5794V27.9345L55.9409 24.2336C56.3902 24.0654 56.6149 23.5887 56.5025 23.1401ZM25.8635 5.72891H30.75C31.2836 5.72891 31.7048 5.30835 31.7048 4.77564C31.7048 4.24293 31.2836 3.82237 30.75 3.82237H25.8635C25.3299 3.82237 24.9086 4.24293 24.9086 4.77564C24.9086 5.30835 25.3299 5.72891 25.8635 5.72891Z" fill="#ffffff"/>
</svg>
