<svg width="88" height="88" viewBox="0 0 88 88" fill="none" xmlns="http://www.w3.org/2000/svg">
<path opacity="0.8" fill-rule="evenodd" clip-rule="evenodd" d="M61 28H63C64 28 65 29 65 30V39.6C62.2 37.4 58.8 36 55 36C46.2 36 39 43.2 39 52C39 54.8 39.8 57.6 41.2 60H29C28 60 27 59.2 27 58V30C27 28.8 28 28 29 28H33V26C33 24.8 33.8 24 35 24C36.2 24 37 24.8 37 26V28H57V26C57 24.8 57.8 24 59 24C60.2 24 61 24.8 61 26V28ZM43 52C43 45.4 48.4 40 55 40C61.6 40 67 45.4 67 52C67 58.6 61.6 64 55 64C48.4 64 43 58.6 43 52ZM53 52C53 53.2 53.8 54 55 54H59C60.2 54 61 53.2 61 52C61 50.8 60.2 50 59 50H57V46C57 44.8 56.2 44 55 44C53.8 44 53 44.8 53 46V52Z" fill="#AD6646"/>
<g opacity="0.2">
<mask id="path-2-inside-1_308_145" fill="white">
<path fill-rule="evenodd" clip-rule="evenodd" d="M88 0H0V64.9687L23.0313 88H88V0Z"/>
</mask>
<path d="M0 0V-2H-2V0H0ZM88 0H90V-2H88V0ZM0 64.9687H-2V65.7971L-1.41421 66.3829L0 64.9687ZM23.0313 88L21.6171 89.4142L22.2028 90H23.0313V88ZM88 88V90H90V88H88ZM0 2H88V-2H0V2ZM2 64.9687V0H-2V64.9687H2ZM-1.41421 66.3829L21.6171 89.4142L24.4455 86.5858L1.41421 63.5545L-1.41421 66.3829ZM88 86H23.0313V90H88V86ZM86 0V88H90V0H86Z" fill="#AD6646" mask="url(#path-2-inside-1_308_145)"/>
</g>
</svg>
