<svg width="1919" height="161" viewBox="0 0 1919 161" fill="none" xmlns="http://www.w3.org/2000/svg">
<g opacity="0.6" clip-path="url(#clip0_65_710)">
<g opacity="0.1">
<path d="M727.377 129.435L698.053 158.752L699.912 160.61L729.236 131.294L727.377 129.435Z" fill="#8FB6C1"/>
<path d="M756.707 129.467L727.383 158.784L729.241 160.642L758.565 131.325L756.707 129.467Z" fill="#8FB6C1"/>
<path d="M786.054 129.38L756.73 158.697L758.589 160.555L787.912 131.238L786.054 129.38Z" fill="#8FB6C1"/>
<path d="M815.393 129.346L786.069 158.663L787.927 160.521L817.251 131.204L815.393 129.346Z" fill="#8FB6C1"/>
<path d="M844.735 129.496L815.407 158.812L817.266 160.67L846.594 131.354L844.735 129.496Z" fill="#8FB6C1"/>
</g>
<g opacity="0.1">
<path d="M1403.08 82.2176L811.239 673.913L813.304 675.978L1405.15 84.2821L1403.08 82.2176Z" fill="#8FB6C1"/>
</g>
<g opacity="0.1">
<path d="M1576.86 -22.8887L985.012 568.807L987.077 570.871L1578.92 -20.8242L1576.86 -22.8887Z" fill="#8FB6C1"/>
</g>
<g opacity="0.1">
<path d="M418.875 -12.7061L-172.968 578.989L-170.903 581.054L420.94 -10.6416L418.875 -12.7061Z" fill="#8FB6C1"/>
</g>
<g opacity="0.1">
<path d="M592.649 -117.813L0.805176 473.883L2.87023 475.947L594.714 -115.748L592.649 -117.813Z" fill="#8FB6C1"/>
</g>
<path opacity="0.1" d="M1673.75 175.268L1584.53 86.071L1673.75 -3.12646L1762.97 86.071L1673.75 175.268ZM1588.62 86.071L1673.75 171.181L1758.88 86.071L1673.75 0.961214L1588.62 86.071Z" fill="#8FB6C1"/>
<path opacity="0.1" d="M554.484 114.684L513.452 73.6622L554.484 32.6401L595.516 73.6622L554.484 114.684ZM517.54 73.6622L554.484 110.597L591.428 73.6622L554.484 36.7278L517.54 73.6622Z" fill="#8FB6C1"/>
<path opacity="0.1" d="M1287.23 9.86621C1112.58 9.86621 971.086 151.327 971.086 325.926C971.086 500.525 1112.58 641.986 1287.23 641.986C1461.87 641.986 1603.36 500.525 1603.36 325.926C1603.36 151.473 1461.87 9.86621 1287.23 9.86621ZM1287.23 567.825C1153.61 567.825 1045.41 459.503 1045.41 326.072C1045.41 192.641 1153.76 84.3191 1287.23 84.3191C1420.84 84.3191 1529.04 192.641 1529.04 326.072C1529.04 459.503 1420.84 567.825 1287.23 567.825Z" fill="#8FB6C1"/>
<path opacity="0.1" d="M1287.23 118.042C1172.45 118.042 1079.29 211.181 1079.29 325.926C1079.29 440.671 1172.45 533.81 1287.23 533.81C1402 533.81 1495.16 440.671 1495.16 325.926C1495.16 211.181 1402.14 118.042 1287.23 118.042ZM1287.23 485.051C1199.32 485.051 1128.21 413.81 1128.21 326.072C1128.21 238.334 1199.47 167.093 1287.23 167.093C1374.98 167.093 1446.39 238.189 1446.39 325.926C1446.39 413.664 1375.13 485.051 1287.23 485.051Z" fill="#8FB6C1"/>
<path opacity="0.1" d="M1868.39 -349.259C1760.78 -349.259 1673.45 -261.96 1673.45 -154.368C1673.45 -46.7763 1760.78 40.5233 1868.39 40.5233C1976.01 40.5233 2063.33 -46.7763 2063.33 -154.368C2063.33 -261.96 1976.16 -349.259 1868.39 -349.259ZM1868.39 -5.17029C1786.04 -5.17029 1719.31 -71.8859 1719.31 -154.222C1719.31 -236.558 1786.04 -303.274 1868.39 -303.274C1950.75 -303.274 2017.48 -236.558 2017.48 -154.222C2017.48 -71.8859 1950.9 -5.17029 1868.39 -5.17029Z" fill="#8FB6C1"/>
</g>
<defs>
<clipPath id="clip0_65_710">
<rect width="1921" height="161" fill="white"/>
</clipPath>
</defs>
</svg>
