<svg width="1440" height="82" viewBox="0 0 1440 82" fill="none" xmlns="http://www.w3.org/2000/svg">
<g opacity="0.6" clip-path="url(#clip0_154_12)">
<rect width="1440" height="82" fill="#4DB2CE" fill-opacity="0.05"/>
<g opacity="0.1">
<path d="M1822.14 -368.33L1230.3 223.366L1232.37 225.43L1824.21 -366.265L1822.14 -368.33Z" fill="#8FB6C1"/>
</g>
<g opacity="0.1">
<path d="M1995.92 -473.436L1404.07 118.259L1406.14 120.324L1997.98 -471.372L1995.92 -473.436Z" fill="#8FB6C1"/>
</g>
<g opacity="0.1">
<path d="M580.935 -496.839L-10.9082 94.8562L-8.84315 96.9207L583 -494.775L580.935 -496.839Z" fill="#8FB6C1"/>
</g>
<path opacity="0.2" d="M387.956 189.682L295.815 97.5652L387.956 5.44806L480.096 97.5652L387.956 189.682ZM299.904 97.5652L387.956 185.595L476.007 97.5652L387.956 9.53565L299.904 97.5652Z" fill="#8FB6C1"/>
<path opacity="0.1" d="M1337.1 18.8787L1296.07 -22.1433L1337.1 -63.1654L1378.13 -22.1433L1337.1 18.8787ZM1300.16 -22.1433L1337.1 14.7911L1374.05 -22.1433L1337.1 -59.0778L1300.16 -22.1433Z" fill="#8FB6C1"/>
<path opacity="0.1" d="M868.662 102.675C887.644 98.0031 905.897 91.4337 922.982 82.8205C1010.01 39.7546 1069.73 -49.8808 1069.73 -153.385C1069.73 -155.137 1069.73 -157.035 1069.73 -158.786H948.828C948.828 -157.035 948.974 -155.137 948.974 -153.385C948.974 -74.5525 885.016 -10.6105 806.164 -10.6105C727.312 -10.6105 663.354 -74.5525 663.354 -153.385C663.354 -155.137 663.354 -157.035 663.5 -158.786H542.593C542.593 -157.035 542.593 -155.137 542.593 -153.385C542.593 -28.2749 629.769 76.3971 746.733 103.405C765.278 107.638 784.553 109.974 804.266 110.12C804.85 110.12 805.58 110.12 806.164 110.12C827.629 110.12 848.51 107.492 868.662 102.675Z" fill="#8FB6C1"/>
<path opacity="0.2" d="M806.018 134.791C807.624 134.791 808.939 136.105 808.939 137.711C808.939 139.317 807.624 140.631 806.018 140.631C804.412 140.631 803.098 139.317 803.098 137.711C803.244 136.105 804.558 134.791 806.018 134.791ZM806.018 105.448C807.624 105.448 808.939 106.762 808.939 108.368C808.939 109.974 807.624 111.288 806.018 111.288C804.412 111.288 803.098 109.974 803.098 108.368C803.244 106.762 804.558 105.448 806.018 105.448ZM806.018 76.1051C807.624 76.1051 808.939 77.4189 808.939 79.0248C808.939 80.6306 807.624 81.9445 806.018 81.9445C804.412 81.9445 803.098 80.6306 803.098 79.0248C803.244 77.4189 804.558 76.1051 806.018 76.1051ZM806.018 46.7619C807.624 46.7619 808.939 48.0757 808.939 49.6816C808.939 51.2874 807.624 52.6013 806.018 52.6013C804.412 52.6013 803.098 51.2874 803.098 49.6816C803.244 48.0757 804.558 46.7619 806.018 46.7619ZM806.018 17.4187C807.624 17.4187 808.939 18.7326 808.939 20.3384C808.939 21.9442 807.624 23.2581 806.018 23.2581C804.412 23.2581 803.098 21.9442 803.098 20.3384C803.244 18.5866 804.558 17.4187 806.018 17.4187ZM806.018 -12.0705C807.624 -12.0705 808.939 -10.7566 808.939 -9.15074C808.939 -7.54489 807.624 -6.23102 806.018 -6.23102C804.412 -6.23102 803.098 -7.54489 803.098 -9.15074C803.244 -10.7566 804.558 -12.0705 806.018 -12.0705ZM806.018 -41.4137C807.624 -41.4137 808.939 -40.0998 808.939 -38.4939C808.939 -36.8881 807.624 -35.5742 806.018 -35.5742C804.412 -35.5742 803.098 -36.8881 803.098 -38.4939C803.244 -40.0998 804.558 -41.4137 806.018 -41.4137ZM806.018 -70.7568C807.624 -70.7568 808.939 -69.443 808.939 -67.8371C808.939 -66.2313 807.624 -64.9174 806.018 -64.9174C804.412 -64.9174 803.098 -66.2313 803.098 -67.8371C803.244 -69.443 804.558 -70.7568 806.018 -70.7568ZM806.018 -100.1C807.624 -100.1 808.939 -98.7862 808.939 -97.1803C808.939 -95.5745 807.624 -94.2606 806.018 -94.2606C804.412 -94.2606 803.098 -95.5745 803.098 -97.1803C803.244 -98.7862 804.558 -100.1 806.018 -100.1ZM806.018 -129.443C807.624 -129.443 808.939 -128.129 808.939 -126.523C808.939 -124.918 807.624 -123.604 806.018 -123.604C804.412 -123.604 803.098 -124.918 803.098 -126.523C803.244 -128.275 804.558 -129.443 806.018 -129.443ZM806.018 -158.932C807.624 -158.932 808.939 -157.618 808.939 -156.013C808.939 -154.407 807.624 -153.093 806.018 -153.093C804.412 -153.093 803.098 -154.407 803.098 -156.013C803.244 -157.618 804.558 -158.932 806.018 -158.932Z" fill="#8FB6C1"/>
</g>
<defs>
<clipPath id="clip0_154_12">
<rect width="1440" height="82" fill="white"/>
</clipPath>
</defs>
</svg>
