<svg width="1920" height="1625" viewBox="0 0 1920 1625" fill="none" xmlns="http://www.w3.org/2000/svg">
<g opacity="0.2" clip-path="url(#clip0_179_542)">
<path d="M467.377 1206.44L438.053 1235.75L439.911 1237.61L469.235 1208.29L467.377 1206.44Z" fill="#8FB6C1"/>
<path d="M496.707 1206.47L467.383 1235.78L469.241 1237.64L498.565 1208.32L496.707 1206.47Z" fill="#8FB6C1"/>
<path d="M526.053 1206.38L496.729 1235.7L498.588 1237.55L527.912 1208.24L526.053 1206.38Z" fill="#8FB6C1"/>
<path d="M555.392 1206.35L526.068 1235.66L527.927 1237.52L557.251 1208.2L555.392 1206.35Z" fill="#8FB6C1"/>
<path d="M584.734 1206.5L555.406 1235.81L557.265 1237.67L586.593 1208.35L584.734 1206.5Z" fill="#8FB6C1"/>
<path d="M975.514 1031.25L946.19 1060.56L948.049 1062.42L977.373 1033.11L975.514 1031.25Z" fill="#8FB6C1"/>
<path d="M1004.86 1031.29L975.539 1060.6L977.398 1062.46L1006.72 1033.15L1004.86 1031.29Z" fill="#8FB6C1"/>
<path d="M1034.19 1031.19L1004.87 1060.51L1006.73 1062.37L1036.05 1033.05L1034.19 1031.19Z" fill="#8FB6C1"/>
<path d="M1063.53 1031.15L1034.2 1060.47L1036.06 1062.33L1065.39 1033.01L1063.53 1031.15Z" fill="#8FB6C1"/>
<path d="M1092.91 1031.29L1063.58 1060.6L1065.44 1062.46L1094.77 1033.15L1092.91 1031.29Z" fill="#8FB6C1"/>
<g opacity="0.1">
<path d="M1803.14 233.67L1211.3 825.365L1213.37 827.43L1805.21 235.735L1803.14 233.67Z" fill="#8FB6C1"/>
</g>
<g opacity="0.1">
<path d="M1976.92 128.564L1385.08 720.259L1387.14 722.324L1978.98 130.628L1976.92 128.564Z" fill="#8FB6C1"/>
</g>
<g opacity="0.1">
<path d="M1143.08 1159.22L551.238 1750.91L553.303 1752.98L1145.15 1161.28L1143.08 1159.22Z" fill="#8FB6C1"/>
</g>
<g opacity="0.1">
<path d="M1316.86 1054.11L725.012 1645.81L727.077 1647.87L1318.92 1056.18L1316.86 1054.11Z" fill="#8FB6C1"/>
</g>
<g opacity="0.1">
<path d="M561.935 105.161L-29.9082 696.856L-27.8432 698.921L564 107.225L561.935 105.161Z" fill="#8FB6C1"/>
</g>
<g opacity="0.1">
<path d="M735.709 0.0543428L143.865 591.75L145.93 593.814L737.774 2.11888L735.709 0.0543428Z" fill="#8FB6C1"/>
</g>
<g opacity="0.1">
<path d="M158.875 1064.29L-432.968 1655.99L-430.903 1658.05L160.94 1066.36L158.875 1064.29Z" fill="#8FB6C1"/>
</g>
<g opacity="0.1">
<path d="M332.649 959.187L-259.195 1550.88L-257.13 1552.95L334.714 961.252L332.649 959.187Z" fill="#8FB6C1"/>
</g>
<g opacity="0.49">
<g opacity="0.49">
<path opacity="0.49" d="M5.94388 775.624L-135.406 1020.59C-136.866 1020.3 -138.326 1020 -139.787 1019.71L3.02342 772.266C4.04558 773.288 5.06773 774.456 5.94388 775.624Z" fill="#8FB6C1"/>
</g>
<g opacity="0.49">
<path opacity="0.49" d="M12.661 784.091L-124.6 1021.9C-126.206 1021.76 -127.667 1021.61 -129.273 1021.46L9.88652 780.441C10.7626 781.609 11.7849 782.923 12.661 784.091Z" fill="#8FB6C1"/>
</g>
<g opacity="0.49">
<path opacity="0.49" d="M18.7939 793.434L-113.649 1022.63C-115.255 1022.63 -116.861 1022.49 -118.467 1022.49L16.1655 789.492C17.0416 790.66 17.9178 792.12 18.7939 793.434Z" fill="#8FB6C1"/>
</g>
<g opacity="0.49">
<path opacity="0.49" d="M24.4886 803.507L-101.967 1022.49C-103.573 1022.63 -105.325 1022.63 -106.932 1022.63L22.1523 799.127C22.8824 800.587 23.7585 802.047 24.4886 803.507Z" fill="#8FB6C1"/>
</g>
<g opacity="0.49">
<path opacity="0.49" d="M29.5992 814.748L-89.7012 1021.46C-91.4535 1021.76 -93.2057 1021.9 -94.958 1022.05L27.5549 809.93C28.285 811.39 28.8691 812.996 29.5992 814.748Z" fill="#8FB6C1"/>
</g>
<g opacity="0.49">
<path opacity="0.49" d="M33.98 827.011L-76.997 1019.13C-78.8953 1019.57 -80.6476 1020 -82.5459 1020.3L32.2278 821.609C32.9579 823.361 33.542 825.113 33.98 827.011Z" fill="#8FB6C1"/>
</g>
<g opacity="0.49">
<path opacity="0.49" d="M37.6306 840.733L-63.2709 1015.33C-65.1692 1015.92 -67.2135 1016.65 -69.2578 1017.08L36.1704 834.602C36.7545 836.646 37.1925 838.69 37.6306 840.733Z" fill="#8FB6C1"/>
</g>
<g opacity="0.49">
<path opacity="0.49" d="M40.1129 856.354L-48.3768 1009.64C-50.5671 1010.66 -52.6114 1011.54 -54.8018 1012.41L39.2367 849.493C39.5288 851.682 39.8208 854.018 40.1129 856.354Z" fill="#8FB6C1"/>
</g>
<g opacity="0.49">
<path opacity="0.49" d="M40.8436 871.974C40.8436 872.996 40.8436 874.018 40.8436 875.04L-31.8756 1001.03C-34.212 1002.49 -36.6944 1003.8 -39.1768 1005.11L40.8436 866.719C40.8436 868.471 40.8436 870.223 40.8436 871.974Z" fill="#8FB6C1"/>
</g>
<g opacity="0.49">
<path opacity="0.49" d="M40.1131 887.887C39.675 891.682 39.237 895.478 38.5068 899.274L-12.0169 986.719C-14.9374 989.201 -18.0038 991.537 -21.0703 993.873L40.1131 887.887Z" fill="#8FB6C1"/>
</g>
<g opacity="0.49">
<path opacity="0.49" d="M33.104 920.004C26.6791 939.274 16.4574 956.792 3.31543 971.683L33.104 920.004Z" fill="#8FB6C1"/>
</g>
</g>
<path d="M1413.75 1252.27L1324.53 1163.07L1413.75 1073.87L1502.97 1163.07L1413.75 1252.27ZM1328.62 1163.07L1413.75 1248.18L1498.88 1163.07L1413.75 1077.96L1328.62 1163.07Z" fill="#8FB6C1"/>
<path d="M368.956 791.682L276.815 699.565L368.956 607.448L461.096 699.565L368.956 791.682ZM280.904 699.565L368.956 787.595L457.007 699.565L368.956 611.536L280.904 699.565Z" fill="#8FB6C1"/>
<path d="M294.484 1191.68L253.452 1150.66L294.484 1109.64L335.517 1150.66L294.484 1191.68ZM257.541 1150.66L294.484 1187.6L331.428 1150.66L294.484 1113.73L257.541 1150.66Z" fill="#8FB6C1"/>
<path d="M1318.1 620.879L1277.07 579.857L1318.1 538.834L1359.13 579.857L1318.1 620.879ZM1281.16 579.857L1318.1 616.791L1355.05 579.857L1318.1 542.922L1281.16 579.857Z" fill="#8FB6C1"/>
<path d="M1488.51 942.486L1459.89 913.872L1488.51 885.259L1517.13 913.872L1488.51 942.486ZM1463.98 913.727L1488.51 938.252L1513.04 913.727L1488.51 889.201L1463.98 913.727Z" fill="#8FB6C1"/>
<path d="M524.762 984.822L496.142 956.208L524.762 927.595L553.383 956.208L524.762 984.822ZM500.23 956.062L524.762 980.588L549.294 956.062L524.762 931.537L500.23 956.062Z" fill="#8FB6C1"/>
<path opacity="0.1" d="M849.662 704.674C868.645 700.003 886.898 693.434 903.982 684.82C991.012 641.755 1050.73 552.119 1050.73 448.615C1050.73 446.863 1050.73 444.965 1050.73 443.214H929.828C929.828 444.965 929.974 446.863 929.974 448.615C929.974 527.447 866.016 591.389 787.164 591.389C708.312 591.389 644.354 527.447 644.354 448.615C644.354 446.863 644.354 444.965 644.5 443.214H523.594C523.594 444.965 523.594 446.863 523.594 448.615C523.594 573.725 610.769 678.397 727.733 705.404C746.278 709.638 765.553 711.974 785.266 712.12C785.85 712.12 786.58 712.12 787.164 712.12C808.63 712.12 829.511 709.492 849.662 704.674Z" fill="#8FB6C1"/>
<path opacity="0.1" d="M874.339 443.068H699.696C699.696 491.243 738.83 530.367 787.018 530.367C835.351 530.367 874.339 491.389 874.339 443.068Z" fill="#8FB6C1"/>
<path opacity="0.2" d="M787.018 736.791C788.624 736.791 789.939 738.105 789.939 739.711C789.939 741.317 788.624 742.631 787.018 742.631C785.412 742.631 784.098 741.317 784.098 739.711C784.244 738.105 785.558 736.791 787.018 736.791ZM787.018 707.448C788.624 707.448 789.939 708.762 789.939 710.368C789.939 711.974 788.624 713.288 787.018 713.288C785.412 713.288 784.098 711.974 784.098 710.368C784.244 708.762 785.558 707.448 787.018 707.448ZM787.018 678.105C788.624 678.105 789.939 679.419 789.939 681.025C789.939 682.631 788.624 683.944 787.018 683.944C785.412 683.944 784.098 682.631 784.098 681.025C784.244 679.419 785.558 678.105 787.018 678.105ZM787.018 648.762C788.624 648.762 789.939 650.076 789.939 651.681C789.939 653.287 788.624 654.601 787.018 654.601C785.412 654.601 784.098 653.287 784.098 651.681C784.244 650.076 785.558 648.762 787.018 648.762ZM787.018 619.419C788.624 619.419 789.939 620.732 789.939 622.338C789.939 623.944 788.624 625.258 787.018 625.258C785.412 625.258 784.098 623.944 784.098 622.338C784.244 620.586 785.558 619.419 787.018 619.419ZM787.018 589.929C788.624 589.929 789.939 591.243 789.939 592.849C789.939 594.455 788.624 595.769 787.018 595.769C785.412 595.769 784.098 594.455 784.098 592.849C784.244 591.243 785.558 589.929 787.018 589.929ZM787.018 560.586C788.624 560.586 789.939 561.9 789.939 563.506C789.939 565.112 788.624 566.426 787.018 566.426C785.412 566.426 784.098 565.112 784.098 563.506C784.244 561.9 785.558 560.586 787.018 560.586ZM787.018 531.243C788.624 531.243 789.939 532.557 789.939 534.163C789.939 535.769 788.624 537.082 787.018 537.082C785.412 537.082 784.098 535.769 784.098 534.163C784.244 532.557 785.558 531.243 787.018 531.243ZM787.018 501.9C788.624 501.9 789.939 503.214 789.939 504.82C789.939 506.425 788.624 507.739 787.018 507.739C785.412 507.739 784.098 506.425 784.098 504.82C784.244 503.214 785.558 501.9 787.018 501.9ZM787.018 472.557C788.624 472.557 789.939 473.871 789.939 475.476C789.939 477.082 788.624 478.396 787.018 478.396C785.412 478.396 784.098 477.082 784.098 475.476C784.244 473.725 785.558 472.557 787.018 472.557ZM787.018 443.068C788.624 443.068 789.939 444.381 789.939 445.987C789.939 447.593 788.624 448.907 787.018 448.907C785.412 448.907 784.098 447.593 784.098 445.987C784.244 444.381 785.558 443.068 787.018 443.068Z" fill="#8FB6C1"/>
<path opacity="0.1" d="M1027.22 1086.87C852.582 1086.87 711.086 1228.33 711.086 1402.93C711.086 1577.52 852.582 1718.99 1027.22 1718.99C1201.87 1718.99 1343.36 1577.52 1343.36 1402.93C1343.36 1228.47 1201.87 1086.87 1027.22 1086.87ZM1027.22 1644.82C893.614 1644.82 785.411 1536.5 785.411 1403.07C785.411 1269.64 893.76 1161.32 1027.22 1161.32C1160.84 1161.32 1269.04 1269.64 1269.04 1403.07C1269.04 1536.5 1160.84 1644.82 1027.22 1644.82Z" fill="#8FB6C1"/>
<path opacity="0.1" d="M1027.23 1195.04C912.451 1195.04 819.289 1288.18 819.289 1402.93C819.289 1517.67 912.451 1610.81 1027.23 1610.81C1142 1610.81 1235.16 1517.67 1235.16 1402.93C1235.16 1288.18 1142.14 1195.04 1027.23 1195.04ZM1027.23 1562.05C939.32 1562.05 868.207 1490.81 868.207 1403.07C868.207 1315.33 939.466 1244.09 1027.23 1244.09C1114.98 1244.09 1186.39 1315.19 1186.39 1402.93C1186.39 1490.66 1115.13 1562.05 1027.23 1562.05Z" fill="#8FB6C1"/>
<path opacity="0.1" d="M1608.4 727.74C1500.78 727.74 1413.46 815.04 1413.46 922.632C1413.46 1030.22 1500.78 1117.52 1608.4 1117.52C1716.01 1117.52 1803.34 1030.22 1803.34 922.632C1803.34 815.04 1716.16 727.74 1608.4 727.74ZM1608.4 1071.83C1526.04 1071.83 1459.31 1005.11 1459.31 922.778C1459.31 840.441 1526.04 773.726 1608.4 773.726C1690.75 773.726 1757.48 840.441 1757.48 922.778C1757.48 1005.11 1690.9 1071.83 1608.4 1071.83Z" fill="#8FB6C1"/>
<path opacity="0.1" d="M1608.39 794.456C1537.57 794.456 1480.19 851.829 1480.19 922.632C1480.19 993.435 1537.57 1050.81 1608.39 1050.81C1679.22 1050.81 1736.6 993.435 1736.6 922.632C1736.75 851.975 1679.22 794.456 1608.39 794.456ZM1608.39 1020.73C1554.22 1020.73 1510.27 976.793 1510.27 922.632C1510.27 868.471 1554.22 824.529 1608.39 824.529C1662.57 824.529 1706.52 868.471 1706.52 922.632C1706.52 976.793 1662.57 1020.73 1608.39 1020.73Z" fill="#8FB6C1"/>
<path opacity="0.1" d="M119 842.833V826.466H127.265V777.367H119V761H150.863V777.367H143.676V826.466H150.863V842.833H119ZM156.852 822.434V810.1H165.118V773.334H156.852V761H181.648L206.324 796.105V773.334H198.059V761H231V773.334H222.735V822.434H206.324L181.528 787.329V810.1H189.794V822.434H156.852ZM210.876 908.299L224.052 895.253V839.631L210.876 826.585H187.757L174.581 839.631V851.135H191.111V842.951H207.522V892.051H191.111V883.868H174.581V895.372L187.757 908.418H210.876V908.299ZM155.415 908.299L168.591 898.456V856.709L155.415 846.865H132.296L119.12 856.709V898.456L132.296 908.299H155.415ZM152.061 895.965H135.65V859.199H152.061V895.965ZM139.843 924.666H210.397V937H139.843V924.666Z" fill="#034F64"/>
<path opacity="0.1" d="M978 1403.83V1387.47H986.265V1338.37H978V1322H1009.86V1338.37H1002.68V1387.47H1009.86V1403.83H978ZM1015.85 1383.43V1371.1H1024.12V1334.33H1015.85V1322H1040.65L1065.32 1357.11V1334.33H1057.06V1322H1090V1334.33H1081.73V1383.43H1065.32L1040.53 1348.33V1371.1H1048.79V1383.43H1015.85ZM1069.88 1469.3L1083.05 1456.25V1400.63L1069.88 1387.58H1046.76L1033.58 1400.63V1412.13H1050.11V1403.95H1066.52V1453.05H1050.11V1444.87H1033.58V1456.37L1046.76 1469.42H1069.88V1469.3ZM1014.41 1469.3L1027.59 1459.46V1417.71L1014.41 1407.87H991.296L978.12 1417.71V1459.46L991.296 1469.3H1014.41ZM1011.06 1456.96H994.65V1420.2H1011.06V1456.96ZM998.843 1485.67H1069.4V1498H998.843V1485.67Z" fill="#034F64"/>
<path opacity="0.1" d="M1752 1498.48V1466.58H1768.09V1370.9H1752V1339H1814.02V1370.9H1800.03V1466.58H1814.02V1498.48H1752ZM1825.68 1458.73V1434.69H1841.76V1363.04H1825.68V1339H1873.94L1921.97 1407.42V1363.04H1905.88V1339H1970V1363.04H1953.91V1458.73H1921.97L1873.71 1390.31V1434.69H1889.79V1458.73H1825.68ZM1930.83 1626.07L1956.48 1600.64V1492.24L1930.83 1466.82H1885.83L1860.18 1492.24V1514.66H1892.36V1498.71H1924.3V1594.4H1892.36V1578.45H1860.18V1600.87L1885.83 1626.3H1930.83V1626.07ZM1822.88 1626.07L1848.53 1606.88V1525.52L1822.88 1506.34H1777.88L1752.23 1525.52V1606.88L1777.88 1626.07H1822.88ZM1816.35 1602.03H1784.41V1530.38H1816.35V1602.03ZM1792.57 1657.96H1929.9V1682H1792.57V1657.96Z" fill="#034F64"/>
</g>
<defs>
<clipPath id="clip0_179_542">
<rect width="2412" height="1753" fill="white" transform="translate(-433)"/>
</clipPath>
</defs>
</svg>
